<svg width="17" height="22" viewBox="0 0 17 22" fill="none" xmlns="http://www.w3.org/2000/svg">
<path d="M1.99956 9.49993C1.70289 9.49993 1.41288 9.5879 1.1662 9.75272C0.919529 9.91754 0.727272 10.1518 0.613739 10.4259C0.500208 10.7 0.470503 11.0016 0.528381 11.2926C0.58626 11.5835 0.72912 11.8508 0.9389 12.0606C1.14868 12.2704 1.41595 12.4132 1.70692 12.4711C1.9979 12.529 2.2995 12.4993 2.57359 12.3857C2.84767 12.2722 3.08194 12.08 3.24676 11.8333C3.41159 11.5866 3.49956 11.2966 3.49956 10.9999C3.49956 10.6021 3.34152 10.2206 3.06022 9.93927C2.77891 9.65796 2.39738 9.49993 1.99956 9.49993ZM13.258 0.536489C15.6776 3.48673 17 7.18436 17 10.9999C17 14.8155 15.6776 18.5131 13.258 21.4634C13.1642 21.5776 13.0489 21.6722 12.9186 21.7418C12.7883 21.8114 12.6455 21.8547 12.4985 21.8691C12.3515 21.8836 12.203 21.8689 12.0617 21.826C11.9203 21.7831 11.7887 21.7127 11.6746 21.619C11.5604 21.5252 11.4658 21.4099 11.3961 21.2796C11.3265 21.1493 11.2833 21.0065 11.2688 20.8595C11.2544 20.7125 11.269 20.564 11.3119 20.4226C11.3548 20.2813 11.4252 20.1497 11.5189 20.0356C13.6081 17.4878 14.7499 14.2948 14.7499 10.9999C14.7499 7.7051 13.6081 4.51208 11.5189 1.9643C11.4252 1.85011 11.3548 1.71858 11.3119 1.5772C11.269 1.43583 11.2544 1.28739 11.2688 1.14035C11.2833 0.993317 11.3265 0.850567 11.3961 0.720253C11.4658 0.589941 11.5604 0.474615 11.6746 0.380863C11.7887 0.287111 11.9203 0.21677 12.0617 0.173853C12.203 0.130936 12.3515 0.116285 12.4985 0.130735C12.6455 0.145187 12.7883 0.188457 12.9186 0.258078C13.0489 0.327696 13.1642 0.4223 13.258 0.536489ZM9.90831 3.55149C11.5866 5.67144 12.4998 8.29606 12.4998 10.9999C12.4998 13.7038 11.5866 16.3284 9.90831 18.4484C9.72116 18.6764 9.45194 18.8218 9.15863 18.8532C8.86533 18.8846 8.57141 18.7996 8.34019 18.6165C8.10896 18.4333 7.95892 18.1666 7.92239 17.8739C7.88586 17.5812 7.96575 17.2859 8.14487 17.0515C9.50834 15.3291 10.2502 13.1967 10.2502 10.9999C10.2502 8.80317 9.50834 6.67078 8.14487 4.94836C7.96575 4.71399 7.88586 4.41864 7.92239 4.12593C7.95892 3.83321 8.10896 3.56656 8.34019 3.3834C8.57141 3.20023 8.86533 3.11522 9.15863 3.14666C9.45194 3.1781 9.72116 3.32348 9.90831 3.55149ZM6.56518 6.58711C7.49749 7.86959 7.99966 9.41439 7.99966 10.9999C7.99966 12.5855 7.49749 14.1303 6.56518 15.4127C6.3894 15.6539 6.125 15.8154 5.83016 15.8616C5.53531 15.9079 5.23418 15.8351 4.993 15.6593C4.75181 15.4835 4.59034 15.2191 4.5441 14.9243C4.49786 14.6294 4.57065 14.3283 4.74644 14.0871C5.39871 13.1899 5.75005 12.1092 5.75005 10.9999C5.75005 9.89068 5.39871 8.80994 4.74644 7.91274C4.65939 7.79332 4.59672 7.65792 4.56201 7.51428C4.52729 7.37064 4.52121 7.22157 4.5441 7.07558C4.567 6.92959 4.61843 6.78954 4.69545 6.66342C4.77247 6.5373 4.87358 6.42759 4.993 6.34055C5.11242 6.25351 5.24781 6.19084 5.39145 6.15613C5.53509 6.12141 5.68417 6.11533 5.83016 6.13822C5.97615 6.16112 6.1162 6.21254 6.24232 6.28957C6.36843 6.36659 6.47814 6.46769 6.56518 6.58711Z" fill="white"/>
</svg>
