<svg width="21" height="20" viewBox="0 0 21 20" fill="none" xmlns="http://www.w3.org/2000/svg">
<path fill-rule="evenodd" clip-rule="evenodd" d="M10.66 20C16.2045 20 20.66 15.5444 20.66 10C20.66 4.45556 16.2045 0 10.66 0C5.11559 0 0.660034 4.45556 0.660034 10C0.660034 15.5444 5.11559 20 10.66 20ZM13.41 11.58C13.41 10.1244 12.5356 9.62444 10.7856 9.41778C9.53559 9.24889 9.28559 8.91778 9.28559 8.33111C9.28559 7.75 9.70448 7.37556 10.5356 7.37556C11.2856 7.37556 11.7045 7.62444 11.91 8.25C11.9545 8.37444 12.0789 8.45556 12.2045 8.45556H12.8667C12.9051 8.45676 12.9433 8.45018 12.9791 8.43621C13.0148 8.42225 13.0474 8.40119 13.0748 8.3743C13.1022 8.34741 13.1239 8.31525 13.1385 8.27976C13.1532 8.24426 13.1605 8.20617 13.16 8.16778V8.12444C12.9911 7.20556 12.2411 6.33111 11.2856 6.25V5.33111C11.2856 5.16222 11.16 5.03667 10.9545 5H10.4045C10.2356 5 10.0789 5.12444 10.0356 5.33111V6.25C8.78559 6.41778 7.95448 7.37444 7.95448 8.41778C7.95448 9.79333 8.78559 10.3311 10.5356 10.5433C11.7045 10.7489 12.08 10.9989 12.08 11.6678C12.08 12.3311 11.4911 12.7933 10.7045 12.7933C9.61559 12.7933 9.24226 12.3311 9.1167 11.7056C9.07892 11.5433 8.95448 11.4556 8.82892 11.4556H8.1167C8.07831 11.4551 8.04022 11.4624 8.00472 11.477C7.96923 11.4917 7.93707 11.5134 7.91018 11.5408C7.88329 11.5682 7.86223 11.6008 7.84827 11.6365C7.8343 11.6723 7.82772 11.7105 7.82892 11.7489V11.7933C7.99115 12.8311 8.66003 13.5433 10.0356 13.7489V14.6744C10.0356 14.8433 10.16 14.9556 10.3667 15H10.9667C11.1289 15 11.2423 14.8867 11.2856 14.6744V13.7489C12.5356 13.5433 13.41 12.7056 13.41 11.58ZM6.45226 14.6944C7.05686 15.2479 7.76486 15.6765 8.53559 15.9556C8.66004 16.0433 8.78559 16.2056 8.78559 16.3311V16.9178C8.78559 16.9989 8.78559 17.0433 8.74115 17.08C8.70448 17.2489 8.53559 17.33 8.3667 17.2489C6.85073 16.7656 5.52773 15.8127 4.58892 14.528C3.65012 13.2433 3.14415 11.6934 3.14415 10.1022C3.14415 8.51107 3.65012 6.96113 4.58892 5.67645C5.52773 4.39176 6.85073 3.43889 8.3667 2.95556C8.41115 2.91778 8.49115 2.91778 8.53559 2.91778C8.70448 2.95556 8.78559 3.08111 8.78559 3.24889V3.83111C8.78559 4.04222 8.70448 4.16778 8.53559 4.24889C7.68339 4.5565 6.90944 5.04811 6.26879 5.68876C5.62814 6.32941 5.13653 7.10336 4.82892 7.95556C4.39895 9.11285 4.32363 10.372 4.61258 11.5723C4.90152 12.7726 5.54162 13.8596 6.45115 14.6944M12.5778 3.12444C12.6156 2.95556 12.7845 2.87444 12.9534 2.95556C14.0991 3.3275 15.1394 3.96801 15.9873 4.82367C16.8352 5.67933 17.4663 6.72534 17.8278 7.87444C19.0778 11.83 16.9089 16.0433 12.9534 17.2933C12.9089 17.33 12.8278 17.33 12.7845 17.33C12.6156 17.2933 12.5345 17.1678 12.5345 16.9989V16.4178C12.5345 16.2056 12.6156 16.0811 12.7845 15.9989C13.6364 15.6913 14.41 15.1998 15.0505 14.5593C15.6909 13.9189 16.1824 13.1452 16.49 12.2933C16.7759 11.525 16.9068 10.7077 16.875 9.88858C16.8433 9.06943 16.6495 8.2647 16.305 7.52086C15.9604 6.77702 15.4719 6.10881 14.8677 5.55484C14.2634 5.00087 13.5554 4.57211 12.7845 4.29333C12.6589 4.20556 12.5345 4.04333 12.5345 3.87444V3.29333C12.5345 3.20556 12.5345 3.16778 12.5789 3.12444" fill="#2775CA"/>
</svg>
