<svg width="21" height="20" viewBox="0 0 21 20" fill="none" xmlns="http://www.w3.org/2000/svg">
<path d="M10.33 20C15.8529 20 20.33 15.5228 20.33 10C20.33 4.47715 15.8529 0 10.33 0C4.80717 0 0.330017 4.47715 0.330017 10C0.330017 15.5228 4.80717 20 10.33 20Z" fill="#26A17B"/>
<path fill-rule="evenodd" clip-rule="evenodd" d="M11.5313 10.8647V10.8635C11.4625 10.8685 11.1082 10.8897 10.3175 10.8897C9.6863 10.8897 9.24192 10.871 9.08567 10.8635V10.8653C6.65567 10.7585 4.84192 10.3353 4.84192 9.82908C4.84192 9.32283 6.65567 8.90033 9.08567 8.79158V10.4441C9.24442 10.4553 9.69942 10.4822 10.3282 10.4822C11.0825 10.4822 11.4607 10.451 11.5313 10.4447V8.79283C13.9563 8.90096 15.7657 9.32408 15.7657 9.82908C15.7657 10.3353 13.9563 10.7572 11.5313 10.8647ZM11.5313 8.62096V7.14221H14.915V4.88721H5.70192V7.14221H9.08567V8.62033C6.33567 8.74658 4.26755 9.29158 4.26755 9.94408C4.26755 10.5966 6.33567 11.141 9.08567 11.2678V16.0066H11.5313V11.2666C14.2769 11.1403 16.34 10.596 16.34 9.94408C16.34 9.29221 14.2769 8.74783 11.5313 8.62096Z" fill="white"/>
</svg>
