<svg width="18" height="15" viewBox="0 0 18 15" fill="none" xmlns="http://www.w3.org/2000/svg">
<path d="M12.0621 4.36434C11.7386 4.3642 11.4156 4.38761 11.0964 4.43431C10.9828 3.38359 10.5033 2.39144 9.72551 1.59822C8.94776 0.805 7.91121 0.250866 6.76249 0.0142122C6.65932 -0.00701367 6.55183 -0.0044279 6.45008 0.0217271C6.34834 0.0478821 6.25568 0.0967495 6.18079 0.163747C6.1059 0.230744 6.05124 0.313677 6.02193 0.404768C5.99262 0.49586 5.98962 0.592125 6.01321 0.684539C6.16043 1.25891 6.16123 1.85561 6.01554 2.43029C5.86985 3.00498 5.58143 3.54287 5.1717 4.004C4.76197 4.46513 4.24148 4.83764 3.64889 5.09384C3.05631 5.35005 2.40687 5.48336 1.74885 5.48388C1.41784 5.48392 1.08787 5.4506 0.765185 5.38452C0.661942 5.36325 0.554355 5.36583 0.45253 5.39201C0.350705 5.4182 0.257982 5.46714 0.183071 5.53422C0.10816 5.60131 0.0535187 5.68435 0.0242789 5.77554C-0.00496101 5.86674 -0.00783984 5.96309 0.0159129 6.05555C0.183829 6.704 0.493143 7.31635 0.926089 7.85742C1.35904 8.39849 1.90708 8.85763 2.53875 9.20846C2.0945 9.75048 1.82663 10.3921 1.76488 11.0622C1.70313 11.7323 1.84991 12.4046 2.18893 13.0045C2.52794 13.6044 3.04594 14.1085 3.68543 14.4607C4.32491 14.813 5.06087 14.9996 5.81164 15H12.0621C13.6369 15 15.1472 14.4397 16.2608 13.4424C17.3744 12.4452 18 11.0925 18 9.68217C18 8.27179 17.3744 6.91918 16.2608 5.9219C15.1472 4.92461 13.6369 4.36434 12.0621 4.36434ZM1.54336 6.60343C1.61134 6.60343 1.68009 6.60343 1.74885 6.60343C3.24029 6.60194 4.67017 6.07069 5.72478 5.12621C6.77939 4.18173 7.37259 2.90117 7.37425 1.56548C7.37425 1.50321 7.37425 1.44093 7.37425 1.37866C8.094 1.6803 8.70764 2.1529 9.14845 2.74505C9.58925 3.33721 9.84034 4.02626 9.87442 4.73729C9.11098 5.00879 8.41846 5.4187 7.84031 5.94129C7.26217 6.46387 6.81089 7.08785 6.51481 7.77405C5.98636 7.69216 5.44503 7.70478 4.92205 7.81118C4.39907 7.91758 3.90479 8.11566 3.46772 8.39399C2.62707 7.99905 1.95191 7.37083 1.54336 6.60343ZM12.0621 13.8805H5.81164C5.42694 13.8798 5.04648 13.8085 4.69378 13.671C4.34108 13.5334 4.02363 13.3325 3.76107 13.0807C3.49851 12.8289 3.29642 12.5315 3.1673 12.207C3.03817 11.8825 2.98475 11.5377 3.01034 11.1939C3.03594 10.8501 3.14 10.5147 3.31609 10.2084C3.49219 9.90212 3.73657 9.63142 4.03413 9.41306C4.33169 9.19471 4.67611 9.03334 5.04608 8.93893C5.41605 8.84453 5.80372 8.81909 6.1851 8.8642C6.15619 9.03004 6.13588 9.19937 6.12494 9.3701C6.12022 9.44361 6.13171 9.51723 6.15876 9.58676C6.18582 9.65629 6.22789 9.72037 6.2826 9.77534C6.3373 9.83031 6.40356 9.87509 6.47759 9.90713C6.55161 9.93916 6.63196 9.95783 6.71404 9.96206C6.79613 9.96628 6.87833 9.95599 6.95597 9.93176C7.03361 9.90754 7.10517 9.86985 7.16654 9.82086C7.22792 9.77187 7.27792 9.71253 7.3137 9.64624C7.34947 9.57994 7.37031 9.50798 7.37503 9.43447C7.39256 9.15527 7.44178 8.87839 7.52191 8.60811C7.52191 8.59691 7.52895 8.58572 7.53129 8.57452C7.76102 7.81844 8.22222 7.13494 8.86279 6.6012C9.50336 6.06746 10.2978 5.70474 11.1564 5.55399C12.015 5.40324 12.9036 5.47048 13.7217 5.7481C14.5399 6.02572 15.2551 6.50268 15.7866 7.12511C16.3181 7.74753 16.6447 8.49064 16.7296 9.27053C16.8144 10.0504 16.6541 10.836 16.2667 11.5386C15.8793 12.2412 15.2803 12.8328 14.5374 13.2466C13.7944 13.6604 12.937 13.88 12.0621 13.8805Z" fill="black"/>
</svg>
