<svg width="195" height="214" viewBox="0 0 195 214" fill="none" xmlns="http://www.w3.org/2000/svg">
<path d="M138.942 141.134C143.351 138.771 147.462 135.892 151.19 132.557C151.99 131.843 152.503 130.998 153.252 130.249C154.246 129.251 155.262 128.274 156.267 127.286L162.297 121.361C162.506 121.155 162.725 120.943 163.002 120.845C163.478 120.675 164 120.878 164.466 121.072C167.857 122.479 171.383 123.537 174.988 124.229C179.067 125.012 184.976 125.012 186.166 119.872C188.089 118.97 189.331 116.791 189.126 114.676C188.921 112.561 187.286 110.66 185.226 110.143C185.621 108.848 186.186 107.915 185.455 106.695C184.822 105.648 184.006 104.723 183.045 103.965C181.024 102.366 178.944 101.995 176.47 101.605L168.137 100.29C168.727 98.5308 168.625 96.6134 167.853 94.9264C166.616 92.2541 163.599 90.3438 160.65 90.7255C159.488 90.8764 158.276 91.4284 157.788 92.4935C157.39 93.3604 157.55 94.3645 157.698 95.3087C157.958 96.9645 158.156 98.6514 157.936 100.313C157.804 101.311 157.511 102.304 157.017 103.187C156.591 103.95 155.77 104.612 155.601 105.458C155.414 106.389 155.713 107.27 154.939 108.036C154.497 108.473 153.865 108.649 153.262 108.808L144.235 111.183C144.012 111.242 143.765 111.297 143.564 111.183C143.213 110.99 143.27 110.465 143.439 110.104C144.033 108.851 145.317 108.108 146.387 107.227C147.692 106.15 148.734 104.794 149.763 103.451L155.086 96.5036C155.744 95.6448 156.409 94.7742 156.832 93.7801C157.246 92.8135 157.42 91.7639 157.589 90.7243C158.127 87.442 158.525 84.1859 159.086 80.9012C159.148 80.5507 159.223 80.169 159.498 79.9414C159.727 79.7505 160.043 79.7131 160.34 79.6832L167.626 78.9523C167.966 80.2859 168 81.6793 167.724 83.0278C170.204 82.2969 172.709 81.556 174.962 80.2875C176.942 79.1724 178.507 77.5098 179.884 75.7267C180.594 74.8056 181.348 73.8608 181.962 72.8717C182.913 71.3356 183.491 69.5252 184.152 67.8513C184.651 68.2049 184.821 68.8492 185.025 69.4267C185.229 70.0042 185.578 70.6265 186.179 70.7363C186.802 70.8498 187.364 70.3497 187.758 69.8526C188.404 69.0397 188.917 68.1295 189.278 67.156C189.738 65.9136 189.941 64.594 190.142 63.285L190.909 58.2845C191.514 54.3406 192.032 50.7022 190.961 46.7433C190.219 43.9943 188.908 41.3637 188.726 38.5217C189.308 38.4425 189.901 38.4829 190.467 38.6405C191.034 38.7982 191.562 39.0697 192.02 39.4385L192.259 39.2988C192.582 39.1117 192.108 36.1949 192.058 35.7852C191.611 32.132 190.449 28.6027 188.638 25.3989C188.093 24.4373 187.435 23.5785 187.031 22.5507C186.657 21.5945 186.235 20.6571 185.765 19.7387C184.694 17.6345 183.228 15.8602 182.008 13.8839C180.894 12.093 179.544 10.4611 177.993 9.03253C174.874 6.14379 171.036 4.06579 166.967 2.86339C165.085 2.30591 163.152 1.93841 161.197 1.7664C156.232 1.32984 151.219 2.08508 146.501 3.65543C144.126 4.45178 141.819 5.43933 139.603 6.6084C138.792 7.03436 138.049 7.72723 137.179 8.02596C136.393 8.296 135.587 8.50928 134.794 8.81362C132.87 9.5511 130.908 10.1883 128.918 10.7226C128.051 10.9546 127.147 11.1691 126.264 11.0039C125.278 10.8168 124.446 10.1875 123.597 9.65305C119.818 7.27321 115.232 6.63959 110.803 6.06084C108.442 5.74901 106.092 5.3636 103.73 5.05614C102.519 4.89836 101.306 4.76303 100.089 4.66699C99.1952 4.59589 98.3677 4.30402 97.4808 4.27471C92.6787 4.1163 87.7058 4.74058 82.9754 5.51702C80.2607 5.96293 77.5409 6.53544 75.0276 7.65426C72.4495 8.80552 70.2043 10.5274 67.6567 11.7123C65.3062 12.815 62.7592 13.437 60.165 13.542C57.5709 13.6469 54.9819 13.2327 52.5501 12.3235C51.4687 11.9225 50.4621 11.2271 49.3695 10.8891C48.3966 10.5892 47.5559 10.2917 46.6479 9.78028C45.6943 9.24332 44.7426 9.07244 43.6943 8.75188C41.2284 7.99852 38.7169 7.34493 36.1444 7.09672C25.9471 6.11322 15.8328 11.8302 9.84822 20.1447C3.86369 28.4592 1.59798 38.992 1.64475 49.2367L6.6832 48.2045C5.21389 52.6829 4.56717 57.4283 4.72869 62.1368C4.80909 64.4998 5.09876 66.851 5.59431 69.1628C5.84045 70.3124 6.13938 71.4493 6.49112 72.5736C6.56409 72.8062 6.61148 73.1498 6.74682 73.3525C6.8678 73.5327 7.126 73.6693 7.28129 73.8302C7.62764 74.2049 7.91946 74.6264 8.14815 75.0825C8.40946 75.5815 8.62151 76.0991 8.83791 76.6161C9.33683 77.8141 9.96671 79.0807 11.1279 79.6632C11.2832 79.7412 11.4591 79.806 11.6269 79.7624C11.7728 79.725 11.8857 79.6121 11.9867 79.4998C12.9979 78.3667 13.5306 76.8858 13.4729 75.3681C14.2799 77.4599 15.1075 79.5884 16.5107 81.3377C17.2516 82.2613 18.106 83.0839 18.8886 83.9714C19.545 84.7115 20.2443 85.4124 20.9828 86.0706C22.5285 87.4426 24.3393 88.4827 26.3032 89.1265C27.9881 89.685 29.761 89.9306 31.5344 89.8511L31.0853 86.0213L38.0559 86.0569C38.5292 87.2998 38.5342 88.6494 38.8423 89.9297C39.1716 91.2976 39.5618 92.6488 40.0129 93.9834C40.9149 96.6495 42.0561 99.2286 43.4223 101.689C44.2849 103.243 45.2234 104.843 46.5219 106.055C47.9295 107.364 49.3102 108.722 50.4833 110.252C47.4482 109.368 44.3824 108.607 41.2857 107.969C40.8623 107.881 40.4001 107.773 40.142 107.427C39.8975 107.1 39.9075 106.657 39.8632 106.252C39.8008 105.655 39.5171 105.556 39.1684 105.185C38.7899 104.781 38.5516 104.051 38.3577 103.543C37.464 101.21 37.6717 98.619 37.5875 96.1587C37.547 94.9289 37.4416 93.5544 36.5229 92.7361C35.9616 92.2341 35.1858 92.0433 34.4368 91.9528C33.2937 91.8144 31.6871 91.6978 30.6868 92.3445C29.8705 92.8721 29.2194 93.4234 28.6731 94.2404C27.3297 96.2492 27.046 98.8697 27.7625 101.178C24.0711 100.623 20.3101 100.732 16.6572 101.502C15.1517 101.819 13.6394 102.263 12.3771 103.143C10.9945 104.108 10.0073 105.527 9.05058 106.915C8.64521 107.503 8.23484 108.1 8.00347 108.776C7.7721 109.453 7.73842 110.228 8.07519 110.858C8.223 111.134 8.43566 111.373 8.5554 111.662C8.81109 112.277 8.59718 112.984 8.30594 113.581C8.01469 114.178 7.63365 114.757 7.54571 115.416C7.41163 116.414 7.97229 117.375 8.59656 118.169C9.22083 118.963 9.94925 119.72 10.2499 120.684C10.4794 121.418 10.4369 122.219 10.7051 122.941C11.2782 124.5 13.0787 125.237 14.7295 125.418C17.1337 125.683 19.3445 125.962 21.7219 125.402C24.1834 124.823 26.5059 123.781 28.804 122.752L32.7717 120.971C32.8135 120.93 37.3387 125.724 37.7702 126.168C40.0715 128.538 42.9864 130.062 45.6581 131.926L54.7478 138.267C58.0301 140.558 61.366 142.876 65.1465 144.192C66.0539 144.508 66.9139 144.629 67.1104 145.669C67.2944 146.643 66.9857 147.67 66.7038 148.594L63.81 158.125C63.5275 159.056 63.24 159.996 62.7355 160.829C62.1062 161.864 61.1764 162.674 60.3276 163.541C58.0463 165.876 56.2664 168.879 56.1049 172.14C56.0531 173.177 56.0955 174.385 55.2941 175.044C54.6767 175.549 53.8522 175.5 53.1182 175.673C52.2875 175.869 51.6526 176.435 50.9198 176.861C48.5968 178.214 45.9837 181.656 47.3307 184.449C47.9076 185.646 49.0028 186.519 50.169 187.155C52.3468 188.34 54.832 188.825 57.2904 189.15C65.729 190.259 74.3042 189.665 82.5095 187.404C85.6708 186.531 89.2318 184.668 88.5589 180.766C88.3444 179.528 87.6858 178.176 88.3462 177.106C88.9125 176.184 90.1648 176.008 91.2468 176.017C92.7004 176.03 94.1481 176.204 95.5631 176.536C96.5055 176.758 97.4559 177.062 98.2086 177.671C98.9614 178.281 99.4827 179.251 99.3275 180.207C99.1566 181.259 98.2467 182.024 97.3424 182.59C96.4381 183.156 95.4359 183.663 94.8515 184.555C94.3239 185.362 94.2173 186.389 94.3819 187.339C94.6613 188.947 95.6604 190.26 96.4874 191.653C97.5068 193.373 98.536 195.086 99.575 196.794C101.617 200.154 103.694 203.492 105.805 206.808C106.666 208.159 107.563 209.541 108.866 210.473C110.145 211.388 111.73 211.799 113.299 211.907C115.032 212.027 116.839 211.779 118.319 210.872C119.357 210.235 120.185 209.313 120.939 208.353C122.038 206.958 123.025 205.447 123.604 203.768C124.233 201.946 124.156 199.853 123.658 198.013C123.15 196.13 123.277 194.188 122.573 192.328C122.382 191.823 122.151 191.293 122.254 190.762C122.351 190.263 122.724 189.871 123.08 189.509L125.551 187.002C126.824 185.708 128.108 184.406 129.124 182.903C131.19 179.852 131.904 176.355 132.583 172.806C133.342 168.833 133.323 164.737 132.825 160.732C132.153 155.318 130.628 150.049 129.029 144.834C132.595 144.258 135.77 142.828 138.942 141.134Z" fill="#5F6599"/>
<path d="M82.4764 107.809C84.0266 110.872 86.2818 113.522 89.0565 115.543C89.8311 113.895 90.6268 112.215 91.886 110.9C92.6344 110.12 93.523 109.488 94.5053 109.037C96.8958 107.938 99.7533 107.983 102.172 109.021C104.59 110.059 106.558 112.045 107.716 114.408C109.329 113.176 110.959 111.928 112.233 110.354C113.507 108.78 114.416 106.815 114.354 104.787C112.968 105.938 111.048 106.355 109.253 106.523C107.458 106.691 105.654 106.482 103.873 106.215C102.351 105.987 100.698 105.64 99.7321 104.442C99.4708 104.118 99.2295 103.713 98.8216 103.631C98.4343 103.552 98.0657 103.801 97.7402 104.025C93.1152 107.205 86.6823 107.517 81.7692 104.806C82.0242 105.677 82.066 106.997 82.4764 107.809Z" fill="black"/>
<path d="M80.8687 66.3827C82.464 62.2436 84.5482 58.1649 87.6808 54.9912C91.3061 51.3154 96.6776 48.9979 101.699 50.2009C104.599 50.8957 107.159 52.7011 109.101 54.9656C111.749 58.0527 113.86 62.3951 115.416 66.1289C116.245 68.1146 116.962 70.2574 117.273 72.3903C117.446 73.5815 117.522 74.7851 117.726 75.9713C117.928 77.1382 118.376 78.204 118.543 79.3627C118.928 82.0363 119.178 84.7535 118.874 87.4489C118.558 90.2497 117.653 93.0524 115.842 95.2127C114.032 97.3731 111.414 98.7594 108.696 99.5197C105.977 100.28 103.132 100.461 100.31 100.559C96.3552 100.697 92.3233 100.667 88.5489 99.4804C84.7746 98.2936 81.2429 95.7871 79.6782 92.1538C78.0954 88.4805 78.4577 84.095 79.1038 80.2552C79.4867 77.9838 79.6058 75.7849 79.6364 73.4767C79.6501 72.4427 79.5117 71.3095 79.7374 70.303C79.9538 69.3419 80.1272 68.3853 80.4683 67.4529C80.5989 67.0962 80.7324 66.7395 80.8687 66.3827Z" fill="#0F0F0F"/>
<path d="M78.2494 98.4232C78.9878 101.698 80.8737 104.979 84.2614 106.017C89.0154 107.475 94.6139 107.048 98.372 103.79C98.445 103.727 102.855 105.888 103.361 106.048C104.941 106.547 106.848 107.07 108.488 106.833C111.819 106.352 115.094 103.917 117.02 101.253C120.568 96.3433 119.661 90.519 119.078 84.8794C118.454 89.5125 116.735 94.2809 113.035 97.1403C109.601 99.7946 105.048 100.388 100.725 100.782C97.6511 101.062 94.5416 101.288 91.4882 100.836C88.4348 100.385 85.4064 99.199 83.233 97.0069C81.7468 95.5101 80.729 93.6192 79.7318 91.7589C78.9996 90.3925 78.3348 89.0223 78.2737 87.4457C78.4147 91.1047 77.4312 94.6451 78.2282 98.3109L78.2494 98.4232Z" fill="#E3E2F5"/>
<path d="M82.9774 108.566C84.8178 111.559 84.9768 112.215 85.7134 114.198C87.2725 118.401 90.9557 121.751 95.2864 122.908C99.617 124.065 104.48 122.997 107.928 120.133C111.375 117.269 113.316 112.683 112.972 108.214C110.971 113.078 106.473 116.835 101.33 117.937C97.7198 118.71 93.8651 118.16 90.5697 116.515C87.1465 114.802 84.8147 111.555 82.9774 108.566Z" fill="#E3E2F5"/>
<path d="M82.2789 122.806C83.0484 123.628 83.1913 124.887 82.9256 125.981C82.6599 127.075 82.0456 128.047 81.4444 129C77.9719 134.497 74.5643 140.197 73.1424 146.542C71.7205 152.887 72.5811 160.075 76.8843 164.954C80.3524 168.883 85.5268 170.821 90.5852 172.198C95.2476 173.468 99.9983 174.387 104.798 174.949C109.277 175.474 114.111 175.612 117.96 173.266C120.624 171.644 122.533 168.952 123.594 166.019C124.656 163.087 124.922 159.917 124.807 156.801C124.551 150.086 122.585 143.547 119.096 137.804C117.743 135.583 116.165 133.486 115.11 131.109C114.054 128.732 113.567 125.961 114.503 123.535C114.107 124.563 107.706 124.703 106.659 124.741C104.164 124.834 101.649 124.706 99.156 124.58C93.5024 124.294 87.8684 123.702 82.2789 122.806Z" fill="#E3E2F5" stroke="#E3E2F5" stroke-width="5.84" stroke-miterlimit="10"/>
<path d="M107.835 114.822C107.885 114.084 106.971 112.898 106.65 112.446C106.04 111.587 105.3 110.828 104.457 110.196C102.786 108.94 100.759 108.248 98.6683 108.218C94.2436 108.175 90.2422 111.187 88.9974 115.572C91.3673 117.194 94.1319 118.254 96.9889 118.519C98.7669 118.683 100.589 118.553 102.301 118.031C104.081 117.49 105.691 116.461 107.272 115.504C107.434 115.405 107.601 115.303 107.717 115.152C107.788 115.056 107.829 114.941 107.835 114.822Z" fill="#70000B" stroke="black" stroke-width="5.84" stroke-miterlimit="10"/>
<path d="M48.484 45.0829C49.0241 43.3055 49.5691 41.4826 49.4625 39.6285C49.1993 35.0459 44.9791 31.5535 40.573 30.2663C34.3877 28.4577 27.3242 30.0349 22.4922 34.2988C19.4475 36.9855 17.3203 40.5927 15.9009 44.3969C14.4814 48.2012 13.7331 52.22 13.1082 56.2325C14.3244 55.1704 15.8446 54.5188 17.4525 54.3703L19.1619 62.0287L20.0169 65.8579C20.2882 67.0728 20.4603 68.2864 20.7029 69.5063C20.8152 70.0958 20.9597 70.6787 21.1358 71.2525C21.5031 72.4262 22.0556 73.56 22.8901 74.4636L23.6459 70.4829C23.6977 70.2097 23.7638 69.9116 23.9821 69.7383C24.6538 69.205 25.424 71.0211 25.6896 71.4096C26.2537 72.236 26.8692 73.0261 27.5325 73.7751C28.8547 75.2657 30.3751 76.594 32.0808 77.6287C34.0696 78.8348 36.3154 79.6243 38.6453 79.7622C39.1798 77.3674 39.5022 74.6483 39.9313 72.2921C40.4302 69.5543 41.3657 67.1826 42.1721 64.537C44.1721 57.9438 46.4833 51.673 48.484 45.0829Z" fill="#E3E2F5" stroke="#E3E2F5" stroke-width="5.84" stroke-miterlimit="10"/>
<path d="M145.623 40.1422C144.894 38.434 144.154 36.6809 144.059 34.8262C143.824 30.2418 147.64 26.3122 151.88 24.5547C157.833 22.0876 165.026 22.8871 170.292 26.6015C173.61 28.9421 176.117 32.2973 177.94 35.9251C179.764 39.5529 180.944 43.4669 182 47.3877C180.676 46.4638 179.094 45.9811 177.479 46.0082L175.144 66.9678L172.616 60.5081C170.495 66.4633 164.681 73.0621 158.154 74.176C157.363 71.8529 157.195 69.3739 156.726 66.9778C156.191 64.2462 154.821 61.6861 153.736 59.1429L145.623 40.1422Z" fill="#E3E2F5" stroke="#E3E2F5" stroke-width="5.84" stroke-miterlimit="10"/>
<path d="M86.3181 64.3684C86.6667 62.8648 87.1289 61.4079 87.8317 60.0228C88.1855 59.3208 88.603 58.6527 89.079 58.0271C89.5683 57.3842 90.1267 56.7969 90.7442 56.2759C91.3809 55.741 92.086 55.2932 92.8409 54.9444C93.596 54.5935 94.3977 54.353 95.2213 54.2303C96.0408 54.1062 96.8754 54.1216 97.6897 54.2759C98.4773 54.424 99.2261 54.7319 99.89 55.1808C99.1571 55.2143 98.4316 55.3423 97.7315 55.5618C97.0845 55.7653 96.4569 56.026 95.8562 56.3408C95.2749 56.6435 94.7126 56.9813 94.1724 57.3523C93.636 57.7182 93.1207 58.1088 92.6263 58.5242C91.6173 59.368 90.6363 60.3115 89.6054 61.3131C88.5745 62.3147 87.4987 63.3687 86.3181 64.3684Z" fill="#939393"/>
<path d="M164.695 24.3828C166.016 24.7665 167.288 25.3052 168.484 25.9878C169.692 26.6775 170.83 27.4868 171.878 28.4037C173.99 30.2378 175.775 32.4526 177.235 34.8635C178.696 37.2744 179.844 39.8576 180.809 42.4795C181.774 45.1014 182.565 47.7745 183.33 50.4213L180.746 51.1754C180.4 50.1624 179.8 49.2565 179.003 48.5461L178.698 48.2876L178.378 48.0498L178.294 47.9955L178.284 47.9892H178.273C178.26 47.9892 178.252 47.9936 178.251 47.9998C178.253 48.0058 178.256 48.0117 178.259 48.0173L178.262 48.0454L178.274 48.1703L178.285 48.2951L178.29 48.3575V48.365V48.38V48.4424L178.296 48.5673L178.337 49.5861C178.337 49.671 178.345 49.7559 178.346 49.8408V50.0955V50.6049C178.346 50.9445 178.351 51.2847 178.333 51.6237L178.295 52.6418C178.274 52.9808 178.246 53.3192 178.22 53.6581C178.207 53.8273 178.196 53.9965 178.18 54.1657L178.123 54.6719L178.065 55.1776L178.035 55.4273C178.027 55.5116 178.015 55.5958 178.002 55.677L177.847 56.6833L177.809 56.933C177.796 57.0166 177.778 57.0997 177.762 57.1827L177.666 57.6821L177.569 58.1815C177.552 58.2645 177.538 58.3482 177.519 58.4312L177.462 58.6809L177.23 59.671L177.201 59.7959L177.168 59.9207L177.101 60.166L176.967 60.6561L176.832 61.1461C176.784 61.3084 176.731 61.4695 176.68 61.6312C176.578 61.9545 176.477 62.2779 176.37 62.5994L176.177 63.1413L176.019 63.5901C175.966 63.7393 175.915 63.8916 175.858 64.0315L175.69 64.4585L175.607 64.6713L175.52 64.8724L175.169 65.6708L174.821 66.4642L174.649 66.8587C174.62 66.9268 174.59 66.9836 174.561 67.046L174.472 67.2283L173.05 70.1511L172.69 70.8871L172.601 71.07C172.586 71.0925 172.575 71.1068 172.563 71.1249L172.489 71.2273L172.471 71.2529L172.461 71.2654L172.447 71.2897L172.384 71.3871L172.266 71.5782L172.235 71.6275L172.187 71.7142L172.09 71.8859L171.898 72.2243L171.836 69.4888L171.804 68.2209L171.788 67.6178L171.78 67.3195L171.77 67.0548L171.751 66.5285L171.741 66.2669L171.737 66.1359V66.0734C171.737 66.0628 171.737 66.0503 171.737 66.0416V66.0154L171.642 65.1845L171.631 65.0815L171.625 65.0297L171.616 64.9847L171.582 64.8049L171.514 64.446L171.48 64.2674C171.469 64.2081 171.459 64.1463 171.444 64.0933L171.357 63.7637C171.3 63.5452 171.246 63.3267 171.179 63.1157L171.127 62.959L171.101 62.876C171.083 62.8217 171.068 62.7661 171.049 62.7124L170.936 62.3872C170.897 62.2792 170.855 62.173 170.812 62.065C170.645 61.638 170.457 61.2179 170.253 60.8078L172.149 60.6093C171.548 62.3442 170.73 63.9949 169.713 65.5216C168.708 67.0261 167.525 68.4034 166.192 69.6236C164.875 70.8298 163.419 71.8723 161.854 72.7287C160.31 73.5741 158.666 74.2187 156.961 74.647C160.208 73.3729 163.074 71.3116 165.345 68.779C167.615 66.2463 169.303 63.2162 170.178 59.9981L170.808 57.6777L172.073 59.8002C172.345 60.2576 172.594 60.7285 172.819 61.2111C172.874 61.3322 172.93 61.4533 172.984 61.5756L173.138 61.9452C173.165 62.0076 173.187 62.07 173.212 62.1325L173.247 62.2255L173.257 62.2448C173.27 62.2704 173.282 62.2954 173.293 62.3191C173.361 62.4575 173.418 62.6011 173.464 62.7486C173.473 62.7798 173.479 62.8067 173.484 62.8285V62.8441C173.484 62.8441 173.484 62.8491 173.484 62.8504L173.492 62.8242L173.524 62.7255C173.566 62.6007 173.593 62.4927 173.615 62.4046C173.632 62.3338 173.646 62.2621 173.656 62.1899C173.656 62.1762 173.656 62.1674 173.656 62.1581V62.1506C173.656 62.1506 173.656 62.1506 173.656 62.1474L173.66 62.1337L173.669 62.1056L173.705 61.9933L173.777 61.7685L174.036 60.8602C174.077 60.7085 174.123 60.5581 174.16 60.4058L174.272 59.9476L174.385 59.4894L174.441 59.2602L174.469 59.1454L174.494 59.0299L174.687 58.1066L174.735 57.8756C174.751 57.7989 174.762 57.7208 174.776 57.6434L174.857 57.179L174.938 56.7139C174.95 56.6365 174.966 56.5597 174.977 56.4817L175.008 56.2482L175.138 55.3118C175.149 55.2344 175.159 55.1564 175.166 55.0783L175.19 54.8436L175.238 54.3748L175.287 53.906C175.3 53.7493 175.308 53.5938 175.32 53.4359C175.34 53.1238 175.364 52.8116 175.382 52.4951L175.413 51.5537C175.429 51.2416 175.424 50.9257 175.423 50.6117V49.9051C175.423 49.8264 175.418 49.7484 175.415 49.6697L175.381 48.729L175.377 48.611V48.5523C175.377 48.5461 175.377 48.5223 175.373 48.5061L175.368 48.4518L175.328 48.0186L175.249 47.1527L175.17 46.2887C175.164 46.2169 175.154 46.1433 175.152 46.074L175.159 45.8742L175.17 45.4753L175.218 43.8828V43.8454C175.218 43.8454 175.218 43.8329 175.222 43.8366L175.275 43.851L175.382 43.8797L175.593 43.9371L176.018 44.0526L176.825 44.2717L177.627 44.5046C177.662 44.5147 177.696 44.527 177.729 44.5414L177.833 44.582L178.04 44.6638L178.454 44.8273C178.49 44.8416 178.524 44.8582 178.558 44.8773L178.661 44.9322L178.869 45.0415L179.284 45.2606C179.422 45.3392 179.556 45.4166 179.696 45.5153L179.894 45.6495L180.012 45.7319C180.166 45.8486 180.316 45.9691 180.467 46.0883C180.618 46.2076 180.756 46.3437 180.899 46.4716C182.031 47.5367 182.861 48.8843 183.306 50.377L180.721 51.1311C180.05 48.4587 179.4 45.8099 178.615 43.2199C177.831 40.6298 176.912 38.1009 175.716 35.7031C174.521 33.3054 173.035 31.0605 171.205 29.096C170.29 28.1087 169.284 27.21 168.201 26.4117C167.111 25.6066 165.935 24.9261 164.695 24.3828Z" fill="black"/>
<path d="M26.7538 31.5835C25.5756 32.2595 24.4766 33.0661 23.4771 33.9881C22.488 34.9001 21.5863 35.9033 20.7837 36.9846C19.1789 39.1377 17.943 41.5417 17.017 44.045C16.0855 46.5576 15.4477 49.1739 14.9477 51.832C14.4478 54.4901 14.0857 57.195 13.7056 59.9237L11.0351 59.453C11.3169 57.9189 11.9986 56.4874 13.0107 55.3048C13.1392 55.1612 13.2678 55.017 13.3988 54.8759C13.5299 54.7348 13.6733 54.605 13.8137 54.4726L14.1056 54.2229C14.2348 54.1093 14.3602 54.0175 14.4888 53.9239L14.8788 53.6611L15.0738 53.5294L15.1713 53.4638C15.2024 53.4406 15.2352 53.4197 15.2694 53.4014L15.6638 53.1935L15.8613 53.0899L15.9606 53.0381C15.992 53.02 16.0246 53.0041 16.0581 52.9906L16.832 52.6716L17.6108 52.3658L18.02 52.2053L18.225 52.1248L18.3281 52.0848L18.379 52.0649C18.3835 52.0801 18.3864 52.0958 18.3877 52.1117L18.6063 53.6929L18.6616 54.0887L18.6889 54.2872C18.6939 54.3559 18.6926 54.4308 18.6945 54.5026L18.7088 55.3716L18.723 56.2418L18.7299 56.6788V56.7331C18.7291 56.7483 18.7291 56.7635 18.7299 56.7786L18.7342 56.8373L18.7423 56.9547L18.8088 57.8942C18.815 57.9729 18.8181 58.0509 18.8261 58.1289L18.851 58.363L18.9013 58.8319C18.9342 59.144 18.9634 59.4561 19.0118 59.7682L19.1435 60.7015C19.195 61.0136 19.2528 61.3201 19.3062 61.6298C19.3342 61.784 19.3596 61.9419 19.3894 62.0936L19.4875 62.5543L19.5857 63.0156L19.6341 63.246L19.659 63.3615L19.6869 63.4757L19.9155 64.3909L19.972 64.62C19.9906 64.6962 20.0142 64.7711 20.0341 64.8472L20.1639 65.3004L20.2937 65.7543C20.3154 65.8292 20.3353 65.906 20.3589 65.9803L20.4322 66.205L20.7222 67.1027L20.7582 67.215L20.7986 67.3255L20.8793 67.5478L21.0402 67.991L21.2004 68.4355C21.2563 68.5822 21.3171 68.727 21.3749 68.8724L21.7283 69.7464L21.8239 69.9624L21.8717 70.0704L21.8835 70.0973L21.8898 70.1104V70.1147C21.8898 70.1266 21.8935 70.1366 21.8972 70.1528C21.9182 70.2339 21.9433 70.3139 21.9724 70.3925C22.0084 70.4887 22.0531 70.6048 22.1146 70.7402L22.1618 70.8457L22.1748 70.8738C22.1751 70.8711 22.1751 70.8684 22.1748 70.8657V70.847C22.1748 70.8201 22.181 70.7883 22.1872 70.7509C22.2183 70.5793 22.2633 70.4106 22.322 70.2464C22.3319 70.2184 22.3413 70.189 22.3531 70.1591L22.3611 70.1366L22.3866 70.0411C22.4046 69.9786 22.4195 69.9118 22.4394 69.8482L22.5543 69.4649C22.594 69.34 22.6381 69.2121 22.6785 69.086C22.852 68.5828 23.0497 68.0898 23.2716 67.6071L24.2603 65.4615L25.0962 67.599C25.6599 69.0583 26.3588 70.4611 27.1835 71.789C28.007 73.1156 28.9901 74.335 30.1105 75.4197C31.2489 76.5099 32.5279 77.4413 33.9132 78.1889C35.3231 78.9445 36.8147 79.5348 38.3586 79.9481C36.7491 79.738 35.1711 79.3311 33.6598 78.7364C32.1233 78.1259 30.6806 77.2997 29.3746 76.2824C28.0586 75.2477 26.8825 74.0448 25.8762 72.7042C24.8705 71.3615 24.0025 69.92 23.2852 68.4017L25.1093 68.393C24.9478 68.8254 24.8074 69.2645 24.6882 69.7102C24.6596 69.8213 24.6261 69.9324 24.6025 70.0442L24.5267 70.3813C24.513 70.4369 24.5037 70.4937 24.4919 70.5505L24.4758 70.636L24.4416 70.7945C24.3982 71.0062 24.3696 71.2315 24.3361 71.4488L24.2876 71.7809C24.2777 71.8346 24.2746 71.8964 24.2696 71.9551L24.2553 72.1342L24.2274 72.4925L24.2131 72.673L24.2094 72.7179V72.8715L24.205 73.6942V73.7205C24.205 73.7292 24.205 73.7411 24.205 73.7517L24.2094 73.8141L24.2187 73.9427L24.2367 74.1993L24.2733 74.7162L24.2913 74.9752L24.3149 75.268L24.3628 75.8586L24.4658 77.1002L24.695 79.7845L24.4745 79.4861L24.3628 79.3344L24.3069 79.2583L24.2727 79.2158L24.1386 79.0516L24.0709 78.968L24.0535 78.9468L24.0435 78.9361L24.023 78.9162L23.9423 78.8319C23.928 78.8169 23.9162 78.8051 23.9001 78.7863L23.7926 78.6172L23.3579 77.9342L21.6444 75.2156L21.5376 75.0458C21.5022 74.9883 21.4662 74.934 21.4308 74.8703L21.2178 74.5008L20.7899 73.7567L20.3583 73.0075L20.2502 72.8203L20.1452 72.6199L19.9341 72.2166C19.862 72.0849 19.7956 71.9401 19.7273 71.799L19.523 71.3732L19.2745 70.8563C19.1342 70.548 18.9994 70.2383 18.8622 69.9287C18.7945 69.7733 18.7237 69.6197 18.6585 69.4636L18.4721 68.9917L18.2858 68.5191L18.1927 68.2831L18.1461 68.1645L18.1039 68.0453L17.7654 67.0864L17.6809 66.8467C17.653 66.7668 17.63 66.685 17.6039 66.6045L17.4536 66.1188L17.3033 65.6332C17.2785 65.552 17.2512 65.4715 17.2294 65.3897L17.1636 65.1437L16.9003 64.1612L16.8674 64.0363L16.8388 63.9114L16.7823 63.6617L16.6692 63.1623L16.5568 62.6629C16.5227 62.4969 16.4947 62.3296 16.4612 62.1635C16.3991 61.8295 16.337 61.4962 16.2749 61.1647L16.1265 60.1565C16.0718 59.8213 16.0389 59.483 16.0022 59.1452L15.9476 58.6389L15.9209 58.3855C15.9128 58.3006 15.9085 58.2157 15.9016 58.1314L15.8321 57.1145L15.8234 56.9897L15.8197 56.9272V56.9116V56.9066V56.8442V56.7231V56.5982V56.5702C15.8215 56.5657 15.8232 56.5611 15.8246 56.5564C15.8246 56.5508 15.8184 56.5471 15.8072 56.5477H15.7979C15.7979 56.5477 15.7923 56.5477 15.7979 56.5445V56.5414L15.7892 56.5483L15.7116 56.6107L15.4197 56.8823L15.1446 57.1726C14.4307 57.9651 13.9331 58.9299 13.7 59.973L11.0295 59.5017C11.504 56.7868 12.0002 54.0475 12.6772 51.3307C13.3541 48.614 14.2167 45.9215 15.4098 43.3664C16.6028 40.8113 18.1424 38.4129 20.0434 36.3597C20.9882 35.3346 22.0324 34.4067 23.1604 33.5899C24.2756 32.7815 25.4817 32.108 26.7538 31.5835Z" fill="black"/>
<path d="M56.9258 26.2552C57.4452 24.3364 58.1919 22.4872 59.1497 20.7473C60.1175 18.9884 61.2703 17.339 62.5885 15.8275C65.2298 12.7892 68.4679 10.2591 72.042 8.34076C75.6279 6.43053 79.5045 5.12208 83.4612 4.30429C87.4178 3.48651 91.4546 3.15503 95.461 3.13817C95.7094 3.13817 95.9622 3.1338 96.2125 3.13817L96.9627 3.14879L97.7135 3.16065L98.4631 3.18624L99.2127 3.21246C99.4612 3.22058 99.7096 3.23681 99.9611 3.24867L100.71 3.28862L101.455 3.33919C103.452 3.4784 105.448 3.6919 107.434 4.00278C109.424 4.30946 111.396 4.72753 113.34 5.25504C115.289 5.78235 117.201 6.44056 119.062 7.22521C122.788 8.78586 126.27 10.9589 129.227 13.6794C130.705 15.031 132.041 16.5319 133.214 18.1585C134.375 19.7682 135.345 21.5083 136.105 23.3436C135.138 21.6397 133.989 20.0464 132.679 18.5917C131.381 17.151 129.951 15.8374 128.406 14.6689C126.871 13.5042 125.244 12.4682 123.541 11.5713C122.692 11.1231 121.827 10.7084 120.947 10.3272L120.618 10.1848L120.286 10.0475C120.175 10.0025 120.066 9.95572 119.954 9.91202L119.618 9.78343L118.947 9.52499L118.779 9.46256L118.61 9.40013L118.27 9.28215C116.459 8.6478 114.611 8.12187 112.738 7.70714C110.864 7.28826 108.965 6.96739 107.052 6.73017C105.138 6.49295 103.212 6.3294 101.276 6.22452C99.3394 6.11964 97.3999 6.0697 95.4666 6.07532C91.6 6.09093 87.7433 6.34376 83.9655 7.00735C82.0787 7.33285 80.2124 7.76848 78.3761 8.31204L77.6879 8.51555C77.4606 8.58922 77.2352 8.66725 77.0085 8.74279L76.3285 8.97127C76.2142 9.00747 76.103 9.04992 75.9912 9.09237L75.6565 9.21722C75.2106 9.38827 74.7578 9.54808 74.3206 9.73536L73.9896 9.87208L73.6623 10.015L73.3338 10.158L73.009 10.3078C69.5392 11.9015 66.2961 14.0465 63.507 16.7108C62.1044 18.0471 60.8379 19.5206 59.7261 21.1094C58.604 22.7139 57.6647 24.44 56.9258 26.2552Z" fill="black"/>
<path d="M45.5204 54.6808C43.9616 59.1175 42.3984 63.5616 41.1656 68.0918C40.5489 70.356 40.0167 72.6402 39.613 74.9437C39.2004 77.2395 38.9435 79.5609 38.8441 81.8917C38.7507 84.21 38.8514 86.5322 39.1454 88.8335C39.4349 91.1207 39.9539 93.3727 40.6942 95.5549C41.4395 97.7224 42.4176 99.7999 43.6566 101.701C44.274 102.65 44.9563 103.554 45.6986 104.408C46.4451 105.261 47.2436 106.067 48.0896 106.821C49.7845 108.337 51.6557 109.673 53.6076 110.905C54.5845 111.52 55.5826 112.114 56.5936 112.686C57.6047 113.258 58.6238 113.813 59.6523 114.351C63.7721 116.489 68.0514 118.301 72.4514 119.77C76.8454 121.236 81.3517 122.337 85.925 123.061C90.4909 123.78 95.1114 124.092 99.732 123.991C108.984 123.781 118.107 121.766 126.595 118.06C130.828 116.209 134.862 113.926 138.633 111.249C140.515 109.909 142.321 108.464 144.045 106.923L144.691 106.345L145.322 105.75L145.637 105.453C145.743 105.355 145.848 105.255 145.948 105.152L146.563 104.542C147.384 103.727 148.176 102.887 148.939 102.022C150.465 100.294 151.863 98.4633 153.057 96.5088C153.654 95.5355 154.196 94.529 154.681 93.4942C154.799 93.2352 154.924 92.978 155.031 92.7139L155.196 92.32C155.224 92.2576 155.253 92.1889 155.279 92.1227L155.353 91.9223L155.653 91.1214L155.727 90.921C155.752 90.8542 155.771 90.7856 155.794 90.7175L155.924 90.3093L156.053 89.901C156.096 89.7643 156.144 89.6301 156.178 89.4908L156.399 88.6612C156.434 88.5226 156.476 88.3859 156.506 88.2455L156.597 87.8253L156.779 86.9844L156.925 86.1354L156.999 85.7103C157.019 85.5686 157.035 85.4257 157.054 85.2827L157.164 84.4262C157.196 84.1403 157.217 83.8525 157.243 83.5654C157.305 82.9917 157.318 82.4142 157.349 81.8374C157.349 81.765 157.356 81.6932 157.359 81.6208V81.4042L157.364 80.9703L157.368 80.5365C157.368 80.3916 157.372 80.2474 157.368 80.0995C157.35 79.5208 157.35 78.9408 157.306 78.3622C157.289 78.0731 157.274 77.7835 157.253 77.4938L157.173 76.6267C156.957 74.3126 156.529 72.0172 155.97 69.7505C155.935 69.6088 155.903 69.4658 155.865 69.3254L155.751 68.9021L155.524 68.0556L155.275 67.2135L155.151 66.7927L155.02 66.3739L154.755 65.5367C154.666 65.2583 154.569 64.9818 154.477 64.704C154.295 64.1471 154.092 63.5972 153.896 63.0447C153.097 60.8398 152.198 58.6692 151.259 56.5149C150.32 54.3606 149.326 52.2287 148.332 50.0981C149.435 52.1738 150.531 54.2545 151.58 56.3632C152.629 58.472 153.629 60.6082 154.536 62.7931C154.758 63.3406 154.988 63.8862 155.197 64.4393C155.303 64.7158 155.412 64.9905 155.516 65.2683L155.82 66.1029L155.971 66.5212L156.114 66.9419L156.401 67.7847L156.669 68.6343L156.802 69.0594C156.847 69.2005 156.886 69.3447 156.927 69.487C157.593 71.7687 158.127 74.1022 158.443 76.4788L158.559 77.369C158.592 77.6667 158.618 77.9651 158.648 78.2635C158.716 78.8597 158.739 79.4596 158.78 80.0589C158.791 80.2087 158.794 80.3585 158.798 80.509L158.81 80.9597L158.821 81.4104L158.827 81.6364C158.827 81.7113 158.827 81.7869 158.827 81.8618C158.817 82.4636 158.823 83.0666 158.782 83.6684C158.764 83.9699 158.754 84.2714 158.731 84.5723L158.647 85.475C158.632 85.6254 158.62 85.7759 158.603 85.9263L158.541 86.3758L158.417 87.276L158.255 88.1712L158.173 88.6188C158.146 88.768 158.107 88.9147 158.074 89.0632L157.869 89.9509C157.838 90.1001 157.791 90.2449 157.751 90.3917L157.626 90.8286L157.502 91.2656C157.481 91.3387 157.463 91.4123 157.44 91.4847L157.367 91.7014L157.075 92.5678L157.002 92.7844C156.976 92.8562 156.947 92.9268 156.92 92.9979L156.756 93.4249C156.65 93.7108 156.527 93.9868 156.408 94.2702C155.926 95.3878 155.38 96.4768 154.775 97.532C153.567 99.6407 152.146 101.611 150.599 103.457C149.825 104.381 149.023 105.275 148.192 106.142L147.567 106.791C147.464 106.9 147.358 107.006 147.251 107.111L146.931 107.428L146.289 108.06L145.633 108.676C143.878 110.318 142.033 111.858 140.106 113.29C136.239 116.152 132.083 118.596 127.706 120.582C118.921 124.552 109.431 126.71 99.801 126.928C95.0039 127.033 90.2075 126.694 85.4722 125.916C80.7477 125.136 76.098 123.952 71.5738 122.377C67.0603 120.803 62.6812 118.864 58.4797 116.578C57.4333 116.004 56.3936 115.417 55.3745 114.802C54.3554 114.187 53.3356 113.56 52.3314 112.898C50.3329 111.572 48.3896 110.115 46.614 108.442C45.7222 107.605 44.8839 106.712 44.1044 105.768C43.325 104.821 42.6127 103.82 41.973 102.772C40.6949 100.681 39.7192 98.4259 39.0062 96.108C38.3022 93.7947 37.8366 91.4148 37.617 89.0058C37.3972 86.615 37.3816 84.2097 37.5704 81.8162C37.7639 79.439 38.1215 77.0782 38.6404 74.7508C39.1485 72.4298 39.7869 70.1463 40.5098 67.8958C41.9587 63.3936 43.7355 59.0294 45.5204 54.6808Z" fill="black"/>
<path d="M117.023 8.24898C117.999 8.73903 118.971 9.24156 119.966 9.68478C120.961 10.128 121.98 10.5088 123.031 10.7379C123.554 10.8535 124.085 10.9303 124.62 10.9676C125.153 11.0029 125.687 11.0017 126.22 10.9639C126.353 10.952 126.487 10.947 126.619 10.9302L127.017 10.8846C127.282 10.844 127.546 10.8084 127.808 10.7548C128.07 10.7011 128.332 10.6455 128.594 10.5881C128.724 10.5569 128.854 10.5213 128.984 10.4888L129.178 10.4383L129.372 10.3827C130.407 10.0824 131.423 9.72115 132.415 9.30086C133.415 8.87511 134.409 8.43813 135.396 7.97368C137.37 7.05352 139.322 6.07031 141.296 5.1102L142.038 4.75062L142.783 4.39667C143.28 4.1582 143.782 3.93035 144.283 3.69937C144.532 3.58201 144.788 3.47276 145.04 3.36102L145.8 3.02704L146.568 2.70617L146.952 2.54636C147.081 2.49267 147.211 2.44461 147.34 2.39342L148.118 2.09003C148.246 2.03821 148.378 1.99077 148.509 1.94458L148.903 1.80287L149.297 1.66178C149.428 1.61496 149.559 1.56564 149.693 1.52382L150.491 1.26538C150.624 1.22231 150.757 1.17798 150.891 1.13678L151.295 1.02067L152.102 0.78907C152.376 0.715407 152.656 0.652354 152.933 0.583685L153.141 0.533741C153.211 0.518135 153.282 0.505654 153.352 0.491296L153.772 0.408889C154.897 0.196671 156.035 0.0660704 157.177 0.0181017C158.32 -0.0257637 159.465 0.0101191 160.603 0.12548C161.74 0.239435 162.868 0.424576 163.982 0.679824C165.093 0.940578 166.188 1.2651 167.262 1.65179C169.407 2.4266 171.464 3.42922 173.397 4.64263C174.365 5.24583 175.301 5.89884 176.201 6.59906C177.102 7.29823 177.973 8.0386 178.803 8.82392C179.633 9.60924 180.423 10.442 181.17 11.3041C181.917 12.1662 182.626 13.052 183.293 13.9759C184.627 15.8133 185.822 17.7483 186.868 19.7647C187.393 20.7685 187.884 21.7869 188.343 22.8198C188.802 23.8524 189.228 24.898 189.627 25.9518C190.427 28.0593 191.108 30.2036 191.704 32.3654C192.003 33.4475 192.279 34.5331 192.533 35.6222C192.598 35.8937 192.657 36.1665 192.719 36.4393L192.847 37.0043L193.016 37.809L193.184 38.6124L193.268 39.0144L193.347 39.4127L193.661 41.0046L193.978 42.6052L193.997 42.705L194.007 42.7556C194.007 42.7668 194.025 42.8012 194.007 42.7931L193.733 42.6495L193.189 42.3617L192.098 41.7874L191.006 41.2137L190.462 40.9271L190.189 40.7836L190.053 40.7124L189.985 40.6762L190.768 41.0944C191.221 41.336 191.429 41.4478 191.288 41.3716L191.242 41.3479L191.152 41.2992L190.971 41.2024L190.608 41.0083L189.884 40.6206L189.161 40.233L188.799 40.0394L188.618 39.9427L188.573 39.9183C188.554 39.9083 188.619 39.9427 188.635 39.9533L188.814 40.0482L189.953 40.655L189.948 40.6512C189.941 40.6453 189.934 40.6398 189.926 40.635C189.926 40.6416 189.926 40.6483 189.926 40.655V40.6743C189.926 40.6743 189.926 40.6781 189.926 40.6812V40.6874L189.946 40.7449C190.003 40.9259 190.07 41.1044 190.121 41.2873C190.573 42.7379 190.935 44.215 191.205 45.7102C192.284 51.6927 191.938 57.8471 190.193 63.669C189.759 65.1148 189.236 66.5324 188.629 67.9139C188.476 68.2585 188.314 68.6006 188.157 68.9408C188.078 69.1119 187.99 69.2785 187.909 69.4477L187.784 69.6974L187.691 69.8847C187.656 69.9559 187.62 70.027 187.582 70.0988C187.507 70.243 187.429 70.381 187.352 70.5202L187.119 70.9366L186.657 71.7662C186.347 72.3162 186.028 72.8599 185.717 73.4018C185.676 73.3643 185.636 73.3337 185.593 73.2907L185.457 73.124L185.187 72.7913L185.054 72.6252L184.926 72.4648L184.67 72.1433C184.584 72.0378 184.502 71.9279 184.422 71.8181L184.173 71.4903L184.111 71.4079L184.08 71.3673L184.051 71.3218L183.935 71.1401L183.702 70.7768C183.623 70.6527 183.551 70.5239 183.487 70.391L183.283 69.9946C183.248 69.9322 183.214 69.8635 183.183 69.7954C183.151 69.7274 183.126 69.6625 183.097 69.5963L182.987 69.3272C182.948 69.2386 182.92 69.1462 182.888 69.0551L182.793 68.7823C182.73 68.5994 182.683 68.4127 182.629 68.2279C182.228 66.7343 182.176 65.1679 182.477 63.6509L184.426 63.8381C184.388 65.2279 184.199 66.6094 183.864 67.9582C183.533 69.2976 183.066 70.5989 182.468 71.8411C181.875 73.075 181.168 74.2503 180.356 75.3514C178.739 77.541 176.728 79.4069 174.428 80.8523C173.283 81.5656 172.07 82.16 170.806 82.6265L170.57 82.7139C170.491 82.7426 170.413 82.7763 170.332 82.7975L169.852 82.9499L169.612 83.0254C169.532 83.0504 169.451 83.0697 169.369 83.0922L168.882 83.222C168.787 83.2483 168.683 83.2751 168.581 83.2944L168.277 83.3569L167.674 83.4817C167.474 83.5186 167.274 83.5498 167.076 83.5841L166.779 83.6334L166.632 83.6584L166.595 83.6646C166.586 83.669 166.59 83.6571 166.589 83.6521V83.5629C166.589 83.1459 166.583 82.7389 166.585 82.3281L166.594 81.1726L166.608 80.3105L166.623 79.4871L165.739 79.5551L164.731 79.6382L162.557 79.8217L158.21 80.1831L162.527 79.5558L164.688 79.2436L165.85 79.0788L167.136 78.9009C167.166 79.6538 167.196 80.4066 167.226 81.1595L167.246 81.6015L167.266 81.976L167.304 82.7001V82.7445V82.7557C167.304 82.7557 167.304 82.7651 167.308 82.762L167.331 82.757L167.424 82.7357L167.61 82.6939C167.735 82.6652 167.853 82.6396 167.971 82.6096L168.321 82.5116L168.492 82.4636C168.549 82.4486 168.603 82.4292 168.665 82.4092L169.12 82.2619C169.195 82.2369 169.272 82.2151 169.347 82.187L169.572 82.1027L170.021 81.9342C170.096 81.9073 170.169 81.8718 170.242 81.843L170.463 81.7482C171.637 81.2449 172.758 80.6246 173.808 79.8966C176.951 77.7043 179.426 74.6763 180.954 71.1513C181.455 69.9942 181.836 68.7885 182.091 67.5531C182.347 66.3281 182.472 65.0792 182.464 63.8275L184.413 64.0148C184.219 65.2301 184.304 66.474 184.662 67.6511C184.711 67.7966 184.753 67.9439 184.807 68.0881L184.889 68.3022C184.918 68.3734 184.941 68.4464 184.975 68.5151L185.069 68.723L185.087 68.7617C185.092 68.7717 185.098 68.781 185.103 68.791C185.126 68.8297 185.146 68.869 185.17 68.9046C185.214 68.9747 185.263 69.042 185.315 69.1063C185.341 69.1362 185.365 69.1687 185.392 69.1937L185.431 69.2342L185.451 69.2542C185.457 69.2458 185.462 69.2365 185.466 69.2267C185.507 69.1418 185.547 69.0613 185.583 68.9833C185.619 68.9052 185.652 68.8303 185.683 68.7579L185.695 68.728L185.701 68.7117L185.707 68.6999L185.721 68.6699L185.833 68.4302C185.906 68.2704 185.984 68.1124 186.054 67.9507C186.191 67.6261 186.334 67.304 186.468 66.9782C187.001 65.6727 187.455 64.3363 187.829 62.976C189.322 57.5187 189.541 51.7885 188.469 46.2321C188.201 44.8534 187.851 43.4921 187.421 42.1557C187.371 41.9871 187.309 41.8236 187.254 41.6563L187.099 41.2012C187.044 41.0314 186.975 40.8591 186.913 40.6874C186.88 40.6013 186.85 40.5164 186.814 40.4296L186.704 40.1649L186.482 39.6362L186.039 38.5749L185.928 38.309L185.803 38.0331L185.555 37.4806L185.058 36.3738L184.099 34.2376L189.936 37.3401H189.94L190.506 37.6423L191.334 38.0843L191.31 38.0718L191.264 38.0462L191.17 37.9962L190.983 37.8957L190.607 37.6935L189.944 37.3376V37.3339V37.3302L189.889 37.0892C189.826 36.8245 189.769 36.5598 189.705 36.2958C189.457 35.2395 189.19 34.1891 188.905 33.1445C188.333 31.0563 187.686 28.9938 186.934 26.9768C186.559 25.968 186.16 24.9692 185.733 23.9853C185.305 23.0015 184.847 22.032 184.362 21.0788C183.398 19.1745 182.298 17.3429 181.07 15.5984C180.459 14.7282 179.812 13.8865 179.128 13.0733C178.444 12.2601 177.729 11.4839 176.984 10.7448C173.968 7.79452 170.383 5.39236 166.458 3.8598C165.478 3.47595 164.478 3.1479 163.462 2.87722C162.446 2.61262 161.415 2.41061 160.374 2.27231C159.335 2.13322 158.288 2.06563 157.24 2.07005C156.193 2.0789 155.148 2.16235 154.113 2.31975L153.724 2.38218C153.662 2.39279 153.595 2.40215 153.531 2.41401L153.338 2.45334C153.082 2.50703 152.826 2.55385 152.567 2.61316L151.789 2.8048L151.401 2.90032C151.271 2.93465 151.143 2.97273 151.014 3.00894L150.24 3.2268C150.111 3.26176 149.983 3.30421 149.855 3.34416L149.47 3.46527L149.086 3.58638C148.957 3.62633 148.829 3.66691 148.702 3.71123L147.938 3.97466C147.81 4.01899 147.682 4.06081 147.556 4.10763L147.176 4.24809L146.415 4.52963L145.658 4.82491C145.405 4.92416 145.152 5.0203 144.901 5.12518C144.398 5.33119 143.895 5.53407 143.393 5.74944L142.641 6.06781L141.889 6.39118C139.884 7.25641 137.879 8.15097 135.841 8.98186C134.825 9.40137 133.792 9.7934 132.76 10.1717C131.717 10.552 130.651 10.8691 129.57 11.1212L129.366 11.168L129.162 11.2092C129.025 11.2361 128.889 11.2654 128.752 11.2904C128.477 11.3359 128.203 11.3865 127.926 11.4196C127.648 11.4527 127.371 11.482 127.093 11.5089L126.675 11.5338C126.536 11.5438 126.396 11.5413 126.256 11.5457C125.698 11.5542 125.139 11.5242 124.584 11.4558C124.032 11.3851 123.485 11.2737 122.949 11.1224C121.878 10.8228 120.864 10.3733 119.892 9.86831C118.919 9.36328 117.967 8.79896 117.023 8.24898Z" fill="black"/>
<path d="M88.9644 89.7718C87.8959 89.6072 86.8596 89.2753 85.8933 88.788C84.9179 88.2877 84.0138 87.6578 83.2055 86.9152C82.3928 86.1641 81.6695 85.3209 81.0498 84.4026C80.4252 83.4772 79.9026 82.4863 79.491 81.4473C79.2836 80.9245 79.1043 80.3908 78.9538 79.8486L78.847 79.4391L78.7575 79.0283C78.6998 78.7536 78.6333 78.4802 78.5936 78.2024L78.5265 77.7867C78.5048 77.6481 78.4799 77.5095 78.4675 77.3697C78.4365 77.0912 78.4054 76.8116 78.3762 76.5319L78.3247 75.6916L78.3185 75.5868V75.4813L78.3147 75.2715L78.3079 74.8501C78.3042 72.6059 78.6184 70.3742 79.1538 68.2186C79.4177 67.1393 79.7301 66.0749 80.0785 65.0262C80.4269 63.9774 80.8095 62.9442 81.238 61.9167C82.0944 59.8666 83.1347 57.8534 84.4736 55.9975C85.1458 55.0612 85.8936 54.1821 86.7094 53.3693L87.0199 53.0635L87.3422 52.7651L87.6726 52.4754C87.785 52.3818 87.8962 52.2881 88.0099 52.1945C88.4646 51.8245 88.9381 51.4785 89.4283 51.1576C90.4148 50.5095 91.4685 49.9714 92.5708 49.5526C93.6903 49.1263 94.8588 48.8436 96.0487 48.7111C97.2593 48.5759 98.4831 48.6228 99.6799 48.8503C100.868 49.0837 102.018 49.4829 103.096 50.0364C104.143 50.579 105.127 51.2355 106.032 51.9941C106.911 52.7311 107.731 53.5359 108.486 54.4012C109.983 56.1042 111.236 57.9508 112.381 59.8179C112.953 60.7543 113.509 61.7057 114.026 62.6839C114.543 63.6621 115.025 64.6628 115.46 65.6879C115.892 66.7195 116.266 67.7745 116.581 68.8479L116.798 69.6594C116.837 69.7936 116.861 69.9328 116.895 70.0696L116.985 70.4822C117.013 70.6195 117.047 70.7556 117.071 70.8942L117.141 71.3112L117.21 71.7276C117.236 71.8662 117.251 72.0066 117.267 72.1465C117.298 72.4268 117.329 72.7083 117.36 72.9867L117.408 73.8314L117.419 74.0417V74.6766V75.0986L117.398 75.5256C117.364 76.0909 117.296 76.6537 117.196 77.2111C117.096 77.7656 116.966 78.3143 116.807 78.8548C116.645 79.3912 116.456 79.919 116.24 80.436C116.02 80.948 115.774 81.4481 115.502 81.9342C115.227 82.4175 114.925 82.8846 114.597 83.3332C114.27 83.7795 113.913 84.2038 113.53 84.6036C113.151 85.0026 112.742 85.3726 112.307 85.7104C112.093 85.8833 111.866 86.0375 111.641 86.1936L111.295 86.4121C111.18 86.4857 111.057 86.5482 110.94 86.6162C110.878 86.6493 110.822 86.6842 110.761 86.7155L110.578 86.806C110.454 86.8684 110.336 86.9308 110.21 86.9808C110.083 87.0307 109.961 87.0894 109.837 87.1406L109.456 87.2804C108.947 87.4536 108.424 87.5841 107.893 87.6706C108.406 87.5256 108.906 87.339 109.388 87.1125L109.744 86.9352C109.86 86.8728 109.974 86.8054 110.089 86.7404C110.204 86.6755 110.315 86.6031 110.426 86.5332L110.592 86.427C110.648 86.3908 110.7 86.3509 110.754 86.3134C110.861 86.2354 110.971 86.1636 111.073 86.0812L111.384 85.8371C111.582 85.6655 111.782 85.4969 111.969 85.3115C112.346 84.9501 112.696 84.5613 113.017 84.1485C114.303 82.5042 115.151 80.5484 115.568 78.5339C115.671 78.0307 115.748 77.5225 115.798 77.0113C115.847 76.5037 115.868 75.9937 115.86 75.4838L115.849 75.103L115.82 74.7184L115.792 74.3339L115.778 74.1422L115.753 73.9512L115.653 73.1877L115.513 72.4293C115.472 72.1795 115.402 71.9299 115.345 71.6764L115.256 71.3018C115.225 71.177 115.186 71.0521 115.151 70.9273L115.043 70.5565C115.007 70.4316 114.976 70.3068 114.931 70.1869L114.683 69.4534C114.327 68.4794 113.922 67.5245 113.469 66.5924C113.009 65.656 112.505 64.744 111.972 63.8419C111.439 62.9399 110.864 62.0565 110.276 61.1795C109.096 59.4234 107.854 57.7385 106.464 56.2447C105.782 55.504 105.047 54.8155 104.263 54.1846C103.505 53.5746 102.685 53.0471 101.816 52.6109C100.972 52.193 100.075 51.8921 99.1508 51.7163C98.2324 51.5491 97.2948 51.5171 96.3673 51.6214C94.493 51.8237 92.641 52.5341 90.9909 53.5791C90.5768 53.8409 90.1771 54.1232 89.7916 54.4262L89.5047 54.6559L89.224 54.8932L88.9489 55.1372L88.6793 55.3938C87.9551 56.0863 87.2861 56.8348 86.6783 57.6324C85.4481 59.238 84.4258 61.0402 83.5414 62.9299C83.0993 63.8738 82.6881 64.8451 82.3068 65.8246C81.9255 66.8041 81.5796 67.7923 81.2746 68.7911C80.6598 70.7887 80.2381 72.8319 80.0946 74.8945L80.0729 75.2815L80.0623 75.475L80.0568 75.5718V75.6679L80.0481 76.442L80.0735 77.2155C80.0735 77.3447 80.0884 77.4727 80.099 77.6013L80.1307 77.9864C80.1456 78.2449 80.1884 78.4983 80.2207 78.7543L80.2729 79.1382L80.3393 79.5165C80.4363 80.0219 80.5592 80.522 80.7076 81.0147C81.3041 83.0147 82.3264 84.8603 83.7035 86.4233C84.404 87.2076 85.2037 87.8961 86.0821 88.4715C86.9717 89.0495 87.9436 89.488 88.9644 89.7718Z" fill="black"/>
<path d="M79.2835 76.1726C79.0562 77.8294 78.8488 79.4893 78.7246 81.1461C78.6004 82.8029 78.5557 84.459 78.6712 86.0858C78.7867 87.7127 79.0668 89.3083 79.6028 90.7822C79.8659 91.5117 80.1987 92.214 80.5964 92.8791C80.9886 93.5318 81.4487 94.1407 81.9689 94.6957C83.0017 95.795 84.278 96.6589 85.6679 97.3063C86.3681 97.6308 87.0906 97.9043 87.8297 98.1247C88.5756 98.3478 89.3343 98.525 90.1015 98.6553C93.2005 99.191 96.4666 99.0817 99.8016 99.0299C101.455 98.9993 103.078 98.9519 104.656 98.7802C106.233 98.6085 107.761 98.3089 109.174 97.7758C109.875 97.5137 110.548 97.1851 111.186 96.7944C111.501 96.6002 111.806 96.3893 112.1 96.1627C112.394 95.9338 112.677 95.69 112.947 95.4323C114.032 94.3966 114.923 93.1225 115.612 91.7192C116.304 90.2938 116.804 88.7823 117.099 87.2245C117.174 86.8318 117.242 86.4361 117.292 86.0384C117.307 85.9391 117.318 85.8387 117.328 85.7381L117.361 85.4366L117.393 85.1345C117.405 85.034 117.409 84.9322 117.418 84.8311L117.462 84.2231L117.488 83.6125C117.5 83.409 117.497 83.2043 117.501 83.0001C117.506 82.796 117.51 82.5906 117.505 82.3852C117.496 80.7447 117.36 79.091 117.167 77.4373C117.071 76.6108 116.958 75.7837 116.841 74.9565C116.724 74.1294 116.597 73.3016 116.475 72.4751C116.718 73.2754 116.957 74.0763 117.188 74.8816C117.419 75.6869 117.64 76.4966 117.843 77.3125C118.249 78.9456 118.588 80.6067 118.784 82.3066C118.812 82.5182 118.83 82.7317 118.85 82.9452C118.87 83.1587 118.893 83.3716 118.903 83.5863L118.942 84.2299C118.951 84.4453 118.955 84.6613 118.961 84.8767C118.961 84.9847 118.969 85.0927 118.968 85.2007L118.965 85.5253V85.8505C118.965 85.9591 118.965 86.0671 118.957 86.1764C118.943 86.6134 118.91 87.0503 118.867 87.4873C118.696 89.2505 118.276 90.9801 117.619 92.6244C116.949 94.2799 116.001 95.8649 114.737 97.2139C114.419 97.552 114.085 97.8729 113.734 98.1753C113.38 98.4782 113.01 98.7614 112.626 99.0236C111.86 99.5424 111.045 99.983 110.193 100.339C109.77 100.514 109.343 100.674 108.911 100.813C108.479 100.953 108.046 101.074 107.611 101.18C106.749 101.387 105.877 101.546 104.998 101.656C103.259 101.877 101.541 101.94 99.8569 101.971L98.5993 101.989C98.1803 101.994 97.7594 101.997 97.3367 101.998C96.4915 101.998 95.6394 101.99 94.7811 101.957C93.0658 101.89 91.3213 101.727 89.5898 101.362C87.8583 100.997 86.1417 100.418 84.5494 99.5661C83.7478 99.1396 82.9865 98.6404 82.2751 98.0748C81.5574 97.5043 80.9032 96.8576 80.3238 96.1458C79.7492 95.4358 79.2551 94.6636 78.8507 93.8435C78.453 93.0357 78.1381 92.1892 77.911 91.3172C77.689 90.4625 77.5386 89.5907 77.4614 88.7109C77.3856 87.847 77.3649 86.9792 77.3993 86.1127C77.4651 84.3935 77.7129 82.7086 78.0508 81.0562C78.3886 79.4038 78.819 77.7788 79.2835 76.1726Z" fill="black"/>
<path d="M72.5347 8.45337C69.3506 11.4586 65.1306 13.385 60.705 13.862C59.5943 13.9749 58.4765 14.0001 57.3619 13.9375C56.2481 13.8633 55.1407 13.7125 54.0474 13.4862C52.9562 13.2614 51.8812 12.9768 50.818 12.659C49.7547 12.3413 48.712 11.9854 47.6749 11.6246C45.6006 10.9023 43.5573 10.1457 41.4936 9.55145C40.9781 9.401 40.4608 9.26553 39.941 9.13694C39.4212 9.00834 38.9045 8.89784 38.384 8.80482C37.8636 8.71181 37.3431 8.63253 36.8227 8.56761L36.0408 8.49457C35.9787 8.48895 35.9104 8.48146 35.8452 8.47771L35.6496 8.46835L35.2571 8.44962C34.2116 8.40952 33.1646 8.44352 32.1239 8.55138L31.3445 8.64564L30.5694 8.77049C30.4402 8.78922 30.3123 8.81793 30.1837 8.84353L29.7987 8.92156C29.5416 8.96838 29.2882 9.03705 29.0336 9.09761C28.0153 9.34977 27.0133 9.66436 26.0333 10.0396C25.0532 10.42 24.0952 10.8558 23.1641 11.3449C22.9312 11.4698 22.697 11.5872 22.4697 11.7195L22.1263 11.9149C22.012 11.9773 21.8965 12.0435 21.7853 12.1134L21.1109 12.5254L20.4489 12.9587C19.5744 13.5471 18.7296 14.1783 17.9144 14.852C17.0999 15.5238 16.32 16.237 15.578 16.9889C14.8327 17.738 14.1258 18.5214 13.4571 19.3392C12.7907 20.1595 12.1678 21.0072 11.5803 21.8875C10.9928 22.7677 10.437 23.6766 9.924 24.608C8.89387 26.4759 7.99931 28.4161 7.2473 30.4136C6.86846 31.4124 6.51944 32.4248 6.20022 33.4506C5.881 34.475 5.59346 35.5107 5.33076 36.5538C4.80101 38.6395 4.38056 40.7595 4.03712 42.8957C3.8653 43.964 3.71376 45.0367 3.58251 46.1138C3.54774 46.3828 3.51669 46.6525 3.48564 46.9216L3.45768 47.1613V47.1656V47.1706L2.83664 47.5982L2.48513 47.8398L2.30999 47.9597L2.22242 48.0221L2.17833 48.0521L2.1566 48.0671L3.04283 47.4622L3.46328 47.1744H3.46762L8.93282 43.4569L8.2093 45.6843L7.83667 46.8379L7.65036 47.4141L7.55658 47.7019L7.47461 47.9778L7.14856 49.0784L6.98522 49.6283L6.90386 49.903C6.87902 49.9929 6.85791 50.0809 6.83493 50.1696C6.79083 50.3469 6.73991 50.526 6.70389 50.7002L6.59893 51.1696C6.56229 51.3407 6.5182 51.5105 6.48652 51.6834C6.20275 53.059 6.00159 54.4505 5.88411 55.8504C5.41583 61.4925 6.25091 67.1671 8.32419 72.4313C8.84195 73.7433 9.43757 75.0228 10.1078 76.263C10.2761 76.5721 10.4525 76.8767 10.6245 77.1844C10.7109 77.338 10.8059 77.4866 10.8959 77.6377L11.0326 77.8636L11.05 77.8923L11.0562 77.9036L11.0649 77.9192L11.081 77.9485C11.1201 78.0191 11.1636 78.0915 11.2052 78.1677C11.2468 78.2438 11.3015 78.3212 11.3524 78.4036C11.3586 78.4118 11.3648 78.4261 11.371 78.4298L11.3884 78.4074L11.4245 78.3612C11.4493 78.3306 11.4698 78.2988 11.4934 78.2632C11.5391 78.1916 11.5806 78.1174 11.6176 78.0409C11.6375 78.001 11.6542 77.9592 11.6735 77.9161C11.6778 77.9055 11.6828 77.8949 11.6865 77.8842L11.7008 77.843L11.7716 77.6258C11.7977 77.5534 11.8132 77.4785 11.8337 77.4048L11.8958 77.1826C11.9331 77.034 11.9579 76.8823 11.9927 76.7325C12.2223 75.5215 12.1726 74.2736 11.8474 73.0849L13.7397 72.6891C13.8658 73.9356 14.1244 75.165 14.511 76.3561C14.8979 77.5572 15.4066 78.7153 16.0289 79.812C17.9293 83.1547 20.7177 85.8998 24.082 87.7401C25.2063 88.3505 26.3886 88.8459 27.6114 89.2189L27.8405 89.2889C27.9169 89.312 27.9933 89.3376 28.0709 89.3557L28.5361 89.4743L28.7684 89.5367C28.846 89.556 28.9249 89.5698 29.0031 89.5866L29.4714 89.6834C29.5335 89.6971 29.5956 89.7109 29.6527 89.7196L29.8322 89.7489L30.1974 89.8114C30.3216 89.8282 30.4458 89.8413 30.57 89.8563L30.7619 89.8788L30.8582 89.89H30.8824C30.8886 89.89 30.8824 89.8857 30.8861 89.8825V89.8682V89.8232L30.8445 89.0835L30.8222 88.7002L30.7949 88.2551L30.6439 86.0271L32.8524 86.0939L34.8 86.1601L38.6914 86.2974L34.7993 86.4004L32.8505 86.4503L31.1582 86.5003L31.3718 88.2008L31.5053 89.3363C31.5519 89.7389 31.591 90.1391 31.6345 90.5492L31.642 90.626V90.6454C31.642 90.6504 31.6463 90.6616 31.6376 90.6579H31.6003L31.4532 90.6497L31.1575 90.6329C30.9594 90.621 30.7594 90.6123 30.5589 90.5973L29.9546 90.5393L29.649 90.5099C29.5465 90.5018 29.4422 90.4868 29.3459 90.4712L28.8491 90.3957C28.7665 90.3826 28.6827 90.3726 28.6007 90.3563L28.3523 90.307L27.8592 90.2084C27.7766 90.1934 27.6958 90.1716 27.6145 90.1516L27.3704 90.0892C26.0648 89.7646 24.7954 89.3071 23.582 88.7239C22.3661 88.1352 21.208 87.433 20.1228 86.6264C19.031 85.8193 18.0184 84.9092 17.0989 83.9084C16.1734 82.9039 15.3439 81.8141 14.6216 80.6535C13.8932 79.4847 13.2875 78.243 12.8144 76.9485C12.3353 75.6445 11.9984 74.2921 11.8095 72.9151L13.7012 72.5194C14.164 73.9927 14.2817 75.5536 14.0453 77.0802C14.0111 77.2675 13.9832 77.4597 13.9422 77.6483L13.8801 77.9298C13.8571 78.0235 13.8397 78.1171 13.8105 78.2107L13.7298 78.4898C13.7093 78.5584 13.6913 78.6252 13.6677 78.6958C13.6441 78.7663 13.6167 78.8356 13.59 78.9043L13.4298 79.3194C13.3809 79.4577 13.3239 79.593 13.259 79.7246L13.0677 80.1097L12.9721 80.3026L12.9479 80.3507L12.9218 80.395L12.869 80.4824L12.6591 80.8345C12.5889 80.9525 12.5187 81.0705 12.4448 81.1847L12.2268 81.5305L12.1175 81.7041L12.0026 81.8826L11.771 82.2422L11.6549 82.422C11.6176 82.4682 11.581 82.5025 11.5443 82.5437C11.1779 82.0443 10.804 81.538 10.437 81.0268L9.89047 80.2558L9.61597 79.8688C9.52468 79.7395 9.42965 79.6109 9.34271 79.4761C9.29613 79.4093 9.2539 79.3425 9.21167 79.2757L9.09864 79.0997L8.94586 78.8625C8.84463 78.7039 8.73905 78.5503 8.64217 78.3868C8.44902 78.0634 8.25153 77.7425 8.06211 77.4173C7.30938 76.1115 6.63698 74.7606 6.04868 73.3721C3.68549 67.7763 2.67519 61.6972 3.10058 55.6331C3.20827 54.1171 3.4082 52.6092 3.69927 51.1178C3.73219 50.9305 3.77752 50.7433 3.81603 50.5597L3.82845 50.4973V50.4904C3.8287 50.4882 3.8287 50.4859 3.82845 50.4836V50.4624C3.82947 50.4549 3.82947 50.4473 3.82845 50.4399C3.82845 50.4399 3.82845 50.4399 3.82348 50.4436L3.81727 50.4499L3.80671 50.4599L3.80237 50.4649L4.86187 49.742L5.02955 49.6283L5.09849 49.5809L5.05625 49.6096L4.88733 49.7257L4.54886 49.9573L3.87192 50.4212L3.19498 50.885L2.85589 51.1172L2.68635 51.2333L2.60127 51.2914L2.55903 51.3201C2.51059 51.3538 2.4783 51.3756 2.93787 51.0616L3.78063 50.4861L3.71853 50.5291L3.59432 50.6147L3.33907 50.787L2.82856 51.1309L1.80757 51.8176L0.785329 52.5043L0.27421 52.8489L0.0183398 53.0212C-0.0139546 53.0505 0.00716097 53.0075 0.00281365 52.9975L0.00777929 52.9469L0.0164748 52.8458L0.157453 51.2227L0.29781 49.6077L0.333206 49.2032L0.372954 48.795L0.453689 47.9784L0.535046 47.1613L0.59715 46.5801C0.628824 46.3029 0.659257 46.0251 0.695898 45.7479C0.831286 44.638 0.988201 43.5295 1.16665 42.4225C1.52499 40.2095 1.97028 38.0046 2.53668 35.8234C2.81987 34.7329 3.12853 33.6479 3.47321 32.5723C3.81789 31.4967 4.19549 30.4298 4.60724 29.3755C5.4293 27.2581 6.40683 25.205 7.53174 23.2334C8.09503 22.2458 8.70427 21.2825 9.3514 20.3462C9.99853 19.4098 10.6966 18.4946 11.4331 17.6225C12.1697 16.7504 12.9566 15.9195 13.7763 15.1255C14.5946 14.3307 15.4534 13.5793 16.3493 12.8744C17.2449 12.1698 18.1738 11.5106 19.136 10.8967L19.8632 10.4473L20.6035 10.0203C20.7277 9.94785 20.8519 9.8823 20.9761 9.81488L21.3531 9.61387C21.6015 9.47653 21.8605 9.35355 22.1157 9.22745C23.1403 8.72482 24.1928 8.28211 25.2682 7.90152C26.3468 7.52484 27.4478 7.21607 28.5647 6.977C28.8441 6.91956 29.1236 6.85214 29.405 6.81219L29.8279 6.7404C29.9689 6.7173 30.1092 6.69108 30.2514 6.67797L31.1016 6.56998L31.9556 6.49569C33.0962 6.4164 34.2411 6.41953 35.3813 6.50505L35.8085 6.54126L36.0216 6.55936C36.093 6.56623 36.1632 6.57684 36.2346 6.58558C36.5178 6.62241 36.801 6.65737 37.0836 6.69732C37.6456 6.78846 38.2052 6.88898 38.7566 7.01695C39.3081 7.14492 39.854 7.2835 40.3956 7.43395C40.9371 7.5844 41.47 7.75357 41.9985 7.93336C44.1163 8.63877 46.1471 9.49401 48.1711 10.3006C49.1834 10.7051 50.1944 11.0984 51.2142 11.4598C52.2339 11.8213 53.2587 12.1465 54.2977 12.4118C55.3337 12.6801 56.3864 12.8781 57.4489 13.0042C58.5122 13.1193 59.5827 13.1515 60.651 13.1004C64.9244 12.8706 69.1698 11.2525 72.5347 8.45337Z" fill="black"/>
<path d="M113.114 62.3889C113.737 61.3624 114.52 60.4425 115.433 59.664C116.372 58.8612 117.424 58.2035 118.556 57.7126C119.711 57.2102 120.933 56.8824 122.183 56.74C124.741 56.441 127.327 56.9612 129.574 58.2264C130.673 58.8419 131.676 59.6177 132.55 60.5286C133.406 61.4201 134.126 62.4351 134.684 63.5401C135.227 64.6126 135.595 65.7657 135.776 66.9554C135.162 65.991 134.445 65.0964 133.639 64.2873C132.87 63.5136 132.028 62.8167 131.125 62.2066C129.353 61.0112 127.417 60.1803 125.422 59.772C123.426 59.3638 121.323 59.3856 119.225 59.802C118.157 60.0146 117.113 60.3316 116.106 60.7484C115.053 61.1844 114.049 61.7345 113.114 62.3889Z" fill="black"/>
<path d="M58.8158 67.2653C59.1937 66.1033 59.6813 64.9804 60.2722 63.9118C60.8742 62.8199 61.5911 61.7961 62.4104 60.8579C63.2502 59.8957 64.2059 59.0422 65.2554 58.3172C66.3298 57.5763 67.5046 56.9945 68.7438 56.5899C71.2727 55.7777 73.9989 55.8366 76.4907 56.7572C77.7038 57.2031 78.8224 57.8748 79.7879 58.7373C80.7343 59.5913 81.4827 60.6369 81.9367 61.7594C81.1042 60.9454 80.1357 60.2851 79.0755 59.8085C78.0711 59.3576 77.0097 59.0477 75.9212 58.8878C74.8615 58.7288 73.7871 58.6923 72.7191 58.7791C71.6725 58.8605 70.6389 59.0635 69.6388 59.384C67.6166 60.0364 65.7038 61.1076 63.9028 62.4642C62.1017 63.8207 60.4094 65.4519 58.8158 67.2653Z" fill="black"/>
<path d="M127.537 119.149C129.426 117.616 131.413 116.21 133.485 114.94C135.556 113.67 137.719 112.56 139.956 111.618C142.202 110.672 144.524 109.922 146.897 109.374C149.274 108.825 151.7 108.511 154.139 108.438C151.928 109.463 149.76 110.479 147.595 111.468C145.429 112.456 143.267 113.415 141.08 114.33C138.893 115.244 136.68 116.115 134.427 116.925C132.173 117.735 129.879 118.481 127.537 119.149Z" fill="black"/>
<path d="M155.608 111.991C155.002 111.427 154.551 110.714 154.298 109.923C154.166 109.52 154.072 109.105 154.017 108.683C153.964 108.262 153.941 107.837 153.949 107.412C153.968 106.566 154.075 105.725 154.267 104.901C154.359 104.491 154.467 104.085 154.591 103.684L154.777 103.102L154.964 102.532C155.212 101.777 155.46 101.042 155.669 100.323C155.773 99.9637 155.862 99.6104 155.94 99.262C155.978 99.0872 156.006 98.9149 156.041 98.742L156.077 98.4867L156.096 98.3618L156.106 98.2994L156.111 98.237C156.187 97.6016 156.166 96.9582 156.049 96.3293C156.039 96.2556 156.018 96.1751 156 96.0964C155.981 96.0177 155.957 95.9291 155.937 95.8467L155.785 95.2849C155.656 94.8366 155.561 94.3792 155.501 93.9165L155.481 93.7167L155.471 93.5051L155.467 93.399C155.467 93.3634 155.467 93.3247 155.467 93.2872L155.474 93.0631C155.479 92.987 155.489 92.907 155.498 92.829C155.506 92.7493 155.518 92.6701 155.534 92.5918C155.551 92.5113 155.569 92.4314 155.587 92.3515C155.606 92.2716 155.636 92.1898 155.661 92.1099C155.715 91.9486 155.78 91.7915 155.857 91.6398C155.891 91.563 155.94 91.4887 155.981 91.4138C156.025 91.3397 156.073 91.2678 156.124 91.1985C156.318 90.9305 156.548 90.6908 156.807 90.4862C157.04 90.3006 157.293 90.1415 157.561 90.0117C157.806 89.8923 158.06 89.7925 158.32 89.7133C158.564 89.6391 158.813 89.5807 159.065 89.5385C159.127 89.5273 159.189 89.5192 159.247 89.5123L159.426 89.4911L159.605 89.4705C159.664 89.4624 159.724 89.4574 159.784 89.4555C160.022 89.4455 160.261 89.4293 160.498 89.4424C160.616 89.4468 160.735 89.4474 160.852 89.4568L161.205 89.4917C161.263 89.4986 161.322 89.503 161.38 89.5123L161.554 89.541L161.899 89.6035L162.24 89.6859L162.409 89.7283C162.465 89.7439 162.521 89.7627 162.576 89.7795L162.908 89.8856C163.017 89.9243 163.125 89.9687 163.232 90.0105C163.45 90.0904 163.656 90.1978 163.864 90.2939C163.917 90.3176 163.967 90.3457 164.017 90.3738L164.168 90.4581L164.318 90.5424L164.393 90.5848L164.466 90.6316C164.659 90.7565 164.853 90.8782 165.033 91.0212C165.4 91.2947 165.741 91.6003 166.054 91.9345L166.278 92.1935L166.39 92.3234C166.424 92.3683 166.458 92.4145 166.492 92.4601L166.695 92.7341C166.757 92.8278 166.819 92.9252 166.881 93.0207C167.35 93.7748 167.675 94.6099 167.839 95.4834C167.849 95.5371 167.862 95.5895 167.87 95.6432L167.893 95.8043L167.935 96.1239L167.958 96.4454L167.968 96.6052C167.968 96.6589 167.968 96.7125 167.968 96.7656V97.084C167.965 97.1901 167.956 97.2962 167.95 97.4017C167.941 97.6121 167.905 97.8212 167.878 98.026C167.748 98.837 167.47 99.6171 167.06 100.328L167.117 100.034L167.145 99.8882C167.154 99.8395 167.158 99.7895 167.165 99.7408L167.202 99.4487C167.212 99.3513 167.214 99.2527 167.221 99.1559C167.239 98.963 167.231 98.7676 167.231 98.576V98.5042L167.226 98.4318L167.216 98.2882L167.206 98.1459C167.204 98.0982 167.199 98.0507 167.193 98.0035C167.165 97.8162 167.149 97.629 167.107 97.4417C167.088 97.3493 167.073 97.2575 167.052 97.1664L166.982 96.8948L166.947 96.7606L166.904 96.6283L166.819 96.3655L166.719 96.1089L166.669 95.984C166.653 95.9416 166.631 95.901 166.613 95.8592C166.327 95.21 165.935 94.6137 165.452 94.095C165.39 94.0326 165.336 93.9702 165.276 93.9077L165.09 93.7348L164.997 93.6487L164.897 93.5688L164.7 93.4096C164.43 93.2083 164.145 93.0285 163.846 92.8721C163.702 92.7884 163.546 92.7248 163.395 92.6542L163.338 92.6286L163.28 92.6062L163.163 92.5618L163.047 92.5169C163.009 92.5007 162.97 92.4868 162.93 92.4751C162.771 92.427 162.616 92.3696 162.455 92.3346C162.375 92.3153 162.296 92.2922 162.216 92.2753L161.974 92.2297C161.934 92.2222 161.894 92.2135 161.854 92.2066L161.729 92.1923L161.488 92.1604L161.246 92.1455L161.126 92.1367C161.085 92.1367 161.045 92.1367 161.005 92.1367H160.765C160.686 92.1367 160.606 92.1461 160.528 92.1498C160.369 92.153 160.213 92.181 160.058 92.1979C160.019 92.2015 159.981 92.208 159.943 92.2172L159.828 92.2397L159.713 92.2616C159.676 92.2675 159.639 92.2754 159.603 92.2853C159.466 92.3184 159.331 92.3601 159.199 92.4101C158.989 92.4833 158.793 92.5932 158.621 92.7348C158.571 92.7791 158.527 92.8302 158.49 92.8865C158.482 92.8969 158.475 92.9082 158.47 92.9202C158.47 92.9258 158.464 92.9314 158.461 92.937C158.457 92.9422 158.454 92.9485 158.453 92.9551C158.442 92.9815 158.432 93.0086 158.425 93.0363C158.404 93.106 158.392 93.1778 158.389 93.2504C158.389 93.2747 158.389 93.2991 158.389 93.3241C158.389 93.3366 158.389 93.3478 158.389 93.3615V93.4046L158.392 93.4901L158.403 93.5875C158.448 93.9132 158.513 94.2356 158.6 94.5526C158.645 94.7361 158.696 94.939 158.745 95.1469C158.769 95.2568 158.794 95.361 158.817 95.4765C158.839 95.592 158.863 95.7056 158.879 95.8286C159.02 96.7717 158.998 97.7322 158.813 98.6677L158.799 98.7526L158.78 98.8357L158.742 99.0005L158.665 99.3301C158.603 99.5429 158.546 99.7589 158.479 99.9668C158.343 100.383 158.194 100.787 158.03 101.175C157.706 101.953 157.342 102.684 156.98 103.392L156.442 104.438C156.271 104.774 156.109 105.114 155.958 105.458C155.652 106.142 155.404 106.851 155.216 107.577C155.124 107.939 155.055 108.306 155.009 108.677C154.965 109.048 154.951 109.423 154.97 109.796C155.005 110.569 155.224 111.322 155.608 111.991Z" fill="black"/>
<path d="M166.25 100.095C166.728 100.262 167.214 100.404 167.707 100.518C168.195 100.625 168.68 100.705 169.164 100.776C169.647 100.846 170.134 100.886 170.62 100.926C171.106 100.966 171.594 100.991 172.085 101.019L173.568 101.099C174.065 101.127 174.572 101.161 175.082 101.208C175.592 101.256 176.108 101.317 176.627 101.396C177.147 101.474 177.67 101.579 178.195 101.708C178.726 101.84 179.25 102.003 179.763 102.193C180.288 102.394 180.799 102.63 181.291 102.901C181.54 103.046 181.783 103.187 182.017 103.353C182.26 103.514 182.494 103.688 182.718 103.875C182.941 104.062 183.154 104.262 183.357 104.471C183.557 104.68 183.746 104.9 183.924 105.128C184.628 106.039 185.137 107.099 185.345 108.212C185.397 108.488 185.429 108.768 185.44 109.049C185.451 109.326 185.441 109.603 185.409 109.878C185.376 110.147 185.321 110.414 185.245 110.674C185.168 110.926 185.07 111.171 184.953 111.406C184.95 110.906 184.873 110.409 184.724 109.932C184.582 109.483 184.386 109.053 184.14 108.651C183.663 107.886 183.055 107.211 182.344 106.659C182.171 106.523 181.993 106.395 181.814 106.274C181.634 106.152 181.449 106.041 181.264 105.936C181.079 105.83 180.892 105.739 180.69 105.644C180.489 105.55 180.287 105.465 180.087 105.376C179.675 105.211 179.254 105.064 178.823 104.926C178.392 104.788 177.945 104.672 177.492 104.557C177.039 104.441 176.574 104.34 176.104 104.235L174.669 103.923C174.183 103.817 173.692 103.707 173.195 103.586C172.697 103.464 172.197 103.329 171.698 103.178C171.198 103.027 170.7 102.852 170.207 102.658C169.714 102.46 169.231 102.236 168.762 101.987C168.295 101.735 167.846 101.45 167.418 101.136C167.001 100.822 166.61 100.474 166.25 100.095Z" fill="black"/>
<path d="M175.215 108.528C177.23 108.361 179.255 108.359 181.27 108.523C181.518 108.543 181.771 108.566 182.021 108.592C182.27 108.618 182.524 108.646 182.785 108.682C183.341 108.755 183.889 108.877 184.424 109.048C185.037 109.245 185.611 109.545 186.124 109.935C186.646 110.346 187.089 110.848 187.432 111.418C187.477 111.486 187.513 111.554 187.551 111.622C187.59 111.69 187.627 111.759 187.663 111.827L187.764 112.033C187.798 112.102 187.83 112.171 187.858 112.239L187.946 112.445C187.975 112.514 187.999 112.582 188.025 112.65C188.078 112.788 188.123 112.923 188.167 113.059C188.33 113.577 188.461 114.105 188.557 114.64C188.581 114.769 188.603 114.894 188.625 115.02L188.657 115.213C188.668 115.28 188.679 115.344 188.689 115.413C188.729 115.679 188.761 115.959 188.783 116.245C188.805 116.543 188.809 116.843 188.794 117.141C188.778 117.465 188.73 117.787 188.652 118.101C188.568 118.444 188.432 118.771 188.25 119.073C188.205 119.152 188.155 119.227 188.099 119.299C188.044 119.371 187.991 119.445 187.93 119.512C187.869 119.58 187.806 119.643 187.744 119.706C187.679 119.767 187.612 119.825 187.542 119.88C187.268 120.095 186.957 120.257 186.624 120.359C186.32 120.45 186.004 120.494 185.687 120.488C185.129 120.47 184.579 120.35 184.063 120.136C183.585 119.941 183.125 119.703 182.689 119.427C183.185 119.465 183.682 119.475 184.179 119.455C184.66 119.431 185.125 119.36 185.507 119.213C185.681 119.148 185.845 119.056 185.993 118.942C186.115 118.845 186.219 118.726 186.3 118.592C186.317 118.559 186.337 118.53 186.352 118.494C186.366 118.458 186.38 118.427 186.395 118.396C186.41 118.365 186.415 118.327 186.426 118.295C186.438 118.262 186.446 118.228 186.451 118.193C186.482 118.046 186.494 117.895 186.487 117.744C186.467 117.365 186.404 116.99 186.3 116.626C186.245 116.42 186.185 116.21 186.114 115.991L185.899 115.31C185.754 114.854 185.613 114.418 185.456 114.022C185.316 113.651 185.145 113.294 184.943 112.953C184.774 112.667 184.565 112.407 184.322 112.181C184.055 111.951 183.758 111.759 183.438 111.611C183.044 111.429 182.64 111.271 182.227 111.138L181.538 110.91L180.834 110.676C178.956 110.038 177.083 109.322 175.215 108.528Z" fill="black"/>
<path d="M158.862 118.052L161.703 119.378L162.057 119.544L162.412 119.707L163.121 120.033L163.831 120.352L164.186 120.513L164.543 120.667L165.253 120.98L165.967 121.277L166.323 121.427L166.681 121.569L167.396 121.853L168.115 122.12L168.473 122.254L168.834 122.379L169.554 122.628L170.278 122.853L170.639 122.965L171.002 123.065L171.727 123.265L172.456 123.438C172.58 123.466 172.698 123.5 172.82 123.523L173.185 123.594C174.156 123.805 175.136 123.918 176.104 124.013C177.066 124.087 178.013 124.085 178.899 123.957C179.784 123.828 180.601 123.571 181.293 123.158C181.954 122.761 182.494 122.189 182.853 121.505C183.024 121.182 183.143 120.834 183.204 120.474C183.259 120.145 183.248 119.809 183.172 119.484C183.161 119.445 183.153 119.406 183.14 119.367C183.127 119.327 183.111 119.287 183.097 119.246L183.076 119.184C183.071 119.162 183.063 119.141 183.053 119.121L182.999 119.003C182.922 118.839 182.83 118.683 182.725 118.535C182.483 118.203 182.197 117.905 181.876 117.649C181.515 117.356 181.134 117.089 180.736 116.848C180.323 116.594 179.885 116.349 179.432 116.099C177.601 115.096 175.805 114.084 173.951 113.194C172.096 112.305 170.181 111.539 168.141 111.068C169.195 111.063 170.247 111.142 171.288 111.306C172.337 111.471 173.375 111.699 174.397 111.987C176.447 112.556 178.429 113.32 180.368 114.104C180.855 114.301 181.362 114.511 181.863 114.754C182.388 115.003 182.893 115.291 183.374 115.617C183.904 115.971 184.381 116.398 184.794 116.884C185.014 117.147 185.21 117.429 185.378 117.728L185.502 117.96C185.524 117.998 185.543 118.038 185.559 118.079L185.612 118.2L185.715 118.445C185.747 118.528 185.777 118.616 185.804 118.701C186.018 119.388 186.086 120.112 186.003 120.827C185.924 121.508 185.731 122.172 185.43 122.788C185.141 123.386 184.766 123.938 184.318 124.427C183.87 124.919 183.352 125.341 182.781 125.68C182.235 126.003 181.654 126.26 181.049 126.446C180.466 126.625 179.868 126.75 179.263 126.817C178.075 126.951 176.921 126.892 175.81 126.741C175.67 126.725 175.536 126.697 175.398 126.675L174.989 126.604L174.58 126.532L174.479 126.514L174.377 126.491L174.176 126.445L173.368 126.258C173.102 126.189 172.84 126.109 172.576 126.034L172.181 125.919C172.05 125.879 171.922 125.832 171.793 125.789L171.02 125.522C170.765 125.425 170.514 125.323 170.262 125.223L169.884 125.072L169.511 124.908L168.782 124.577L168.059 124.219L167.699 124.039L167.346 123.852L166.642 123.469L165.952 123.066L165.608 122.864L165.27 122.653L164.597 122.231L163.935 121.794L163.605 121.575L163.28 121.35L162.632 120.899L161.992 120.438L161.673 120.206L161.357 119.971L160.727 119.499L160.106 119.021C159.685 118.7 159.274 118.376 158.862 118.052Z" fill="black"/>
<path d="M162.767 120.063C160.976 123.274 158.84 126.278 156.398 129.02C153.934 131.785 151.178 134.273 148.18 136.44C146.681 137.522 145.137 138.518 143.577 139.462C142.797 139.935 142.017 140.393 141.227 140.848C140.437 141.302 139.635 141.749 138.815 142.172C137.179 143.021 135.47 143.786 133.685 144.326L133.519 144.378L133.351 144.425L133.013 144.515L132.677 144.605C132.564 144.634 132.449 144.656 132.336 144.683L131.996 144.757C131.882 144.781 131.771 144.808 131.656 144.826L130.973 144.939C130.064 145.067 129.146 145.117 128.229 145.087C129.103 144.875 129.961 144.603 130.797 144.272L131.413 144.013C131.515 143.973 131.615 143.922 131.716 143.876L132.017 143.735C132.117 143.687 132.218 143.643 132.317 143.594L132.613 143.442L132.908 143.291L133.056 143.216L133.201 143.134C134.753 142.291 136.226 141.31 137.685 140.283C138.415 139.772 139.141 139.244 139.875 138.722C140.609 138.2 141.351 137.672 142.088 137.154C143.565 136.119 145.036 135.098 146.48 134.058C152.294 129.866 157.742 125.184 162.767 120.063Z" fill="black"/>
<path d="M124.186 130.083C126.129 135.339 127.958 140.64 129.675 145.986C130.529 148.655 131.377 151.341 132.105 154.088C132.832 156.836 133.434 159.644 133.77 162.519C134.106 165.394 134.159 168.334 133.776 171.246C133.677 171.973 133.562 172.698 133.407 173.417L133.351 173.688C133.331 173.777 133.309 173.867 133.288 173.956L133.161 174.492C133.065 174.847 132.974 175.203 132.867 175.554C132.813 175.729 132.766 175.906 132.707 176.079L132.535 176.601C132.478 176.775 132.411 176.946 132.349 177.119L132.256 177.376C132.225 177.462 132.19 177.547 132.158 177.632L131.958 178.142L131.745 178.646C131.675 178.814 131.598 178.979 131.523 179.146C131.448 179.312 131.375 179.478 131.293 179.641C130.046 182.253 128.405 184.656 126.428 186.763C124.491 188.836 122.239 190.585 119.755 191.945C121.914 190.214 123.827 188.193 125.441 185.94C127.029 183.731 128.319 181.319 129.276 178.769C129.339 178.612 129.391 178.452 129.449 178.293C129.507 178.135 129.564 177.977 129.616 177.816L129.774 177.337L129.922 176.854C129.945 176.774 129.971 176.694 129.994 176.613L130.062 176.37C130.106 176.208 130.155 176.047 130.196 175.884L130.32 175.397C130.363 175.235 130.396 175.07 130.434 174.907C130.513 174.582 130.573 174.252 130.642 173.924L130.729 173.43C130.743 173.348 130.76 173.266 130.772 173.184L130.809 172.934C130.915 172.275 130.987 171.607 131.05 170.94C131.284 168.267 131.174 165.56 130.863 162.855C130.553 160.15 130.034 157.443 129.442 154.734C128.85 152.025 128.183 149.306 127.562 146.566C126.319 141.095 125.194 135.6 124.186 130.083Z" fill="black"/>
<path d="M70.2635 131.546L70.3293 132.064L70.361 132.324L70.3846 132.585L70.4293 133.11L70.456 133.635L70.4678 133.899L70.4728 134.162L70.4796 134.69L70.4709 135.218L70.4653 135.483L70.4535 135.747L70.4268 136.276L70.3871 136.803L70.3659 137.067L70.3399 137.33L70.2846 137.857C70.2001 138.554 70.1026 139.254 69.9803 139.943C69.7418 141.327 69.4338 142.685 69.1021 144.026C68.7705 145.366 68.4078 146.694 68.0171 148.015C66.4469 153.322 64.4101 158.478 61.9309 163.422C62.5449 157.919 63.645 152.482 65.2181 147.175C65.6094 145.854 66.03 144.542 66.4801 143.238C66.9285 141.936 67.4048 140.654 67.8675 139.376C68.1022 138.737 68.3264 138.098 68.5506 137.457L68.7158 136.976L68.7991 136.735L68.8792 136.493L69.0406 136.009L69.1953 135.524L69.2741 135.28L69.3474 135.036L69.4971 134.546L69.6375 134.054L69.7089 133.804L69.7747 133.554L69.9082 133.055L70.0324 132.555L70.0945 132.306L70.1498 132.052L70.2635 131.546Z" fill="black"/>
<path d="M71.7012 162.257L70.1063 162.15C69.5791 162.117 69.0568 162.092 68.5438 162.079C68.0308 162.066 67.5265 162.079 67.0371 162.107L66.6726 162.134L66.3155 162.175C66.1963 162.186 66.0807 162.21 65.9652 162.227L65.7919 162.255C65.7342 162.263 65.6789 162.279 65.6224 162.29C65.51 162.317 65.397 162.335 65.2877 162.364L64.9622 162.453C64.8554 162.483 64.7523 162.523 64.6474 162.556C64.5958 162.575 64.5424 162.588 64.4927 162.61L64.3418 162.672C64.2424 162.714 64.1406 162.749 64.045 162.797L63.9002 162.865C63.8518 162.888 63.8052 162.915 63.7574 162.94C63.7096 162.964 63.6618 162.987 63.6152 163.014L63.4754 163.095C63.3811 163.146 63.2891 163.209 63.1985 163.264C62.4675 163.732 61.7893 164.339 61.149 165.02C60.9888 165.192 60.8298 165.366 60.6739 165.546C60.518 165.727 60.3677 165.915 60.2119 166.099C60.133 166.189 60.0597 166.286 59.9864 166.381L59.7628 166.666L59.7069 166.738L59.6535 166.811L59.5467 166.957L59.33 167.249C57.5566 169.731 56.2588 172.523 55.5031 175.483C55.0491 173.375 55.1249 171.092 55.7273 168.922C56.0296 167.828 56.4601 166.774 57.0098 165.782L57.2253 165.413L57.3346 165.226L57.3892 165.134L57.4513 165.045L57.6873 164.687C57.7668 164.568 57.8463 164.449 57.9357 164.335L58.1922 163.991C58.2767 163.877 58.3674 163.764 58.4586 163.653C58.6412 163.43 58.8313 163.212 59.0331 162.999C59.4391 162.567 59.8789 162.168 60.3485 161.807C60.8319 161.434 61.3522 161.111 61.9011 160.845C62.0427 160.782 62.1799 160.712 62.3259 160.657L62.542 160.57C62.6141 160.542 62.6892 160.518 62.7631 160.492C62.837 160.467 62.9103 160.441 62.9848 160.418L63.2109 160.356C63.3606 160.31 63.514 160.282 63.6655 160.249L63.8934 160.203C63.9686 160.187 64.0456 160.18 64.122 160.169C64.2741 160.151 64.4263 160.127 64.5778 160.117L65.0312 160.094C65.1821 160.089 65.3311 160.094 65.4802 160.099C65.5541 160.099 65.6292 160.099 65.7025 160.107L65.9224 160.126C66.0689 160.14 66.2149 160.15 66.3571 160.174C66.4993 160.198 66.644 160.217 66.7856 160.241L67.2048 160.33C67.7482 160.458 68.2821 160.623 68.8028 160.825C69.3145 161.024 69.8095 161.248 70.2933 161.489C70.7771 161.731 71.236 161.989 71.7012 162.257Z" fill="black"/>
<path d="M69.5481 179.483C68.7796 178.797 67.9413 178.195 67.0471 177.686C66.9385 177.618 66.823 177.561 66.7112 177.502C66.5994 177.443 66.4863 177.382 66.3727 177.324L66.028 177.159L65.8554 177.077C65.7982 177.05 65.7386 177.026 65.6808 177.001L65.33 176.852C65.2144 176.8 65.0933 176.76 64.9753 176.714C64.8573 176.667 64.7393 176.622 64.6195 176.58L64.2593 176.46C63.3007 176.147 62.3142 175.927 61.3137 175.804C60.8168 175.737 60.3163 175.706 59.8176 175.685C59.6934 175.68 59.5691 175.685 59.4449 175.679C59.3207 175.674 59.1965 175.674 59.0723 175.679L58.6997 175.69C58.6376 175.69 58.5755 175.69 58.5134 175.697L58.3271 175.709L57.9544 175.735C57.8302 175.745 57.706 175.761 57.5818 175.774C57.3334 175.796 57.0906 175.836 56.8459 175.872C56.7217 175.888 56.6024 175.912 56.4807 175.935L56.1174 176.003L55.7572 176.087C55.6373 176.116 55.5168 176.139 55.3988 176.174C54.4526 176.423 53.5338 176.767 52.6563 177.201C52.224 177.419 51.8038 177.66 51.3974 177.923C51.2968 177.986 51.1931 178.054 51.0962 178.121C50.9993 178.188 50.9049 178.254 50.8124 178.326C50.6261 178.465 50.4447 178.615 50.269 178.769C49.9199 179.076 49.5953 179.41 49.2983 179.768C49.0076 180.117 48.7488 180.491 48.5251 180.887C48.0904 181.663 47.8457 182.496 47.8879 183.25C47.8968 183.435 47.9232 183.62 47.9668 183.801C48.1001 184.348 48.3815 184.848 48.7797 185.244C49.3169 185.802 50.0839 186.235 50.9391 186.566C51.3775 186.733 51.8244 186.877 52.2781 186.996C52.511 187.058 52.742 187.114 52.9842 187.168L53.717 187.329C55.684 187.73 57.676 187.997 59.6791 188.127C61.6957 188.256 63.7176 188.281 65.7367 188.201C66.7511 188.164 67.7655 188.107 68.7799 188.03C69.7959 187.953 70.8119 187.859 71.8292 187.751C73.8631 187.538 75.8989 187.267 77.939 186.976C78.9588 186.83 79.9792 186.677 81.0014 186.525L81.384 186.467L81.7498 186.41C81.992 186.368 82.2309 186.324 82.4664 186.279C82.9255 186.189 83.379 186.072 83.8247 185.93C84.2376 185.799 84.6365 185.627 85.0158 185.417C85.3488 185.234 85.6485 184.995 85.9021 184.711C86.0158 184.58 86.115 184.437 86.1977 184.285C86.2794 184.13 86.3442 183.967 86.3908 183.798C86.4902 183.456 86.5151 183.043 86.5001 182.594C86.4852 182.144 86.4194 181.657 86.3498 181.138C86.2803 180.618 86.2058 180.077 86.1822 179.487C86.1586 178.897 86.1946 178.255 86.397 177.608C86.4996 177.28 86.6458 176.969 86.8318 176.681C87.0163 176.39 87.2406 176.126 87.4982 175.898C87.7511 175.676 88.032 175.489 88.3335 175.34C88.6186 175.201 88.9178 175.092 89.2259 175.017C89.808 174.879 90.4073 174.83 91.004 174.869C91.5727 174.904 92.1363 174.999 92.6851 175.153C92.8213 175.191 92.9561 175.233 93.0894 175.278L93.4757 175.414C93.6037 175.462 93.7304 175.513 93.857 175.563C93.9837 175.612 94.1055 175.669 94.2328 175.722C95.2206 176.162 96.1529 176.719 97.0101 177.38C97.8554 178.034 98.6238 178.783 99.3005 179.612C100.642 181.24 101.577 183.166 102.029 185.23C101.36 183.284 100.252 181.519 98.7919 180.074C98.0792 179.365 97.2907 178.736 96.4406 178.201C95.6009 177.673 94.7033 177.244 93.7658 176.922C93.6484 176.884 93.5329 176.842 93.4155 176.809C93.2981 176.775 93.1801 176.738 93.0627 176.706L92.7075 176.614C92.592 176.587 92.4771 176.562 92.3609 176.54C91.9031 176.453 91.4375 176.414 90.9717 176.423C90.5328 176.428 90.0971 176.499 89.6787 176.632C89.3131 176.747 88.9801 176.947 88.7073 177.217C88.586 177.344 88.4831 177.488 88.4018 177.644C88.317 177.801 88.2543 177.969 88.2155 178.143C88.1335 178.498 88.1273 178.909 88.1763 179.358C88.2254 179.807 88.3186 180.289 88.4198 180.8C88.521 181.311 88.6266 181.851 88.6862 182.438C88.7174 182.742 88.7298 183.048 88.7235 183.355C88.717 183.685 88.6788 184.014 88.6092 184.337C88.5369 184.675 88.4278 185.004 88.2838 185.318C88.1377 185.633 87.9571 185.931 87.7453 186.206C87.3373 186.726 86.8427 187.171 86.2834 187.521C85.7705 187.842 85.2263 188.11 84.6594 188.319C84.1255 188.517 83.5805 188.683 83.0273 188.816C82.7571 188.882 82.4882 188.94 82.2199 188.996C82.0864 189.023 81.9529 189.049 81.8199 189.075L81.4361 189.146C80.4145 189.339 79.3898 189.527 78.3614 189.704C76.3082 190.054 74.237 190.374 72.1472 190.623C71.1032 190.748 70.0555 190.859 69.0041 190.946C67.9526 191.032 66.8962 191.095 65.8367 191.133C63.7105 191.217 61.5812 191.175 59.4598 191.008C57.3241 190.837 55.2043 190.504 53.1183 190.013L52.3377 189.817C52.0756 189.75 51.8055 189.674 51.5397 189.593C50.9952 189.43 50.4603 189.237 49.9374 189.014C49.3907 188.782 48.8651 188.502 48.3667 188.178C47.8358 187.834 47.3529 187.421 46.9309 186.949C46.4882 186.451 46.1362 185.878 45.8912 185.257C45.7706 184.943 45.6788 184.619 45.6168 184.288C45.5553 183.958 45.5253 183.624 45.5273 183.289C45.5283 182.961 45.5584 182.634 45.6174 182.311L45.6379 182.192L45.6639 182.075C45.682 181.997 45.6987 181.918 45.7186 181.841C45.7614 181.689 45.8031 181.535 45.8559 181.389C45.9086 181.242 45.9627 181.096 46.0198 180.952C46.049 180.881 46.0819 180.811 46.1123 180.741C46.1428 180.671 46.1744 180.602 46.2105 180.534C46.3433 180.264 46.4911 180.002 46.6533 179.748C46.9723 179.256 47.3361 178.794 47.7401 178.369C48.1331 177.951 48.5591 177.566 49.0139 177.217C49.2405 177.043 49.4716 176.877 49.7113 176.722C49.8299 176.644 49.9529 176.57 50.0746 176.496C50.1963 176.423 50.3174 176.36 50.4385 176.292C50.9218 176.025 51.4194 175.785 51.929 175.574C52.9435 175.161 53.9982 174.857 55.0759 174.666C55.2094 174.638 55.3442 174.622 55.4783 174.604L55.8808 174.546L56.2844 174.504C56.4192 174.489 56.5533 174.475 56.6887 174.468C56.9583 174.451 57.2272 174.432 57.4961 174.431C57.6309 174.431 57.765 174.423 57.8998 174.424L58.3035 174.431L58.5047 174.436C58.5717 174.436 58.6388 174.443 58.7059 174.447L59.1077 174.471C59.2412 174.478 59.3748 174.496 59.5077 174.508C59.6406 174.521 59.7747 174.533 59.907 174.551C60.4374 174.622 60.9628 174.705 61.4845 174.827C62.5213 175.057 63.5326 175.39 64.5034 175.822L64.8642 175.986C64.9834 176.042 65.1002 176.104 65.2182 176.162C65.3362 176.221 65.4554 176.278 65.5697 176.344L65.9144 176.536C65.9715 176.569 66.0292 176.599 66.0858 176.634L66.2535 176.737L66.5888 176.945C66.6987 177.016 66.8062 177.091 66.9155 177.165C67.0248 177.239 67.1341 177.309 67.2372 177.39C68.0811 178.001 68.856 178.703 69.5481 179.483Z" fill="black"/>
<path d="M92.0646 175.485C92.8682 175.54 93.6737 175.601 94.4786 175.751C95.2835 175.901 96.0933 176.144 96.8348 176.575C97.0253 176.681 97.2072 176.803 97.3789 176.938C97.5528 177.073 97.717 177.222 97.8701 177.381C98.1813 177.703 98.4458 178.067 98.6557 178.463C98.8737 178.874 99.0207 179.32 99.0905 179.78C99.1646 180.27 99.1304 180.77 98.9905 181.245C98.8412 181.722 98.5948 182.162 98.267 182.538C97.9666 182.878 97.6338 183.188 97.2733 183.463C96.9379 183.727 96.6106 183.962 96.3181 184.2C96.0453 184.412 95.7955 184.651 95.5729 184.916C95.3806 185.154 95.2278 185.423 95.1201 185.71C95.0089 186.009 94.9385 186.321 94.9108 186.639C94.8803 186.969 94.8849 187.301 94.9245 187.63C94.9295 187.672 94.9326 187.713 94.9394 187.755L94.9593 187.88C94.9711 187.962 94.9903 188.044 95.0071 188.126C95.0413 188.29 95.086 188.451 95.1369 188.619C95.3418 189.282 95.6623 189.935 96.038 190.593C96.2243 190.922 96.4287 191.251 96.6392 191.586L97.2857 192.607C98.1527 193.977 99.0135 195.35 99.868 196.727C100.723 198.104 101.571 199.487 102.414 200.875L103.672 202.957L104.297 204.001L104.607 204.517L104.918 205.027C105.74 206.371 106.589 207.636 107.588 208.647C108.072 209.139 108.614 209.569 109.203 209.928C109.276 209.97 109.346 210.018 109.419 210.056C109.492 210.095 109.564 210.135 109.638 210.173L109.861 210.28L110.09 210.378C110.4 210.504 110.72 210.607 111.046 210.686C112.357 211.006 113.799 210.958 115.157 210.572C115.839 210.379 116.495 210.106 117.113 209.757L117.342 209.623L117.567 209.481L117.787 209.332C117.86 209.281 117.93 209.224 118.003 209.171C118.145 209.062 118.293 208.958 118.427 208.836L118.633 208.659C118.667 208.63 118.703 208.602 118.736 208.571L118.833 208.476C119.369 207.972 119.852 207.414 120.273 206.81C120.698 206.194 121.066 205.54 121.371 204.856C121.683 204.162 121.937 203.442 122.128 202.704C122.321 201.957 122.453 201.196 122.522 200.427C122.668 198.878 122.57 197.29 122.295 195.722C122.008 194.139 121.566 192.588 120.975 191.093C121.796 192.504 122.463 194 122.962 195.556C123.459 197.126 123.77 198.78 123.804 200.469C123.844 202.184 123.583 203.892 123.032 205.515C122.751 206.34 122.391 207.136 121.957 207.891C121.513 208.658 120.988 209.374 120.391 210.028L120.279 210.153C120.243 210.194 120.201 210.232 120.162 210.272L119.924 210.508C119.769 210.67 119.597 210.815 119.427 210.963C119.342 211.036 119.26 211.111 119.171 211.183L118.903 211.394L118.628 211.595L118.346 211.787C117.585 212.287 116.766 212.689 115.907 212.985C115.041 213.286 114.141 213.475 113.229 213.547C112.3 213.622 111.365 213.566 110.451 213.382C109.987 213.289 109.53 213.159 109.085 212.995L108.752 212.865L108.424 212.721C108.315 212.67 108.209 212.616 108.101 212.563C107.994 212.51 107.894 212.449 107.791 212.392C106.982 211.931 106.235 211.368 105.568 210.716C104.936 210.091 104.355 209.415 103.833 208.695C103.319 207.994 102.859 207.279 102.424 206.569L102.103 206.038L101.793 205.51L101.175 204.462L99.9456 202.359C99.1308 200.956 98.3224 199.55 97.5205 198.141C96.7185 196.731 95.9233 195.318 95.135 193.901L94.5426 192.829C94.3432 192.465 94.1451 192.091 93.9557 191.706C93.5781 190.93 93.2315 190.093 93.0241 189.186C92.9738 188.961 92.9278 188.726 92.8999 188.49C92.885 188.372 92.8682 188.254 92.8608 188.135L92.8471 187.958C92.8428 187.898 92.8421 187.838 92.8396 187.778C92.8221 187.297 92.8571 186.816 92.944 186.343C93.0311 185.857 93.1845 185.385 93.3998 184.941C93.5108 184.715 93.6389 184.498 93.783 184.292C93.8569 184.19 93.9296 184.087 94.014 183.991L94.1383 183.847C94.1805 183.801 94.2252 183.758 94.2687 183.713C94.5991 183.387 94.9633 183.098 95.3549 182.851C95.7169 182.614 96.0672 182.414 96.3895 182.208C96.6934 182.023 96.9797 181.811 97.2447 181.574L97.4149 181.401C97.4627 181.339 97.5167 181.281 97.5633 181.218L97.6254 181.123C97.648 181.092 97.6687 181.059 97.6875 181.026C97.7261 180.96 97.7605 180.893 97.7906 180.823C97.9155 180.53 97.9742 180.213 97.9626 179.894C97.9507 179.548 97.881 179.206 97.7565 178.883C97.627 178.545 97.4514 178.225 97.2348 177.935C97.1252 177.788 97.0057 177.648 96.8771 177.517C96.7468 177.384 96.6069 177.262 96.4585 177.15C95.8579 176.687 95.1412 176.351 94.3898 176.098C93.6383 175.844 92.8508 175.66 92.0646 175.485Z" fill="black"/>
<path d="M52.9209 179.503C52.2754 179.996 51.722 180.6 51.2863 181.286C50.4265 182.615 50.0691 184.21 50.2789 185.781C50.379 186.589 50.6204 187.373 50.9919 188.097C50.3984 187.479 49.9683 186.721 49.7411 185.892C49.5009 185.042 49.4766 184.146 49.6703 183.284C49.8641 182.423 50.2698 181.624 50.8503 180.96C51.4087 180.309 52.1205 179.808 52.9209 179.503Z" fill="black"/>
<path d="M58.0388 181.322C57.2845 181.6 56.629 182.096 56.1551 182.747C55.6962 183.372 55.4099 184.105 55.372 184.845C55.3341 185.585 55.536 186.343 55.9254 187.014C56.3254 187.714 56.923 188.279 57.6425 188.637C57.222 188.569 56.8187 188.419 56.4551 188.196C56.0805 187.967 55.7488 187.674 55.4751 187.33C55.1943 186.979 54.9767 186.582 54.8323 186.156C54.5295 185.28 54.5817 184.32 54.9777 183.483C55.1676 183.075 55.4267 182.705 55.7434 182.387C56.0528 182.074 56.4144 181.819 56.8116 181.633C57.1969 181.451 57.6136 181.345 58.0388 181.322Z" fill="black"/>
<path d="M111.764 204.537C112.293 205.031 112.718 205.628 113.012 206.292C113.617 207.653 113.695 209.192 113.23 210.608C113.004 211.298 112.641 211.935 112.164 212.48C112.417 211.836 112.596 211.165 112.696 210.479C112.892 209.145 112.824 207.785 112.497 206.477C112.328 205.804 112.082 205.153 111.764 204.537Z" fill="black"/>
<path d="M116.481 204.783C116.893 205.142 117.235 205.573 117.492 206.056C118.016 207.044 118.183 208.184 117.962 209.282C117.854 209.818 117.649 210.33 117.356 210.792C117.413 210.274 117.434 209.752 117.418 209.231C117.403 208.73 117.359 208.229 117.287 207.733C117.145 206.719 116.874 205.728 116.481 204.783Z" fill="black"/>
<path d="M57.9785 114.49L53.3002 112.929C51.7823 112.418 50.298 111.906 48.8206 111.376C47.3431 110.846 45.8712 110.3 44.3751 109.73C42.879 109.159 41.3562 108.565 39.7732 107.954C41.433 107.586 43.1364 107.457 44.8322 107.571C48.2418 107.801 51.5206 108.98 54.3019 110.976C55.6853 111.968 56.923 113.151 57.9785 114.49Z" fill="black"/>
<path d="M39.8373 110.758L39.8758 110.487C39.882 110.442 39.8907 110.398 39.8938 110.353L39.9019 110.218C39.9062 110.128 39.9168 110.04 39.9156 109.95V109.685C39.9157 109.641 39.9135 109.597 39.9087 109.553L39.8975 109.421C39.8907 109.334 39.8851 109.247 39.8696 109.161L39.8317 108.903L39.7783 108.648C39.769 108.606 39.7622 108.563 39.751 108.523L39.7174 108.398C39.6945 108.314 39.6752 108.231 39.6497 108.148C39.5963 107.983 39.5479 107.819 39.4852 107.657C39.4224 107.496 39.361 107.336 39.2989 107.177C39.2666 107.097 39.2293 107.018 39.1951 106.94C39.161 106.861 39.1256 106.782 39.0871 106.704C38.9418 106.391 38.7766 106.083 38.6138 105.777C38.4511 105.47 38.2723 105.169 38.0903 104.856C37.7301 104.232 37.3581 103.595 37.0215 102.904C36.8513 102.561 36.6942 102.2 36.5495 101.827C36.4015 101.444 36.277 101.051 36.1769 100.653L36.1098 100.341C36.0992 100.288 36.0874 100.237 36.0787 100.184L36.0533 100.024C36.0384 99.9166 36.0185 99.8111 36.0079 99.7025L35.9787 99.3748C35.9728 99.3201 35.9697 99.265 35.9694 99.21L35.9651 99.0433C35.9651 98.9328 35.9583 98.8204 35.9651 98.7124C35.9694 98.4915 35.9856 98.2823 36.0036 98.0763C36.0415 97.6681 36.098 97.2935 36.1458 96.942C36.1936 96.5906 36.2365 96.2672 36.2557 95.9757C36.2772 95.726 36.2706 95.4747 36.2359 95.2266C36.2202 95.1317 36.1974 95.0383 36.1676 94.9469C36.1553 94.9039 36.1393 94.8622 36.1197 94.8221C36.1127 94.8021 36.1046 94.7825 36.0955 94.7634C36.0856 94.7465 36.0756 94.729 36.0663 94.7109L36.0533 94.6841C36.0483 94.6753 36.0415 94.6672 36.0359 94.6585C36.0303 94.6498 36.0129 94.6242 36.003 94.6067C35.9788 94.5723 35.9508 94.5393 35.9253 94.5043C35.8634 94.4327 35.7959 94.3661 35.7235 94.3052C35.5508 94.1612 35.3594 94.0415 35.1546 93.9493C34.9206 93.8437 34.6765 93.7622 34.4261 93.7059C34.364 93.6884 34.2957 93.6797 34.2311 93.6653C34.1665 93.6509 34.0939 93.6472 34.0256 93.6372C33.8883 93.6129 33.748 93.6085 33.607 93.5979C33.5368 93.5891 33.466 93.5941 33.3952 93.5923C33.3244 93.5904 33.2524 93.5923 33.1816 93.5923L32.9667 93.6054L32.8586 93.611L32.7512 93.6241L32.5351 93.6491C32.4636 93.6603 32.3922 93.6753 32.3202 93.6878C32.1748 93.7077 32.0345 93.7502 31.8904 93.782L31.8364 93.7945L31.7836 93.8114L31.678 93.8438C31.6078 93.8663 31.5345 93.8838 31.4656 93.91L31.2563 93.988C31.2215 94.0012 31.1855 94.0124 31.1514 94.0274L31.0495 94.0723L30.8427 94.1622L30.6427 94.2652C30.5055 94.3276 30.3819 94.4125 30.249 94.4868C29.7297 94.8096 29.2644 95.2129 28.8703 95.6817C28.4648 96.1799 28.1378 96.7379 27.9008 97.3359C27.656 97.968 27.5041 98.6325 27.4499 99.3086C27.3995 100.02 27.4602 100.734 27.63 101.427C27.2228 100.797 26.9299 100.099 26.7649 99.3667C26.4976 98.1696 26.5563 96.9222 26.9346 95.7558C27.313 94.5893 27.9971 93.5469 28.915 92.7383C29.0765 92.6034 29.2336 92.4599 29.4069 92.3387L29.664 92.1515L29.9316 91.9804L30.067 91.8955C30.1117 91.8674 30.1596 91.8437 30.2055 91.8175L30.4862 91.6645C30.58 91.614 30.6787 91.5728 30.775 91.5272L30.921 91.4604L30.9936 91.4273L31.0688 91.398C31.2687 91.3218 31.4675 91.24 31.6749 91.1814C31.778 91.1502 31.8805 91.1189 31.9854 91.089L32.3009 91.0147L32.4593 90.9785L32.6201 90.9516L32.9431 90.9005C33.0511 90.8861 33.1604 90.8786 33.2691 90.8686C33.3778 90.8586 33.4871 90.8468 33.5977 90.8474C33.8183 90.8382 34.0393 90.8403 34.2597 90.8536C34.3709 90.8611 34.4802 90.8642 34.5926 90.8767C34.705 90.8892 34.8199 90.9011 34.9323 90.9211C35.3924 90.9934 35.843 91.1173 36.2756 91.2906C36.7383 91.4762 37.1715 91.7286 37.5618 92.0397C37.7699 92.2074 37.963 92.393 38.1387 92.5947C38.2257 92.7008 38.3126 92.8082 38.3928 92.9218L38.5083 93.0972C38.5269 93.1272 38.5462 93.1559 38.5642 93.1859L38.6151 93.2789L38.7145 93.4662C38.7468 93.5286 38.771 93.591 38.7989 93.6534C38.855 93.779 38.9032 93.9081 38.943 94.0399C39.0237 94.2939 39.0819 94.5546 39.1169 94.8189C39.1747 95.2901 39.1747 95.7667 39.1169 96.2379C39.0691 96.6686 38.9927 97.06 38.92 97.424C38.8474 97.7879 38.7704 98.1263 38.7145 98.4365C38.6878 98.5907 38.6623 98.7418 38.6455 98.8829C38.6337 98.9559 38.6312 99.0246 38.625 99.0951L38.6163 99.2006C38.6124 99.2361 38.6103 99.2717 38.6101 99.3074L38.6058 99.5227C38.6058 99.5951 38.6101 99.6694 38.6107 99.7425V99.853C38.6107 99.8898 38.617 99.9279 38.6201 99.9653L38.6387 100.191C38.6753 100.495 38.725 100.806 38.7958 101.124C38.8666 101.442 38.9498 101.765 39.0492 102.094C39.2411 102.751 39.4777 103.427 39.705 104.125C39.8193 104.471 39.9323 104.836 40.0342 105.199C40.136 105.562 40.2255 105.935 40.295 106.312C40.3149 106.405 40.3304 106.499 40.3453 106.594C40.3602 106.69 40.3776 106.782 40.39 106.878C40.413 107.07 40.4391 107.259 40.4521 107.452C40.4652 107.645 40.4733 107.837 40.4776 108.028C40.4776 108.124 40.4776 108.221 40.4726 108.317L40.4683 108.46C40.4683 108.508 40.4608 108.556 40.4571 108.604L40.4316 108.89L40.3875 109.174C40.3757 109.268 40.3528 109.361 40.3317 109.454L40.2994 109.592C40.2898 109.638 40.2777 109.684 40.2633 109.729L40.1789 109.998C40.1509 110.088 40.1106 110.173 40.0776 110.26L40.0249 110.389C40.0075 110.431 39.9839 110.472 39.9628 110.513L39.8373 110.758Z" fill="black"/>
<path d="M29.3075 101.778C26.8345 102.028 24.3752 102.161 22.0146 102.439C21.4246 102.512 20.839 102.584 20.262 102.679C19.972 102.72 19.6869 102.777 19.4 102.822L18.974 102.905L18.761 102.944L18.551 102.991L18.1318 103.08L17.7164 103.181C17.6474 103.198 17.5779 103.213 17.5089 103.23L17.3034 103.286L16.8922 103.396C16.6221 103.479 16.3482 103.551 16.0849 103.646C15.9514 103.69 15.816 103.73 15.6837 103.777L15.2875 103.918C15.1539 103.963 15.0254 104.017 14.895 104.068C14.7645 104.118 14.6329 104.166 14.5062 104.222C14.2509 104.333 13.992 104.437 13.7442 104.559L13.5578 104.647L13.4634 104.691L13.3715 104.739L13.0026 104.926C12.9405 104.956 12.8784 104.988 12.8213 105.025L12.6412 105.126C12.5213 105.194 12.3977 105.258 12.2835 105.333L11.9313 105.549C11.8152 105.623 11.7046 105.702 11.5898 105.778L11.4177 105.893C11.3606 105.932 11.3078 105.975 11.2525 106.018L10.9203 106.262L10.601 106.523L10.4402 106.654L10.2874 106.793L9.9769 107.07L9.83033 107.211L9.68812 107.354C9.31981 107.726 8.99839 108.141 8.73108 108.592C8.6057 108.808 8.50169 109.037 8.42056 109.274C8.40317 109.333 8.38143 109.392 8.36591 109.452C8.35038 109.512 8.33424 109.572 8.32119 109.633L8.28703 109.818L8.27462 109.905L8.26654 109.994C8.23559 110.517 8.3622 111.037 8.62985 111.486C8.77164 111.728 8.95623 111.942 9.17451 112.117C9.4087 112.302 9.68253 112.43 9.97442 112.491C9.65492 112.551 9.32587 112.531 9.01552 112.434C8.68867 112.332 8.38472 112.167 8.1206 111.948C7.84697 111.724 7.61159 111.457 7.42378 111.157C7.22667 110.844 7.08132 110.502 6.9934 110.143L6.96297 110.003L6.93813 109.86L6.90583 109.584C6.89838 109.492 6.8959 109.397 6.89217 109.306C6.88844 109.216 6.89217 109.119 6.89589 109.028C6.91419 108.659 6.97293 108.294 7.07103 107.939C7.26745 107.252 7.56581 106.6 7.95602 106.003L8.09886 105.786L8.24791 105.575C8.34976 105.438 8.45409 105.305 8.55843 105.171L8.71618 104.969L8.88386 104.778C8.99627 104.653 9.1093 104.523 9.22419 104.398L9.58626 104.039C9.64837 103.98 9.70675 103.918 9.77258 103.862L9.96386 103.694C10.0924 103.583 10.2185 103.468 10.3508 103.362L10.7532 103.05C10.8861 102.944 11.0271 102.851 11.1668 102.756L11.3761 102.613C11.4463 102.566 11.5165 102.518 11.5891 102.476L12.0239 102.215L12.1325 102.152L12.2437 102.093L12.4654 101.974C12.7604 101.811 13.0654 101.674 13.3691 101.533C13.5212 101.463 13.6796 101.404 13.8311 101.34C13.9826 101.276 14.1416 101.215 14.2969 101.16L14.7676 100.996C14.9248 100.943 15.0844 100.899 15.2427 100.851C15.5589 100.751 15.8812 100.679 16.201 100.601C16.3619 100.565 16.5233 100.534 16.6842 100.501L16.9264 100.452C17.0071 100.437 17.0879 100.426 17.1692 100.412L17.6549 100.337L18.1424 100.28L18.3858 100.253L18.6287 100.234L19.1131 100.2C19.436 100.188 19.7584 100.17 20.0794 100.173C20.7228 100.166 21.3607 100.2 21.9935 100.248C23.2455 100.358 24.4889 100.551 25.7154 100.827C26.924 101.087 28.1182 101.417 29.3075 101.778Z" fill="black"/>
<path d="M20.0011 108.352C18.3559 109.144 16.7673 109.92 15.2054 110.678L14.0384 111.244C13.649 111.432 13.2652 111.619 12.8963 111.802C12.1567 112.177 11.4679 112.552 10.8661 112.97C10.7165 113.076 10.5699 113.182 10.4314 113.294L10.3271 113.377L10.2289 113.465C10.196 113.494 10.16 113.522 10.129 113.55L10.0364 113.636C9.7868 113.865 9.55816 114.115 9.35328 114.385C8.9496 114.927 8.65025 115.527 8.53287 116.161L8.51549 116.281C8.50791 116.321 8.50273 116.361 8.49996 116.401L8.49002 116.526L8.48444 116.589V116.645C8.47964 116.805 8.49087 116.965 8.51797 117.123C8.65282 117.861 9.05508 118.523 9.64703 118.981C9.98848 119.241 10.3915 119.407 10.8165 119.463C10.368 119.653 9.87465 119.709 9.3955 119.624C8.88329 119.533 8.398 119.328 7.9758 119.023C7.53036 118.704 7.15564 118.295 6.87531 117.823C6.72757 117.573 6.6086 117.307 6.52069 117.031L6.48777 116.924L6.46169 116.821L6.41077 116.612C6.39275 116.542 6.38406 116.472 6.37226 116.401L6.33997 116.189C6.27714 115.621 6.31032 115.046 6.43809 114.49C6.56202 113.944 6.76124 113.419 7.02995 112.929C7.29468 112.446 7.6194 111.999 7.9963 111.598L8.13913 111.449C8.18695 111.4 8.2354 111.355 8.28384 111.309C8.33228 111.263 8.38072 111.217 8.42978 111.172L8.58007 111.042C8.78067 110.869 8.98996 110.711 9.20112 110.561C10.0544 109.967 10.9668 109.562 11.8611 109.26C12.3095 109.109 12.7547 108.984 13.1975 108.874C13.6404 108.764 14.09 108.668 14.5409 108.588C16.3423 108.264 18.1787 108.185 20.0011 108.352Z" fill="black"/>
<path d="M27.1213 112.368C26.1645 111.95 25.1132 111.799 24.0782 111.931C23.5827 111.991 23.0964 112.113 22.6305 112.293C22.1786 112.468 21.7513 112.701 21.3592 112.986C21.1694 113.125 20.9893 113.278 20.8202 113.441C20.6529 113.605 20.4964 113.78 20.3519 113.965C20.0513 114.343 19.7662 114.776 19.4278 115.233C19.2514 115.471 19.0632 115.701 18.8639 115.92C18.6492 116.153 18.416 116.369 18.1664 116.565C17.9212 116.758 17.6633 116.935 17.3945 117.093C17.2622 117.168 17.1299 117.247 16.997 117.314C16.9306 117.348 16.8635 117.384 16.797 117.417L16.5977 117.512C16.0654 117.762 15.5419 117.963 15.0395 118.155C14.7911 118.249 14.5426 118.342 14.3097 118.436C14.1899 118.482 14.0769 118.53 13.962 118.577C13.8471 118.624 13.7458 118.67 13.6409 118.72C13.2363 118.905 12.8515 119.131 12.4926 119.394L12.3684 119.489L12.2535 119.587L12.1951 119.636L12.1423 119.687L12.0367 119.787L11.9423 119.89L11.8945 119.941C11.8796 119.958 11.8672 119.976 11.8535 119.993L11.7703 120.096L11.7001 120.201L11.6641 120.252L11.6361 120.305L11.5778 120.408C11.5635 120.443 11.548 120.477 11.5324 120.512C11.525 120.529 11.515 120.545 11.5088 120.562L11.4927 120.615C11.4821 120.65 11.4678 120.683 11.4579 120.718C11.448 120.753 11.443 120.788 11.4343 120.822C11.4306 120.84 11.4244 120.856 11.4219 120.873L11.4163 120.924C11.4103 120.958 11.4066 120.992 11.4051 121.026C11.3947 121.169 11.4034 121.313 11.4312 121.454C11.4592 121.611 11.5055 121.765 11.5691 121.911C11.6357 122.069 11.7176 122.221 11.8138 122.363C11.9132 122.511 12.0247 122.649 12.1473 122.778C12.2749 122.907 12.4124 123.025 12.5584 123.132C12.7179 123.248 12.8851 123.352 13.059 123.445C13.7744 123.827 14.6662 124.069 15.6288 124.212C16.599 124.363 17.5798 124.433 18.5614 124.423C20.5438 124.402 22.5554 124.078 24.5396 123.559C26.5238 123.04 28.4882 122.305 30.4346 121.488C32.3809 120.672 34.3155 119.76 36.2624 118.877C34.5664 120.181 32.8467 121.461 31.0301 122.629C29.2136 123.797 27.2883 124.847 25.2209 125.656C24.1807 126.062 23.1142 126.396 22.0287 126.655C20.9271 126.921 19.8053 127.094 18.6751 127.173C17.5248 127.251 16.3696 127.217 15.2258 127.072C14.6328 127.002 14.0458 126.888 13.4695 126.731C13.1668 126.649 12.8685 126.551 12.5758 126.439C12.2717 126.323 11.9753 126.187 11.6883 126.033C11.3907 125.875 11.1051 125.694 10.8338 125.493C10.5503 125.282 10.2854 125.047 10.0419 124.79C9.54786 124.263 9.15983 123.645 8.8992 122.97C8.76302 122.619 8.6686 122.252 8.61787 121.878C8.56235 121.489 8.55963 121.094 8.6098 120.705C8.61849 120.606 8.64022 120.507 8.65885 120.409L8.68866 120.262C8.69922 120.213 8.71413 120.167 8.72779 120.119C8.75511 120.025 8.78306 119.932 8.81225 119.837C8.84144 119.742 8.88368 119.655 8.92032 119.564L8.97683 119.429C8.9967 119.385 9.0203 119.343 9.03893 119.3C9.08323 119.215 9.12837 119.13 9.17432 119.045C9.22401 118.965 9.27555 118.886 9.3271 118.807L9.40473 118.69L9.48857 118.58C9.54508 118.507 9.6016 118.434 9.65936 118.364L9.84008 118.165C9.87051 118.132 9.90219 118.098 9.93137 118.067L10.0258 117.977C10.0879 117.914 10.15 117.856 10.2171 117.798L10.4133 117.635L10.5121 117.555L10.612 117.48L10.8139 117.334L11.0188 117.201C11.5467 116.869 12.109 116.595 12.6956 116.385C12.8366 116.333 12.9807 116.286 13.1204 116.239C13.2602 116.193 13.3937 116.154 13.5272 116.114C13.7974 116.035 14.0576 115.965 14.316 115.895C14.8271 115.757 15.3189 115.628 15.7723 115.474L15.9419 115.415C15.9984 115.396 16.0518 115.374 16.1064 115.353C16.2182 115.313 16.3207 115.267 16.4281 115.223C16.6319 115.135 16.83 115.034 17.0212 114.921C17.209 114.81 17.3878 114.685 17.5559 114.546C17.7298 114.403 17.9044 114.239 18.082 114.061C18.4378 113.705 18.8049 113.293 19.2365 112.895C19.4569 112.691 19.691 112.502 19.937 112.33C20.1834 112.16 20.4416 112.008 20.7096 111.875C21.2346 111.617 21.7923 111.432 22.3672 111.325C22.9273 111.221 23.4985 111.192 24.0664 111.237C25.1861 111.331 26.2636 111.724 27.1213 112.368Z" fill="black"/>
<path d="M32.4587 121.084C38.0519 125.499 43.6823 129.67 49.4133 133.694C55.1443 137.718 60.9771 141.597 67.0199 145.368C53.1491 141.329 40.9974 132.791 32.4594 121.084H32.4587Z" fill="black"/>
</svg>
