<svg width="56" height="59" viewBox="0 0 56 59" fill="none" xmlns="http://www.w3.org/2000/svg">
<path fill-rule="evenodd" clip-rule="evenodd" d="M27.9979 0.5C28.8327 0.5 29.6333 0.828367 30.2236 1.41286C30.8139 1.99736 31.1456 2.79011 31.1456 3.61672V13.6235H36.0559C36.4715 13.6227 36.8779 13.7442 37.2237 13.9724C37.5695 14.2007 37.839 14.5255 37.9981 14.9056C38.1573 15.2857 38.1988 15.7041 38.1176 16.1076C38.0363 16.5112 37.8358 16.8818 37.5416 17.1724L29.4836 25.1511C29.2887 25.3446 29.0571 25.4982 28.8022 25.6029C28.5472 25.7077 28.2739 25.7616 27.9979 25.7616C27.7219 25.7616 27.4486 25.7077 27.1936 25.6029C26.9387 25.4982 26.7071 25.3446 26.5122 25.1511L18.4542 17.1724C18.1602 16.882 17.9599 16.5118 17.8785 16.1087C17.797 15.7055 17.8382 15.2875 17.9969 14.9075C18.1555 14.5276 18.4244 14.2028 18.7695 13.9742C19.1146 13.7456 19.5205 13.6235 19.9357 13.6235H24.8502V3.61672C24.8502 2.79011 25.1819 1.99736 25.7722 1.41286C26.3625 0.828367 27.1631 0.5 27.9979 0.5ZM7.37448 17.6627H12.864C13.1997 18.8388 13.8293 19.94 14.7442 20.8459L22.8022 28.8247C23.4842 29.5001 24.2939 30.0358 25.185 30.4013C26.0761 30.7669 27.0312 30.955 27.9958 30.955C28.9604 30.955 29.9155 30.7669 30.8066 30.4013C31.6977 30.0358 32.5074 29.5001 33.1894 28.8247L41.2516 20.8459C42.1665 19.94 42.8003 18.8388 43.1318 17.6586H48.6213C52.4195 17.6586 55.5 20.7088 55.5 24.4655V25.0722L27.9979 40.9383L0.5 25.0722V24.4655C0.5 20.7088 3.57631 17.6627 7.37448 17.6627ZM0.5 31.0812V51.6931C0.5 55.4539 3.57631 58.5 7.37448 58.5H48.6213C52.4195 58.5 55.5 55.4539 55.5 51.6931V31.0812L29.3199 46.1869C28.918 46.4167 28.462 46.5377 27.9979 46.5377C27.5338 46.5377 27.0778 46.4167 26.6759 46.1869L0.5 31.0812Z" fill="#443F91"/>
</svg>
