<svg width="51" height="67" viewBox="0 0 51 67" fill="none" xmlns="http://www.w3.org/2000/svg">
<path d="M25.5 0.5C21.2731 0.5 17.2193 2.15561 14.2305 5.10261C11.2416 8.04961 9.5625 12.0466 9.5625 16.2143V22.5H6.375C4.68424 22.5 3.06274 23.1622 1.86719 24.341C0.67165 25.5198 0 27.1186 0 28.7857V60.2143C0 61.8814 0.67165 63.4802 1.86719 64.659C3.06274 65.8378 4.68424 66.5 6.375 66.5H44.625C46.3158 66.5 47.9373 65.8378 49.1328 64.659C50.3284 63.4802 51 61.8814 51 60.2143V28.7857C51 27.1186 50.3284 25.5198 49.1328 24.341C47.9373 23.1622 46.3158 22.5 44.625 22.5H41.4375V16.2143C41.4375 14.1507 41.0253 12.1072 40.2243 10.2007C39.4234 8.29414 38.2494 6.56181 36.7695 5.10261C35.2896 3.6434 33.5326 2.4859 31.599 1.69618C29.6654 0.906462 27.5929 0.5 25.5 0.5ZM25.5 6.47143C30.9506 6.47143 35.3813 10.84 35.3813 16.2143V22.5H15.6187V16.2143C15.6187 10.84 20.0494 6.47143 25.5 6.47143ZM26.1056 30.3571C29.1019 30.3571 31.4925 31.0171 33.2137 32.3057C34.935 33.6257 35.7956 35.3857 35.7956 37.5857C35.7956 38.9686 35.3175 40.1943 34.3931 41.3571C33.4688 42.4886 32.2575 43.3686 30.7913 44.0286C29.9625 44.5 29.4206 44.9714 29.1338 45.5057C28.8469 46.0714 28.6875 46.7629 28.6875 47.6429H22.3125C22.3125 46.0714 22.6313 45.0029 23.2369 44.2486C23.9062 43.4943 24.99 42.6143 26.6475 41.6086C27.4762 41.1686 28.1456 40.6029 28.6875 39.9114C29.1338 39.2514 29.3888 38.4657 29.3888 37.5857C29.3888 36.6429 29.1019 35.9514 28.5281 35.4171C27.9544 34.8514 27.0937 34.6 26.1056 34.6C25.245 34.6 24.5438 34.82 23.9062 35.26C23.3962 35.7 23.0775 36.36 23.0775 37.24H16.7981C16.6388 35.0714 17.5312 33.1857 19.2844 32.0543C21.0056 30.9229 23.2687 30.3571 26.1056 30.3571ZM22.3125 50.7857H28.6875V57.0714H22.3125V50.7857Z" fill="#443F91"/>
</svg>
