<svg width="61" height="61" viewBox="0 0 61 61" fill="none" xmlns="http://www.w3.org/2000/svg">
<g clip-path="url(#clip0_205_169)">
<path d="M44.7333 44.7333H40.6667V40.6666H44.7333V44.7333ZM32.5333 44.7333H36.6V40.6666H32.5333V44.7333ZM52.8667 44.7333H48.8V40.6666H52.8667V44.7333Z" fill="#443F91"/>
<path fill-rule="evenodd" clip-rule="evenodd" d="M12.2 24.4V14.2333C12.2 12.3642 12.5682 10.5133 13.2834 8.78647C13.9987 7.05961 15.0472 5.49053 16.3688 4.16885C17.6905 2.84716 19.2596 1.79874 20.9865 1.08345C22.7133 0.368156 24.5642 0 26.4333 0C28.3025 0 30.1533 0.368156 31.8802 1.08345C33.6071 1.79874 35.1761 2.84716 36.4978 4.16885C37.8195 5.49053 38.8679 7.05961 39.5832 8.78647C40.2985 10.5133 40.6667 12.3642 40.6667 14.2333V24.4H46.7667C48.3845 24.4 49.936 25.0427 51.08 26.1866C52.224 27.3306 52.8667 28.8822 52.8667 30.5V32.7367C55.1649 33.2033 57.2312 34.4502 58.7153 36.266C60.1994 38.0818 61.0102 40.3548 61.0102 42.7C61.0102 45.0452 60.1994 47.3182 58.7153 49.134C57.2312 50.9498 55.1649 52.1967 52.8667 52.6633V54.9C52.8667 56.5178 52.224 58.0694 51.08 59.2134C49.936 60.3573 48.3845 61 46.7667 61H6.1C4.48218 61 2.93062 60.3573 1.78665 59.2134C0.642677 58.0694 0 56.5178 0 54.9L0 30.5C0 28.8822 0.642677 27.3306 1.78665 26.1866C2.93062 25.0427 4.48218 24.4 6.1 24.4H12.2ZM16.2667 14.2333C16.2667 11.537 17.3378 8.95103 19.2444 7.04441C21.151 5.13779 23.737 4.06667 26.4333 4.06667C29.1297 4.06667 31.7156 5.13779 33.6223 7.04441C35.5289 8.95103 36.6 11.537 36.6 14.2333V24.4H16.2667V14.2333ZM34.5667 36.6C32.9488 36.6 31.3973 37.2427 30.2533 38.3866C29.1093 39.5306 28.4667 41.0822 28.4667 42.7C28.4667 44.3178 29.1093 45.8694 30.2533 47.0134C31.3973 48.1573 32.9488 48.8 34.5667 48.8H50.8333C52.4512 48.8 54.0027 48.1573 55.1467 47.0134C56.2907 45.8694 56.9333 44.3178 56.9333 42.7C56.9333 41.0822 56.2907 39.5306 55.1467 38.3866C54.0027 37.2427 52.4512 36.6 50.8333 36.6H34.5667Z" fill="#443F91"/>
</g>
<defs>
<clipPath id="clip0_205_169">
<rect width="61" height="61" fill="white"/>
</clipPath>
</defs>
</svg>
