<svg width="18" height="18" viewBox="0 0 18 18" fill="none" xmlns="http://www.w3.org/2000/svg">
<path d="M17.7013 10.4753C17.5705 10.3443 17.4065 10.2513 17.227 10.2064C17.0474 10.1615 16.8589 10.1664 16.6819 10.2205C15.4452 10.5937 14.1303 10.6246 12.8774 10.3098C11.6245 9.99506 10.4804 9.3464 9.56711 8.43294C8.6538 7.51948 8.00542 6.37544 7.69104 5.12269C7.37666 3.86993 7.40806 2.55539 7.78189 1.31906C7.83643 1.14199 7.84165 0.953401 7.797 0.773581C7.75235 0.593761 7.65951 0.429513 7.52846 0.298501C7.39742 0.16749 7.23314 0.0746708 7.05328 0.0300274C6.87342 -0.0146161 6.68479 -0.00939506 6.50767 0.045129C4.64765 0.616697 3.01536 1.76032 1.84318 3.3132C0.818112 4.67536 0.193004 6.29617 0.0379966 7.99375C-0.117011 9.69133 0.204214 11.3985 0.965629 12.9237C1.72704 14.449 2.89852 15.7319 4.34861 16.6285C5.7987 17.5252 7.47002 18.0001 9.17504 18C11.1657 18.0058 13.1033 17.3587 14.6907 16.1579C16.2431 14.9848 17.3858 13.3519 17.9561 11.4919C18.0097 11.3152 18.0143 11.1273 17.9694 10.9483C17.9245 10.7692 17.8319 10.6057 17.7013 10.4753ZM13.4641 14.5298C12.09 15.5639 10.3886 16.0671 8.67299 15.9468C6.95735 15.8264 5.34291 15.0906 4.12678 13.8748C2.91065 12.6589 2.17468 11.0448 2.0543 9.32957C1.93392 7.61431 2.43724 5.91329 3.47163 4.53957C4.01592 3.81977 4.69047 3.20846 5.46026 2.73738C5.44497 2.9548 5.43733 3.17306 5.43733 3.39218C5.44003 5.824 6.40748 8.15545 8.12742 9.87502C9.84737 11.5946 12.1793 12.5618 14.6117 12.5645C14.8309 12.5645 15.0492 12.5569 15.2667 12.5416C14.7957 13.3114 14.1842 13.9858 13.4641 14.5298Z" fill="#443F91"/>
</svg>
