<svg width="37" height="36" viewBox="0 0 37 36" fill="none" xmlns="http://www.w3.org/2000/svg">
<path d="M16.8636 8.18182C16.8636 9.80003 16.3838 11.3819 15.4848 12.7274C14.5857 14.0729 13.3079 15.1216 11.8129 15.7408C10.3178 16.3601 8.67274 16.5221 7.08563 16.2064C5.49851 15.8907 4.04065 15.1115 2.8964 13.9672C1.75215 12.823 0.972912 11.3651 0.657215 9.77801C0.341518 8.1909 0.503545 6.54581 1.12281 5.05077C1.74207 3.55574 2.79075 2.27792 4.13625 1.37889C5.48174 0.479859 7.06361 3.64239e-06 8.68182 3.64239e-06C10.8518 3.64239e-06 12.9328 0.862014 14.4672 2.3964C16.0016 3.93079 16.8636 6.01187 16.8636 8.18182ZM28.3182 16.3636C29.9364 16.3636 31.5183 15.8838 32.8638 14.9848C34.2092 14.0857 35.2579 12.8079 35.8772 11.3129C36.4965 9.81783 36.6585 8.17274 36.3428 6.58563C36.0271 4.99851 35.2478 3.54065 34.1036 2.3964C32.9594 1.25215 31.5015 0.472912 29.9144 0.157215C28.3273 -0.158482 26.6822 0.00354505 25.1871 0.622807C23.6921 1.24207 22.4143 2.29075 21.5152 3.63625C20.6162 4.98174 20.1364 6.56361 20.1364 8.18182C20.1364 10.3518 20.9984 12.4328 22.5328 13.9672C24.0671 15.5016 26.1482 16.3636 28.3182 16.3636ZM8.68182 19.6364C7.06361 19.6364 5.48174 20.1162 4.13625 21.0152C2.79075 21.9143 1.74207 23.1921 1.12281 24.6871C0.503545 26.1822 0.341518 27.8273 0.657215 29.4144C0.972912 31.0015 1.75215 32.4594 2.8964 33.6036C4.04065 34.7478 5.49851 35.5271 7.08563 35.8428C8.67274 36.1585 10.3178 35.9965 11.8129 35.3772C13.3079 34.7579 14.5857 33.7092 15.4848 32.3638C16.3838 31.0183 16.8636 29.4364 16.8636 27.8182C16.8636 25.6482 16.0016 23.5671 14.4672 22.0328C12.9328 20.4984 10.8518 19.6364 8.68182 19.6364ZM34.8636 26.1818H29.9545V21.2727C29.9545 20.8387 29.7821 20.4225 29.4753 20.1156C29.1684 19.8088 28.7522 19.6364 28.3182 19.6364C27.8842 19.6364 27.468 19.8088 27.1611 20.1156C26.8542 20.4225 26.6818 20.8387 26.6818 21.2727V26.1818H21.7727C21.3387 26.1818 20.9225 26.3542 20.6156 26.6611C20.3088 26.968 20.1364 27.3842 20.1364 27.8182C20.1364 28.2522 20.3088 28.6684 20.6156 28.9753C20.9225 29.2821 21.3387 29.4545 21.7727 29.4545H26.6818V34.3636C26.6818 34.7976 26.8542 35.2138 27.1611 35.5207C27.468 35.8276 27.8842 36 28.3182 36C28.7522 36 29.1684 35.8276 29.4753 35.5207C29.7821 35.2138 29.9545 34.7976 29.9545 34.3636V29.4545H34.8636C35.2976 29.4545 35.7138 29.2821 36.0207 28.9753C36.3276 28.6684 36.5 28.2522 36.5 27.8182C36.5 27.3842 36.3276 26.968 36.0207 26.6611C35.7138 26.3542 35.2976 26.1818 34.8636 26.1818Z" fill="#1F1F1F"/>
</svg>
