<svg width="18" height="15" viewBox="0 0 18 15" fill="none" xmlns="http://www.w3.org/2000/svg">
<path d="M11.863 3.55182C11.3102 3.55151 10.7599 3.62067 10.227 3.75744C10.0166 3.43727 9.76103 3.14493 9.46712 2.88828L10.2351 1.86623C10.2837 1.80139 10.3182 1.72825 10.3366 1.65098C10.355 1.57371 10.3568 1.49382 10.3421 1.41587C10.3274 1.33793 10.2963 1.26345 10.2507 1.1967C10.2051 1.12994 10.1459 1.07222 10.0764 1.02682C10.0069 0.981421 9.92846 0.949237 9.84561 0.932105C9.76276 0.914973 9.67711 0.913229 9.59354 0.926971C9.50997 0.940714 9.43012 0.969675 9.35855 1.0122C9.28699 1.05473 9.2251 1.10998 9.17642 1.17482L8.40849 2.19612C7.77699 1.89872 7.07939 1.74392 6.37197 1.74421C6.32513 1.74421 6.2783 1.74421 6.23146 1.74421L5.99809 0.5173C5.98585 0.437356 5.95649 0.360523 5.91178 0.291369C5.86707 0.222215 5.8079 0.162149 5.73781 0.114743C5.66772 0.0673366 5.58812 0.0335563 5.50375 0.0154094C5.41938 -0.00273737 5.33196 -0.00488038 5.24669 0.00910785C5.16142 0.0230961 5.08003 0.05293 5.00736 0.0968368C4.93469 0.140744 4.87223 0.197827 4.82369 0.264695C4.77514 0.331564 4.7415 0.406852 4.72477 0.486086C4.70803 0.56532 4.70855 0.646883 4.72628 0.725928L4.95884 1.95661C4.24239 2.17763 3.59648 2.56209 3.07978 3.07506L1.97996 2.35729C1.91051 2.31078 1.83184 2.27759 1.74853 2.25965C1.66522 2.2417 1.57891 2.23936 1.49462 2.25277C1.41033 2.26617 1.32974 2.29505 1.2575 2.33772C1.18527 2.3804 1.12284 2.43603 1.07383 2.50138C1.02482 2.56673 0.99021 2.64051 0.972002 2.71843C0.953795 2.79635 0.952354 2.87687 0.967763 2.95532C0.983172 3.03376 1.01512 3.10858 1.06177 3.17542C1.10841 3.24226 1.16882 3.2998 1.23948 3.3447L2.33446 4.06172C2.01448 4.65061 1.84845 5.30177 1.84995 5.96196C1.84995 6.00489 1.84995 6.04858 1.84995 6.09151L0.534533 6.30842C0.375315 6.33444 0.232339 6.41518 0.133829 6.53471C0.0353182 6.65425 -0.0115674 6.80388 0.00242685 6.95408C0.0164211 7.10428 0.0902785 7.24413 0.209419 7.34603C0.32856 7.44792 0.484326 7.50445 0.645968 7.50446C0.683589 7.50441 0.721138 7.50138 0.758211 7.49542L2.07605 7.2785C2.19184 7.60732 2.35078 7.92151 2.54925 8.21394C1.93134 8.74927 1.50057 9.44573 1.31305 10.2126C1.12552 10.9795 1.18992 11.7813 1.49786 12.5136C1.8058 13.2459 2.34302 13.8747 3.03954 14.3182C3.73607 14.7617 4.55963 14.9993 5.40296 15H11.863C13.4906 15 15.0516 14.3969 16.2025 13.3235C17.3534 12.25 18 10.794 18 9.27591C18 7.75779 17.3534 6.30184 16.2025 5.22837C15.0516 4.15489 13.4906 3.55182 11.863 3.55182ZM3.14196 5.96196C3.14234 5.32392 3.3599 4.70247 3.76328 4.18716C4.16667 3.67185 4.73504 3.2893 5.38649 3.09463C6.03795 2.89996 6.73884 2.90323 7.38818 3.10397C8.03751 3.30471 8.60175 3.69255 8.99958 4.2116C7.68181 4.85842 6.65996 5.92871 6.12326 7.22428C5.27404 7.08755 4.40029 7.19718 3.62 7.53835C3.3076 7.06416 3.14213 6.51852 3.14196 5.96196ZM11.863 13.7949H5.40296C5.00537 13.7942 4.61215 13.7175 4.24762 13.5694C3.8831 13.4214 3.55501 13.2051 3.28365 12.9341C3.01228 12.663 2.80342 12.343 2.66996 11.9936C2.5365 11.6443 2.48129 11.2732 2.50775 10.9031C2.5342 10.5331 2.64175 10.1721 2.82374 9.84238C3.00574 9.51267 3.25832 9.22129 3.56586 8.98625C3.8734 8.75121 4.22936 8.57751 4.61174 8.47589C4.99412 8.37427 5.39478 8.3469 5.78895 8.39545C5.75907 8.57396 5.73808 8.75622 5.72677 8.94C5.71692 9.0998 5.77553 9.25671 5.88972 9.3762C6.0039 9.4957 6.1643 9.56799 6.33563 9.57718C6.50696 9.58637 6.67519 9.5317 6.8033 9.4252C6.93142 9.3187 7.00893 9.16909 7.01878 9.00929C7.0369 8.70876 7.08777 8.41072 7.17059 8.11979C7.17059 8.10774 7.17786 8.09569 7.18028 8.08364C7.41772 7.2698 7.89437 6.53409 8.55642 5.95957C9.21847 5.38505 10.0395 4.99462 10.9269 4.83236C11.8143 4.67009 12.7327 4.74246 13.5783 5.0413C14.4239 5.34013 15.1631 5.85352 15.7124 6.5235C16.2618 7.19348 16.5993 7.99336 16.687 8.83282C16.7747 9.67228 16.609 10.5179 16.2086 11.2742C15.8082 12.0304 15.1891 12.6672 14.4213 13.1127C13.6534 13.5581 12.7673 13.7944 11.863 13.7949Z" fill="black"/>
</svg>
