<svg width="15" height="15" viewBox="0 0 15 15" fill="none" xmlns="http://www.w3.org/2000/svg">
<path d="M14.8287 8.98524C14.7533 8.9096 14.6586 8.85595 14.555 8.83003C14.4513 8.80411 14.3426 8.80691 14.2404 8.83813C13.1186 9.17734 11.9258 9.20579 10.789 8.92042C9.65234 8.63506 8.61433 8.04659 7.78563 7.21772C6.95692 6.38884 6.36857 5.35062 6.08327 4.21368C5.79797 3.07674 5.82641 1.88368 6.16555 0.761623C6.19702 0.659381 6.20004 0.55049 6.17427 0.446663C6.14849 0.342836 6.09491 0.248 6.01928 0.172354C5.94365 0.096708 5.84884 0.0431147 5.74503 0.0173377C5.64122 -0.00843929 5.53236 -0.00542465 5.43013 0.0260573C3.87917 0.501266 2.51756 1.45364 1.53906 2.74765C0.683345 3.88399 0.161379 5.23649 0.0318067 6.65319C-0.0977656 8.06989 0.170189 9.49466 0.805567 10.7674C1.44095 12.0402 2.41857 13.1106 3.62862 13.8582C4.83866 14.6059 6.23318 15.0013 7.6555 15C9.31484 15.0051 10.93 14.4655 12.2533 13.4641C13.547 12.4854 14.4992 11.1235 14.9743 9.57223C15.0054 9.47037 15.0083 9.36197 14.9827 9.25859C14.957 9.15522 14.9038 9.06075 14.8287 8.98524ZM11.5458 12.5241C10.2997 13.4628 8.75648 13.9198 7.20024 13.8108C5.644 13.7018 4.17949 13.0342 3.07633 11.9309C1.97316 10.8276 1.30558 9.36283 1.19649 7.80628C1.08739 6.24972 1.54412 4.70614 2.4826 3.45968C3.09402 2.65207 3.88449 1.99741 4.7918 1.54721C4.74011 1.91001 4.71406 2.276 4.71384 2.64246C4.71598 4.67068 5.52247 6.61521 6.95634 8.04938C8.39021 9.48355 10.3343 10.2902 12.3621 10.2923C12.7293 10.2922 13.0959 10.2662 13.4594 10.2144C13.0089 11.122 12.3538 11.9127 11.5458 12.5241Z" fill="black"/>
</svg>
