<svg width="37" height="36" viewBox="0 0 37 36" fill="none" xmlns="http://www.w3.org/2000/svg">
<g clip-path="url(#clip0_137_764)">
<path fill-rule="evenodd" clip-rule="evenodd" d="M26.762 6.52633C24.4697 4.87645 21.7358 3.95083 18.9127 3.86875C16.0895 3.78667 13.3065 4.5519 10.9222 6.06581C8.53786 7.57973 6.66154 9.77297 5.53499 12.3629C4.40844 14.9528 4.08329 17.8208 4.60143 20.5972C4.6868 21.096 4.57268 21.6084 4.2837 22.0238C3.99473 22.4392 3.55404 22.7244 3.05669 22.8179C2.55934 22.9114 2.04518 22.8056 1.6251 22.5234C1.20502 22.2412 0.912686 21.8052 0.811146 21.3095C0.141046 17.7233 0.576663 14.0181 2.06025 10.6851C3.54384 7.35205 6.00534 4.54862 9.11846 2.6464C12.2316 0.744166 15.8493 -0.167032 19.4921 0.0335871C23.1348 0.234206 26.6306 1.53717 29.516 3.76975L31.0897 2.19604C31.2694 2.01592 31.4984 1.89315 31.7479 1.84327C31.9974 1.79339 32.256 1.81864 32.4911 1.91582C32.7263 2.013 32.9273 2.17775 33.0687 2.38921C33.2101 2.60068 33.2857 2.84935 33.2857 3.10375V9.00004C33.2857 9.34103 33.1503 9.66806 32.9091 9.90918C32.668 10.1503 32.341 10.2858 32 10.2858H26.1037C25.8498 10.2852 25.6018 10.2095 25.3909 10.0682C25.18 9.92686 25.0156 9.72626 24.9186 9.49168C24.8215 9.2571 24.796 8.99902 24.8454 8.74999C24.8948 8.50096 25.0168 8.27212 25.196 8.09233L26.762 6.52633ZM33.9389 13.1529C34.4415 13.0581 34.9612 13.1669 35.3836 13.4552C35.806 13.7436 36.0966 14.188 36.1914 14.6906C36.8621 18.2773 36.4267 21.983 34.9431 25.3166C33.4594 28.6502 30.9976 31.454 27.8839 33.3564C24.7703 35.2588 21.152 36.1698 17.5087 35.9687C13.8654 35.7676 10.3693 34.4638 7.484 32.2303L5.91029 33.8066C5.73047 33.9869 5.50117 34.1097 5.25147 34.1595C5.00176 34.2093 4.74289 34.1838 4.50767 34.0863C4.27245 33.9888 4.07148 33.8237 3.93024 33.6118C3.78899 33.4 3.71383 33.151 3.71429 32.8963V27C3.71429 26.659 3.84975 26.332 4.09087 26.0909C4.33198 25.8498 4.65901 25.7143 5 25.7143H10.8963C11.1509 25.7139 11.3999 25.789 11.6118 25.9303C11.8237 26.0715 11.9888 26.2725 12.0863 26.5077C12.1838 26.7429 12.2093 27.0018 12.1595 27.2515C12.1097 27.5012 11.9868 27.7305 11.8066 27.9103L10.238 29.4763C12.5303 31.1262 15.2642 32.0518 18.0874 32.1339C20.9105 32.216 23.6935 31.4508 26.0778 29.9368C28.4621 28.4229 30.3385 26.2297 31.465 23.6398C32.5916 21.0498 32.9167 18.1819 32.3986 15.4055C32.3517 15.1562 32.3544 14.9002 32.4066 14.652C32.4588 14.4038 32.5595 14.1684 32.7028 13.9592C32.8461 13.7499 33.0293 13.571 33.2418 13.4327C33.4544 13.2943 33.6921 13.1992 33.9414 13.1529H33.9389ZM20.1123 9.40375C20.1123 8.89227 19.9091 8.40173 19.5474 8.04005C19.1857 7.67837 18.6952 7.47518 18.1837 7.47518C17.6722 7.47518 17.1817 7.67837 16.82 8.04005C16.4583 8.40173 16.2551 8.89227 16.2551 9.40375V10.2858C15.2498 10.4521 14.3339 10.9636 13.665 11.7323C12.9961 12.501 12.616 13.4788 12.5901 14.4974C12.5642 15.5161 12.8942 16.5119 13.5232 17.3136C14.1522 18.1152 15.041 18.6726 16.0366 18.8898L19.2766 19.5969C19.4687 19.6456 19.6368 19.7621 19.7499 19.9248C19.8631 20.0876 19.9136 20.2857 19.8924 20.4828C19.8711 20.6799 19.7794 20.8626 19.6341 20.9975C19.4889 21.1324 19.2998 21.2103 19.1017 21.2169H17.2657C17.0967 21.2163 16.932 21.1636 16.794 21.066C16.656 20.9685 16.5513 20.8308 16.4943 20.6718C16.4099 20.4328 16.2792 20.2129 16.1098 20.0245C15.9404 19.8361 15.7355 19.6829 15.5069 19.5736C15.2782 19.4644 15.0303 19.4012 14.7773 19.3878C14.5243 19.3744 14.2711 19.4109 14.0321 19.4953C13.7932 19.5797 13.5733 19.7104 13.3849 19.8798C13.1965 20.0492 13.0432 20.2541 12.934 20.4828C12.8248 20.7114 12.7616 20.9593 12.7482 21.2123C12.7348 21.4654 12.7713 21.7186 12.8557 21.9575C13.1203 22.7059 13.5709 23.3747 14.1651 23.901C14.7594 24.4273 15.4777 24.7938 16.2526 24.966V25.8969C16.2526 26.4084 16.4558 26.8989 16.8174 27.2606C17.1791 27.6223 17.6697 27.8255 18.1811 27.8255C18.6926 27.8255 19.1832 27.6223 19.5449 27.2606C19.9065 26.8989 20.1097 26.4084 20.1097 25.8969V24.966C21.1484 24.7332 22.0768 24.1533 22.7415 23.3219C23.4063 22.4904 23.7677 21.4572 23.7662 20.3927C23.7647 19.3282 23.4004 18.2961 22.7333 17.4665C22.0662 16.637 21.1362 16.0596 20.0969 15.8298L16.8569 15.12C16.7311 15.0917 16.6203 15.018 16.5454 14.9132C16.4705 14.8083 16.4368 14.6795 16.4508 14.5514C16.4648 14.4233 16.5254 14.3048 16.6212 14.2185C16.717 14.1323 16.8411 14.0843 16.97 14.0838H19.0991C19.2681 14.0844 19.4329 14.1371 19.5709 14.2346C19.7089 14.3321 19.8135 14.4698 19.8706 14.6289C20.0411 15.1114 20.3963 15.5064 20.858 15.727C21.0866 15.8363 21.3345 15.8994 21.5876 15.9129C21.8406 15.9263 22.0938 15.8897 22.3327 15.8053C22.5716 15.7209 22.7916 15.5903 22.98 15.4208C23.1684 15.2514 23.3216 15.0465 23.4309 14.8179C23.5401 14.5893 23.6032 14.3414 23.6167 14.0883C23.6301 13.8353 23.5936 13.5821 23.5091 13.3432C23.2443 12.5945 22.7933 11.9255 22.1986 11.3991C21.6039 10.8728 20.8851 10.5065 20.1097 10.3346V9.4089L20.1123 9.40375Z" fill="#443F91"/>
</g>
<defs>
<clipPath id="clip0_137_764">
<rect width="36" height="36" fill="white" transform="translate(0.5)"/>
</clipPath>
</defs>
</svg>
