<svg width="37" height="36" viewBox="0 0 37 36" fill="none" xmlns="http://www.w3.org/2000/svg">
<g clip-path="url(#clip0_137_747)">
<path d="M32.324 24.6451C32.2571 24.5776 32.1774 24.5239 32.0896 24.4873C32.0018 24.4507 31.9076 24.4318 31.8125 24.4318C31.7174 24.4318 31.6232 24.4507 31.5354 24.4873C31.4476 24.5239 31.368 24.5776 31.301 24.6451L28.421 27.5251C28.3165 27.6249 28.2453 27.7544 28.2168 27.8961C28.1884 28.0378 28.2042 28.1847 28.262 28.3171C28.3178 28.4474 28.4101 28.5588 28.5277 28.6378C28.6453 28.7168 28.7833 28.7602 28.925 28.7626H29.732C29.7925 28.7649 29.8514 28.7818 29.9039 28.8119C29.9564 28.8419 30.0009 28.8842 30.0335 28.9351C30.0661 28.9843 30.0835 29.0419 30.0835 29.1009C30.0835 29.1598 30.0661 29.2175 30.0335 29.2666C29.5307 30.2538 28.7538 31.0751 27.796 31.6319C26.8382 32.1888 25.7402 32.4576 24.6335 32.4061C24.2516 32.4061 23.8853 32.5578 23.6153 32.8279C23.3452 33.0979 23.1935 33.4642 23.1935 33.8461C23.1935 34.228 23.3452 34.5943 23.6153 34.8644C23.8853 35.1344 24.2516 35.2861 24.6335 35.2861C28.9535 35.2861 32.468 32.5651 33.1295 29.0656C33.1489 28.9844 33.1948 28.9119 33.26 28.8598C33.3252 28.8076 33.406 28.7787 33.4895 28.7776H34.7C34.8428 28.779 34.9826 28.737 35.101 28.6572C35.2194 28.5774 35.3108 28.4635 35.363 28.3306C35.4196 28.2005 35.4348 28.056 35.4063 27.917C35.3778 27.778 35.3072 27.6511 35.204 27.5536L32.324 24.6451ZM3.96651 11.3221C4.09851 11.4586 4.28151 11.5321 4.47051 11.5246C4.56396 11.5276 4.65702 11.5112 4.74378 11.4763C4.83054 11.4414 4.90911 11.3889 4.97451 11.3221L7.85451 8.44213C7.95396 8.34067 8.02118 8.21205 8.04769 8.07247C8.0742 7.9329 8.05883 7.78859 8.0035 7.65774C7.94817 7.52688 7.85537 7.41531 7.73677 7.33709C7.61817 7.25886 7.47908 7.21747 7.33701 7.21813H6.53001C6.47077 7.21732 6.41256 7.2025 6.36015 7.17486C6.30775 7.14722 6.26263 7.10756 6.22851 7.05913C6.2009 7.00582 6.18648 6.94666 6.18648 6.88663C6.18648 6.82659 6.2009 6.76743 6.22851 6.71413C6.73644 5.72982 7.51739 4.91284 8.4778 4.36107C9.43822 3.8093 10.5373 3.54614 11.6435 3.60313C12.0254 3.60313 12.3917 3.45141 12.6617 3.18136C12.9318 2.91131 13.0835 2.54504 13.0835 2.16313C13.0835 1.78121 12.9318 1.41494 12.6617 1.14489C12.3917 0.874839 12.0254 0.723126 11.6435 0.723126C9.72936 0.633124 7.84213 1.20148 6.29603 2.33356C4.74992 3.46565 3.63822 5.09315 3.14601 6.94513C3.12664 7.02636 3.08071 7.09881 3.0155 7.15098C2.95028 7.20315 2.86952 7.23206 2.78601 7.23313H1.57701C1.43487 7.23364 1.29605 7.27622 1.17807 7.3555C1.06008 7.43478 0.968204 7.54721 0.914012 7.67863C0.860087 7.8116 0.846267 7.95745 0.874254 8.09819C0.902242 8.23893 0.970814 8.3684 1.07151 8.47063L3.96651 11.3221ZM15.6185 22.3261C15.6146 22.0409 15.4996 21.7684 15.2979 21.5667C15.0962 21.365 14.8237 21.25 14.5385 21.2461H10.9385C10.843 21.2461 10.7515 21.2841 10.684 21.3516C10.6164 21.4191 10.5785 21.5106 10.5785 21.6061V23.0461C10.5785 23.2441 10.739 23.4061 10.9385 23.4061H14.5385C14.8237 23.4022 15.0962 23.2872 15.2979 23.0855C15.4996 22.8838 15.6146 22.6114 15.6185 22.3261ZM14.537 25.5511H10.937C10.8897 25.5511 10.8429 25.5604 10.7992 25.5785C10.7556 25.5966 10.7159 25.6231 10.6825 25.6566C10.649 25.69 10.6225 25.7297 10.6044 25.7734C10.5863 25.817 10.577 25.8638 10.577 25.9111V27.3511C10.577 27.5506 10.739 27.7111 10.937 27.7111H14.537C14.8234 27.7111 15.0981 27.5973 15.3007 27.3948C15.5032 27.1923 15.617 26.9176 15.617 26.6311C15.617 26.3447 15.5032 26.07 15.3007 25.8674C15.0981 25.6649 14.8234 25.5511 14.537 25.5511Z" fill="#F5A623"/>
<path d="M12.737 13.6843C4.42251 13.6843 -0.77349 22.6843 3.38301 29.8843C7.53951 37.0843 17.933 37.0873 22.091 29.8858C23.0391 28.244 23.5383 26.3816 23.5385 24.4858C23.531 21.6236 22.3908 18.8808 20.367 16.8568C18.3433 14.8328 15.6007 13.6922 12.7385 13.6843M9.85851 30.9658V30.2458C9.85851 30.1503 9.82058 30.0587 9.75307 29.9912C9.68555 29.9237 9.59399 29.8858 9.49851 29.8858C9.35483 29.8878 9.21222 29.8608 9.07926 29.8064C8.9463 29.7519 8.82574 29.671 8.72484 29.5687C8.62394 29.4664 8.54478 29.3448 8.49214 29.2111C8.43949 29.0774 8.41445 28.9344 8.41851 28.7908V20.1508C8.41851 19.8643 8.53229 19.5896 8.73483 19.3871C8.93737 19.1846 9.21208 19.0708 9.49851 19.0708C9.59399 19.0708 9.68555 19.0328 9.75307 18.9653C9.82058 18.8978 9.85851 18.8062 9.85851 18.7108V18.0058C9.85851 17.7193 9.97229 17.4446 10.1748 17.2421C10.3774 17.0396 10.6521 16.9258 10.9385 16.9258C11.2249 16.9258 11.4996 17.0396 11.7022 17.2421C11.9047 17.4446 12.0185 17.7193 12.0185 18.0058V18.7258C12.0185 18.9238 12.1805 19.0858 12.3785 19.0858H13.0985C13.194 19.0858 13.2856 19.0478 13.3531 18.9803C13.4206 18.9128 13.4585 18.8212 13.4585 18.7258V18.0058C13.4585 17.7193 13.5723 17.4446 13.7748 17.2421C13.9774 17.0396 14.2521 16.9258 14.5385 16.9258C14.8249 16.9258 15.0996 17.0396 15.3022 17.2421C15.5047 17.4446 15.6185 17.7193 15.6185 18.0058V19.0408C15.6183 19.1112 15.6388 19.1802 15.6775 19.2392C15.7162 19.2981 15.7713 19.3444 15.836 19.3723C16.2864 19.563 16.6869 19.8545 17.0069 20.2244C17.3268 20.5943 17.5575 21.0328 17.6813 21.5059C17.805 21.9791 17.8185 22.4743 17.7207 22.9535C17.6229 23.4327 17.4163 23.883 17.117 24.2698C17.0678 24.331 17.041 24.4072 17.041 24.4858C17.041 24.5643 17.0678 24.6405 17.117 24.7018C17.5392 25.2627 17.7714 25.9437 17.78 26.6458C17.7775 27.2755 17.5924 27.891 17.247 28.4176C16.9017 28.9443 16.4111 29.3594 15.8345 29.6128C15.7726 29.6397 15.7195 29.6836 15.6813 29.7393C15.6431 29.795 15.6213 29.8603 15.6185 29.9278V30.9658C15.6185 31.2522 15.5047 31.5269 15.3022 31.7294C15.0996 31.932 14.8249 32.0458 14.5385 32.0458C14.2521 32.0458 13.9774 31.932 13.7748 31.7294C13.5723 31.5269 13.4585 31.2522 13.4585 30.9658V30.2458C13.4585 30.1503 13.4206 30.0587 13.3531 29.9912C13.2856 29.9237 13.194 29.8858 13.0985 29.8858H12.3785C12.283 29.8858 12.1915 29.9237 12.124 29.9912C12.0564 30.0587 12.0185 30.1503 12.0185 30.2458V30.9658C12.0185 31.2522 11.9047 31.5269 11.7022 31.7294C11.4996 31.932 11.2249 32.0458 10.9385 32.0458C10.6521 32.0458 10.3774 31.932 10.1748 31.7294C9.97229 31.5269 9.85851 31.2522 9.85851 30.9658ZM28.22 16.5643C34.316 16.5643 38.1275 9.96427 35.078 4.68427C32.03 -0.59723 24.4085 -0.59723 21.359 4.68427C20.6639 5.8883 20.2979 7.25412 20.2979 8.64441C20.298 10.0347 20.664 11.4005 21.3592 12.6045C22.0543 13.8085 23.0542 14.8083 24.2583 15.5034C25.4624 16.1985 26.8297 16.5644 28.22 16.5643ZM30.0185 3.94927C30.3049 3.94927 30.5796 4.06305 30.7822 4.26559C30.9847 4.46813 31.0985 4.74284 31.0985 5.02927C31.0985 5.3157 30.9847 5.59041 30.7822 5.79294C30.5796 5.99548 30.3049 6.10927 30.0185 6.10927H27.569C27.4304 6.11318 27.2988 6.171 27.2021 6.27044C27.1055 6.36988 27.0515 6.5031 27.0515 6.64177C27.0512 6.74696 27.0825 6.84981 27.1413 6.937C27.2002 7.02419 27.2838 7.0917 27.3815 7.13077L29.8595 8.12527C30.8795 8.53777 31.5485 9.52927 31.544 10.6303C31.544 11.8423 30.728 12.9013 29.5565 13.2088C29.4818 13.2305 29.4161 13.2759 29.3693 13.3381C29.3225 13.4003 29.2972 13.4759 29.297 13.5538V13.6843C29.297 13.9707 29.1832 14.2454 28.9807 14.4479C28.7781 14.6505 28.5034 14.7643 28.217 14.7643C27.9306 14.7643 27.6559 14.6505 27.4533 14.4479C27.2508 14.2454 27.137 13.9707 27.137 13.6843C27.137 13.637 27.1277 13.5902 27.1096 13.5465C27.0915 13.5028 27.065 13.4631 27.0316 13.4297C26.9981 13.3963 26.9585 13.3698 26.9148 13.3517C26.8711 13.3336 26.8243 13.3243 26.777 13.3243H26.417C26.2752 13.3243 26.1347 13.2963 26.0037 13.2421C25.8727 13.1878 25.7536 13.1082 25.6533 13.0079C25.553 12.9077 25.4735 12.7886 25.4192 12.6576C25.3649 12.5265 25.337 12.3861 25.337 12.2443C25.337 12.1024 25.3649 11.962 25.4192 11.831C25.4735 11.6999 25.553 11.5809 25.6533 11.4806C25.7536 11.3803 25.8727 11.3008 26.0037 11.2465C26.1347 11.1922 26.2752 11.1643 26.417 11.1643H28.8515C28.9208 11.1661 28.9897 11.154 29.0543 11.1287C29.1188 11.1034 29.1776 11.0655 29.2273 11.0171C29.2769 10.9687 29.3163 10.9109 29.3433 10.847C29.3702 10.7832 29.384 10.7146 29.384 10.6453C29.3863 10.5378 29.356 10.4321 29.2971 10.3421C29.2382 10.2522 29.1535 10.1821 29.054 10.1413L26.576 9.16177C24.65 8.39227 24.281 5.82727 25.91 4.54477C26.192 4.32277 26.5175 4.15927 26.864 4.06477C26.9438 4.04494 27.0144 3.99842 27.064 3.93293C27.1137 3.86744 27.1394 3.78693 27.137 3.70477V3.60277C27.137 3.31634 27.2508 3.04163 27.4533 2.83909C27.6559 2.63655 27.9306 2.52277 28.217 2.52277C28.5034 2.52277 28.7781 2.63655 28.9807 2.83909C29.1832 3.04163 29.297 3.31634 29.297 3.60277C29.297 3.80227 29.459 3.96277 29.657 3.96277L30.0185 3.94927Z" fill="#F5A623"/>
</g>
<defs>
<clipPath id="clip0_137_747">
<rect width="36" height="36" fill="white" transform="translate(0.5)"/>
</clipPath>
</defs>
</svg>
