<svg width="36" height="36" viewBox="0 0 36 36" fill="none" xmlns="http://www.w3.org/2000/svg">
<g clip-path="url(#clip0_53_136)">
<path d="M22.0005 21.1814C21.5854 21.6112 21.0888 21.954 20.5398 22.1898C19.9908 22.4257 19.4003 22.5498 18.8028 22.555C18.2053 22.5602 17.6127 22.4463 17.0597 22.2201C16.5066 21.9938 16.0042 21.6597 15.5817 21.2372C15.1592 20.8146 14.825 20.3122 14.5988 19.7592C14.3725 19.2061 14.2586 18.6136 14.2638 18.0161C14.269 17.4186 14.3932 16.8281 14.629 16.2791C14.8649 15.73 15.2077 15.2335 15.6375 14.8184C16.4862 13.9987 17.6229 13.5451 18.8028 13.5553C19.9827 13.5656 21.1113 14.0389 21.9457 14.8732C22.78 15.7075 23.2532 16.8362 23.2635 18.0161C23.2738 19.196 22.8202 20.3327 22.0005 21.1814Z" fill="#34C759"/>
<path d="M5.625 0C4.72989 0 3.87145 0.355579 3.23851 0.988515C2.60558 1.62145 2.25 2.47989 2.25 3.375V6.75H1.125C0.826631 6.75 0.540483 6.86853 0.329505 7.0795C0.118526 7.29048 0 7.57663 0 7.875C0 8.17337 0.118526 8.45952 0.329505 8.6705C0.540483 8.88147 0.826631 9 1.125 9H2.25V16.875H1.125C0.826631 16.875 0.540483 16.9935 0.329505 17.2045C0.118526 17.4155 0 17.7016 0 18C0 18.2984 0.118526 18.5845 0.329505 18.7955C0.540483 19.0065 0.826631 19.125 1.125 19.125H2.25V27H1.125C0.826631 27 0.540483 27.1185 0.329505 27.3295C0.118526 27.5405 0 27.8266 0 28.125C0 28.4234 0.118526 28.7095 0.329505 28.9205C0.540483 29.1315 0.826631 29.25 1.125 29.25H2.25V32.625C2.25 33.5201 2.60558 34.3786 3.23851 35.0115C3.87145 35.6444 4.72989 36 5.625 36H32.625C33.5201 36 34.3786 35.6444 35.0115 35.0115C35.6444 34.3786 36 33.5201 36 32.625V3.375C36 2.47989 35.6444 1.62145 35.0115 0.988515C34.3786 0.355579 33.5201 0 32.625 0L5.625 0ZM12.456 10.044L14.9085 12.4965C16.0508 11.6846 17.4175 11.2484 18.819 11.2484C20.2205 11.2484 21.5872 11.6846 22.7295 12.4965L25.182 10.044C25.3932 9.83305 25.6796 9.71466 25.9782 9.71487C26.2767 9.71509 26.5629 9.83388 26.7739 10.0451C26.9848 10.2564 27.1032 10.5428 27.103 10.8413C27.1028 11.1398 26.984 11.4261 26.7728 11.637L24.3202 14.0895C25.9853 16.4228 25.9853 19.5795 24.3202 21.9105L26.7728 24.363C26.984 24.5739 27.1028 24.8602 27.103 25.1587C27.1032 25.4572 26.9848 25.7436 26.7739 25.9549C26.5629 26.1661 26.2767 26.2849 25.9782 26.2851C25.6796 26.2853 25.3932 26.1669 25.182 25.956L22.7295 23.5035C21.5872 24.3154 20.2205 24.7516 18.819 24.7516C17.4175 24.7516 16.0508 24.3154 14.9085 23.5035L12.456 25.956C12.3514 26.0606 12.2272 26.1436 12.0906 26.2002C11.9539 26.2568 11.8074 26.2859 11.6595 26.2859C11.5116 26.2859 11.3651 26.2568 11.2284 26.2002C11.0918 26.1436 10.9676 26.0606 10.863 25.956C10.7584 25.8514 10.6754 25.7272 10.6188 25.5906C10.5622 25.4539 10.5331 25.3074 10.5331 25.1595C10.5331 25.0116 10.5622 24.8651 10.6188 24.7284C10.6754 24.5918 10.7584 24.4676 10.863 24.363L13.3155 21.9105C12.5036 20.7682 12.0674 19.4015 12.0674 18C12.0674 16.5985 12.5036 15.2318 13.3155 14.0895L10.863 11.637C10.6518 11.4258 10.5331 11.1392 10.5331 10.8405C10.5331 10.5418 10.6518 10.2552 10.863 10.044C11.0742 9.83276 11.3608 9.71408 11.6595 9.71408C11.9582 9.71408 12.2448 9.83276 12.456 10.044ZM31.5 14.625V21.375C31.5 21.6734 31.3815 21.9595 31.1705 22.1705C30.9595 22.3815 30.6734 22.5 30.375 22.5C30.0766 22.5 29.7905 22.3815 29.5795 22.1705C29.3685 21.9595 29.25 21.6734 29.25 21.375V14.625C29.25 14.3266 29.3685 14.0405 29.5795 13.8295C29.7905 13.6185 30.0766 13.5 30.375 13.5C30.6734 13.5 30.9595 13.6185 31.1705 13.8295C31.3815 14.0405 31.5 14.3266 31.5 14.625Z" fill="#34C759"/>
</g>
<defs>
<clipPath id="clip0_53_136">
<rect width="36" height="36" fill="white"/>
</clipPath>
</defs>
</svg>
