<svg width="18" height="18" viewBox="0 0 18 18" fill="none" xmlns="http://www.w3.org/2000/svg">
<path d="M8.1 2.1V0.9C8.1 0.661305 8.19482 0.432387 8.3636 0.263604C8.53239 0.0948212 8.76131 0 9 0C9.2387 0 9.46761 0.0948212 9.6364 0.263604C9.80518 0.432387 9.9 0.661305 9.9 0.9V2.1C9.9 2.3387 9.80518 2.56761 9.6364 2.7364C9.46761 2.90518 9.2387 3 9 3C8.76131 3 8.53239 2.90518 8.3636 2.7364C8.19482 2.56761 8.1 2.3387 8.1 2.1ZM14.1 9C14.1 10.0087 13.8009 10.9947 13.2405 11.8334C12.6801 12.6721 11.8836 13.3258 10.9517 13.7118C10.0198 14.0978 8.99434 14.1988 8.00504 14.002C7.01574 13.8052 6.107 13.3195 5.39376 12.6062C4.68051 11.893 4.19478 10.9843 3.998 9.99496C3.80121 9.00566 3.90221 7.98022 4.28821 7.04831C4.67422 6.11641 5.3279 5.3199 6.16659 4.75951C7.00528 4.19911 7.99132 3.9 9 3.9C10.3522 3.90139 11.6486 4.43916 12.6047 5.39529C13.5608 6.35142 14.0986 7.64782 14.1 9ZM12.3 9C12.3 8.34732 12.1065 7.7093 11.7438 7.16662C11.3812 6.62394 10.8659 6.20097 10.2629 5.9512C9.65986 5.70143 8.99634 5.63608 8.3562 5.76341C7.71606 5.89074 7.12806 6.20503 6.66655 6.66655C6.20503 7.12806 5.89074 7.71606 5.76341 8.3562C5.63608 8.99634 5.70143 9.65986 5.9512 10.2629C6.20097 10.8659 6.62394 11.3812 7.16662 11.7438C7.7093 12.1065 8.34732 12.3 9 12.3C9.87491 12.299 10.7137 11.951 11.3324 11.3324C11.951 10.7137 12.299 9.87491 12.3 9ZM3.26325 4.53675C3.34697 4.62047 3.44636 4.68688 3.55574 4.73218C3.66512 4.77749 3.78236 4.80081 3.90075 4.80081C4.01914 4.80081 4.13638 4.77749 4.24576 4.73218C4.35515 4.68688 4.45453 4.62047 4.53825 4.53675C4.62197 4.45303 4.68838 4.35364 4.73368 4.24426C4.77899 4.13488 4.80231 4.01764 4.80231 3.89925C4.80231 3.78086 4.77899 3.66362 4.73368 3.55424C4.68838 3.44485 4.62197 3.34547 4.53825 3.26175L3.63825 2.36175C3.46917 2.19267 3.23986 2.09769 3.00075 2.09769C2.76164 2.09769 2.53233 2.19267 2.36325 2.36175C2.19417 2.53083 2.09919 2.76014 2.09919 2.99925C2.09919 3.23836 2.19417 3.46767 2.36325 3.63675L3.26325 4.53675ZM3.26325 13.4618L2.36325 14.3618C2.27953 14.4455 2.21312 14.5449 2.16782 14.6542C2.12251 14.7636 2.09919 14.8809 2.09919 14.9993C2.09919 15.1176 2.12251 15.2349 2.16782 15.3443C2.21312 15.4536 2.27953 15.553 2.36325 15.6368C2.53233 15.8058 2.76164 15.9008 3.00075 15.9008C3.11914 15.9008 3.23638 15.8775 3.34576 15.8322C3.45515 15.7869 3.55453 15.7205 3.63825 15.6368L4.53825 14.7368C4.70733 14.5677 4.80231 14.3384 4.80231 14.0993C4.80231 13.8601 4.70733 13.6308 4.53825 13.4618C4.36917 13.2927 4.13986 13.1977 3.90075 13.1977C3.66164 13.1977 3.43233 13.2927 3.26325 13.4618ZM14.1 4.8C14.2182 4.80009 14.3353 4.77689 14.4446 4.73172C14.5538 4.68655 14.6531 4.6203 14.7368 4.53675L15.6368 3.63675C15.7205 3.55303 15.7869 3.45365 15.8322 3.34426C15.8775 3.23488 15.9008 3.11765 15.9008 2.99925C15.9008 2.88086 15.8775 2.76362 15.8322 2.65424C15.7869 2.54486 15.7205 2.44547 15.6368 2.36175C15.553 2.27803 15.4536 2.21162 15.3443 2.16632C15.2349 2.12101 15.1176 2.09769 14.9993 2.09769C14.8809 2.09769 14.7636 2.12101 14.6542 2.16632C14.5449 2.21162 14.4455 2.27803 14.3618 2.36175L13.4618 3.26175C13.3351 3.38763 13.2488 3.54833 13.2138 3.7234C13.1787 3.89847 13.1966 4.08001 13.265 4.24492C13.3334 4.40984 13.4494 4.55067 13.598 4.64951C13.7467 4.74835 13.9215 4.80074 14.1 4.8ZM14.7368 13.4633C14.5677 13.2942 14.3384 13.1992 14.0993 13.1992C13.8601 13.1992 13.6308 13.2942 13.4618 13.4633C13.2927 13.6323 13.1977 13.8616 13.1977 14.1007C13.1977 14.3399 13.2927 14.5692 13.4618 14.7382L14.3618 15.6383C14.5308 15.8073 14.7601 15.9023 14.9993 15.9023C15.2384 15.9023 15.4677 15.8073 15.6368 15.6383C15.8058 15.4692 15.9008 15.2399 15.9008 15.0008C15.9008 14.7616 15.8058 14.5323 15.6368 14.3632L14.7368 13.4633ZM3 9C3 8.76131 2.90518 8.53239 2.7364 8.3636C2.56761 8.19482 2.3387 8.1 2.1 8.1H0.9C0.661305 8.1 0.432387 8.19482 0.263604 8.3636C0.0948212 8.53239 0 8.76131 0 9C0 9.2387 0.0948212 9.46761 0.263604 9.6364C0.432387 9.80518 0.661305 9.9 0.9 9.9H2.1C2.3387 9.9 2.56761 9.80518 2.7364 9.6364C2.90518 9.46761 3 9.2387 3 9ZM9 15C8.76131 15 8.53239 15.0948 8.3636 15.2636C8.19482 15.4324 8.1 15.6613 8.1 15.9V17.1C8.1 17.3387 8.19482 17.5676 8.3636 17.7364C8.53239 17.9052 8.76131 18 9 18C9.2387 18 9.46761 17.9052 9.6364 17.7364C9.80518 17.5676 9.9 17.3387 9.9 17.1V15.9C9.9 15.6613 9.80518 15.4324 9.6364 15.2636C9.46761 15.0948 9.2387 15 9 15ZM17.1 8.1H15.9C15.6613 8.1 15.4324 8.19482 15.2636 8.3636C15.0948 8.53239 15 8.76131 15 9C15 9.2387 15.0948 9.46761 15.2636 9.6364C15.4324 9.80518 15.6613 9.9 15.9 9.9H17.1C17.3387 9.9 17.5676 9.80518 17.7364 9.6364C17.9052 9.46761 18 9.2387 18 9C18 8.76131 17.9052 8.53239 17.7364 8.3636C17.5676 8.19482 17.3387 8.1 17.1 8.1Z" fill="#443F91"/>
</svg>
