<svg width="37" height="36" viewBox="0 0 37 36" fill="none" xmlns="http://www.w3.org/2000/svg">
<g clip-path="url(#clip0_53_107)">
<path d="M33.89 5.025C33.7491 4.86035 33.5743 4.72817 33.3775 4.63754C33.1807 4.54691 32.9666 4.49999 32.75 4.5H19.25C19.037 4.50027 18.8265 4.54589 18.6325 4.63383C18.4386 4.72176 18.2655 4.85 18.125 5.01C17.9841 5.1705 17.8791 5.35925 17.817 5.56361C17.7549 5.76797 17.7372 5.98324 17.765 6.195L19.265 17.445C19.2906 17.642 19.3547 17.832 19.4538 18.0042C19.5528 18.1764 19.6848 18.3274 19.8422 18.4485C19.9996 18.5697 20.1793 18.6587 20.3711 18.7104C20.5629 18.7622 20.763 18.7756 20.96 18.75C21.157 18.7244 21.347 18.6602 21.5192 18.5612C21.6913 18.4622 21.8423 18.3302 21.9635 18.1728C22.0847 18.0154 22.1737 17.8357 22.2254 17.6439C22.2771 17.4521 22.2906 17.252 22.265 17.055L21.05 7.92C21.0415 7.86876 21.0452 7.81625 21.0609 7.76673C21.0765 7.7172 21.1036 7.67207 21.14 7.635C21.1715 7.59678 21.2102 7.56516 21.254 7.54199C21.2977 7.51882 21.3457 7.50455 21.395 7.5H30.5C30.555 7.49693 30.6099 7.50767 30.6596 7.53125C30.7094 7.55483 30.7525 7.5905 30.785 7.635C30.8216 7.675 30.8487 7.72275 30.8643 7.7747C30.8799 7.82665 30.8835 7.88145 30.875 7.935L29.24 17.79C29.1743 18.1878 29.2694 18.5954 29.5043 18.9232C29.7392 19.2509 30.0947 19.4719 30.4925 19.5375C30.6895 19.57 30.8909 19.5634 31.0853 19.518C31.2798 19.4727 31.4634 19.3895 31.6256 19.2732C31.9533 19.0383 32.1743 18.6828 32.24 18.285L34.25 6.285C34.2892 6.06143 34.2772 5.83186 34.2148 5.61361C34.1525 5.39535 34.0414 5.19409 33.89 5.025Z" fill="#C44FE2"/>
<path d="M29 21.0001H20C19.9302 21.0026 19.8613 20.9839 19.8024 20.9464C19.7434 20.9089 19.6973 20.8544 19.67 20.7901L18.23 18.0001C18.1756 17.8867 18.0934 17.7887 17.9912 17.7153C17.889 17.6419 17.7699 17.5954 17.645 17.5801C17.5189 17.5656 17.3912 17.5827 17.2734 17.6298C17.1555 17.677 17.0513 17.7527 16.97 17.8501L14.15 21.3151C13.918 21.561 13.6022 21.7109 13.265 21.7351H11.765C11.664 21.7331 11.5636 21.7515 11.4698 21.7892C11.3761 21.8269 11.291 21.8832 11.2195 21.9546C11.1481 22.0261 11.0918 22.1112 11.0541 22.205C11.0164 22.2987 10.998 22.3991 11 22.5001V31.5001C10.9976 31.617 11.0236 31.7327 11.0759 31.8372C11.1281 31.9417 11.2051 32.032 11.3 32.1001C14.75 34.6951 17.42 36.0001 19.25 36.0001H27.575C28.2281 36.1106 28.8986 35.9626 29.4445 35.5875C29.9905 35.2123 30.369 34.6394 30.5 33.9901C31.2308 30.4462 31.7318 26.8587 32 23.2501C32 22.1251 30.965 21.0001 29 21.0001ZM7.745 20.2501H3.125C3.02554 20.2501 2.93016 20.2896 2.85984 20.36C2.78951 20.4303 2.75 20.5257 2.75 20.6251V34.1251C2.75 34.2246 2.78951 34.32 2.85984 34.3903C2.93016 34.4606 3.02554 34.5001 3.125 34.5001H7.745C7.87045 34.5149 7.99759 34.503 8.11816 34.4654C8.23874 34.4278 8.35004 34.3652 8.44484 34.2817C8.53963 34.1982 8.61579 34.0957 8.66837 33.9809C8.72094 33.8661 8.74876 33.7414 8.75 33.6151V21.1351C8.74876 21.0088 8.72094 20.8842 8.66837 20.7693C8.61579 20.6545 8.53963 20.552 8.44484 20.4685C8.35004 20.3851 8.23874 20.3225 8.11816 20.2848C7.99759 20.2472 7.87045 20.2354 7.745 20.2501ZM23.75 13.5001C23.75 14.0969 23.9871 14.6692 24.409 15.0911C24.831 15.5131 25.4033 15.7501 26 15.7501C26.5967 15.7501 27.169 15.5131 27.591 15.0911C28.0129 14.6692 28.25 14.0969 28.25 13.5001C28.25 12.9034 28.0129 12.3311 27.591 11.9091C27.169 11.4872 26.5967 11.2501 26 11.2501C25.4033 11.2501 24.831 11.4872 24.409 11.9091C23.9871 12.3311 23.75 12.9034 23.75 13.5001ZM15.5 16.5001C15.7189 16.5029 15.9358 16.4578 16.1354 16.3679C16.335 16.278 16.5125 16.1455 16.6555 15.9797C16.7984 15.8138 16.9033 15.6187 16.9628 15.4081C17.0224 15.1974 17.035 14.9762 17 14.7601L15.095 3.43512C15.0581 3.33853 15.0581 3.23171 15.095 3.13512C15.1408 3.0741 15.2041 3.02849 15.2764 3.00437C15.3488 2.98025 15.4268 2.97877 15.5 3.00012H27.5C27.8978 3.00012 28.2794 2.84209 28.5607 2.56078C28.842 2.27948 29 1.89795 29 1.50012C29 1.1023 28.842 0.720769 28.5607 0.439465C28.2794 0.15816 27.8978 0.000124759 27.5 0.000124759H13.25C13.0311 -0.00269862 12.8142 0.0424304 12.6146 0.132343C12.415 0.222256 12.2375 0.354773 12.0945 0.520591C11.9516 0.686408 11.8467 0.881505 11.7872 1.09219C11.7276 1.30287 11.715 1.52402 11.75 1.74012L14 15.2401C14.0575 15.5951 14.2406 15.9175 14.5159 16.1488C14.7912 16.3801 15.1405 16.5048 15.5 16.5001Z" fill="#C44FE2"/>
</g>
<defs>
<clipPath id="clip0_53_107">
<rect width="36" height="36" fill="white" transform="translate(0.5)"/>
</clipPath>
</defs>
</svg>
